<svg width="20" height="26" viewBox="0 0 20 26" fill="none" xmlns="http://www.w3.org/2000/svg">
<path d="M9.47396 13.0051C9.21354 12.1926 9.21875 10.6234 9.36979 10.6234C9.80729 10.6234 9.76562 12.4973 9.47396 13.0051ZM9.38542 15.402C8.98438 16.4277 8.48438 17.6008 7.90625 18.5859C8.85938 18.2305 9.9375 17.7125 11.1823 17.4738C10.5208 16.9863 9.88542 16.2855 9.38542 15.402ZM4.48438 21.7395C4.48438 21.7801 5.17188 21.4652 6.30208 19.698C5.95312 20.018 4.78646 20.9422 4.48438 21.7395ZM12.9167 8.125H20V24.7812C20 25.4566 19.4427 26 18.75 26H1.25C0.557292 26 0 25.4566 0 24.7812V1.21875C0 0.543359 0.557292 0 1.25 0H11.6667V6.90625C11.6667 7.57656 12.2292 8.125 12.9167 8.125ZM12.5 16.8492C11.4583 16.2297 10.7656 15.3766 10.276 14.1172C10.5104 13.1777 10.8802 11.7508 10.599 10.857C10.3542 9.36406 8.39062 9.51133 8.10938 10.5117C7.84896 11.441 8.08854 12.7512 8.53125 14.4219C7.92708 15.8234 7.03646 17.7023 6.40625 18.7789C6.40104 18.7789 6.40104 18.784 6.39583 18.784C4.98438 19.4898 2.5625 21.0437 3.55729 22.2371C3.84896 22.5875 4.39062 22.7449 4.67708 22.7449C5.60938 22.7449 6.53646 21.8309 7.85937 19.6066C9.20312 19.175 10.6771 18.6367 11.974 18.4285C13.1042 19.0277 14.4271 19.4187 15.3073 19.4187C16.8281 19.4187 16.9323 17.7938 16.3333 17.2148C15.6094 16.5242 13.5052 16.7223 12.5 16.8492ZM19.6354 5.33203L14.5312 0.355469C14.2969 0.126953 13.9792 0 13.6458 0H13.3333V6.5H20V6.19023C20 5.87031 19.8698 5.56055 19.6354 5.33203ZM15.776 18.2965C15.9896 18.1594 15.6458 17.6922 13.5469 17.8395C15.4792 18.6418 15.776 18.2965 15.776 18.2965Z" fill="#973813"/>
</svg>
