<?xml version="1.0" encoding="UTF-8"?>
<svg version="1.1" xmlns="http://www.w3.org/2000/svg" width="512" height="512">
<path d="M0 0 C2.99851881 1.32504968 3.89885334 2.35855848 6 5 C7.01796833 8.01105278 7.12167901 10.78854273 7.11352539 13.95214844 C7.11341209 15.42322052 7.11341209 15.42322052 7.11329651 16.92401123 C7.10813522 17.97518127 7.10297394 19.02635132 7.09765625 20.109375 C7.0962413 21.19132141 7.09482635 22.27326782 7.09336853 23.38800049 C7.08777318 26.8420285 7.0752215 30.29599159 7.0625 33.75 C7.0574844 36.09244698 7.0529216 38.43489498 7.04882812 40.77734375 C7.03865638 46.51827428 7.01907992 52.25906449 7 58 C18.22 58 29.44 58 41 58 C40.96519531 54.37644531 40.93039063 50.75289062 40.89453125 47.01953125 C40.87113156 43.50806465 40.85291726 39.99660676 40.83520508 36.48510742 C40.82012346 34.04561472 40.79965531 31.6061491 40.77368164 29.16674805 C40.73727188 25.65927441 40.72026711 22.15215946 40.70703125 18.64453125 C40.69154739 17.55477493 40.67606354 16.46501862 40.66011047 15.34223938 C40.65799176 5.79855873 40.65799176 5.79855873 44 2 C47.63204338 -0.42136226 49.55143835 -0.32929639 53.875 -0.375 C55.08929688 -0.40335938 56.30359375 -0.43171875 57.5546875 -0.4609375 C61.56627964 0.07576077 63.15970362 1.18066522 66 4 C67.25274723 6.50549445 67.12029624 8.19735632 67.11352539 11.00048828 C67.11344986 12.04141632 67.11337433 13.08234436 67.11329651 14.15481567 C67.10813522 15.28192963 67.10297394 16.40904358 67.09765625 17.5703125 C67.09553383 19.29735916 67.09553383 19.29735916 67.09336853 21.05929565 C67.08775716 24.74788986 67.0752027 28.43642405 67.0625 32.125 C67.05748647 34.62109288 67.05292331 37.1171867 67.04882812 39.61328125 C67.0386336 45.7422294 67.01906032 51.87104727 67 58 C78.55 58 90.1 58 102 58 C101.95359375 54.30425781 101.9071875 50.60851562 101.859375 46.80078125 C101.8281765 43.21982191 101.80389024 39.63887774 101.78027344 36.05786133 C101.76016295 33.56983662 101.73287073 31.08185914 101.69824219 28.59399414 C101.64970147 25.01697125 101.62702505 21.44057349 101.609375 17.86328125 C101.58872986 16.75165115 101.56808472 15.64002106 101.54681396 14.4947052 C101.54456917 6.76223199 101.54456917 6.76223199 103.89941406 2.82104492 C108.33805675 -1.02691368 112.94805889 -0.38264115 118.625 -0.359375 C121.83932352 -0.01710907 123.0949084 0.1310085 125.3125 2.375 C127.61743994 5.96046213 128.12393137 7.68386298 128.11352539 11.90869141 C128.11344986 12.92959869 128.11337433 13.95050598 128.11329651 15.00234985 C128.10813522 16.10759003 128.10297394 17.2128302 128.09765625 18.3515625 C128.09553383 20.04531509 128.09553383 20.04531509 128.09336853 21.77328491 C128.08775744 25.39054988 128.07520303 29.00775364 128.0625 32.625 C128.05748643 35.07291577 128.05292328 37.52083252 128.04882812 39.96875 C128.03863399 45.9792094 128.01906067 51.98953593 128 58 C139.22 58 150.44 58 162 58 C161.96519531 54.46023437 161.93039062 50.92046875 161.89453125 47.2734375 C161.87112253 43.83806159 161.85291337 40.40269462 161.83520508 36.96728516 C161.820136 34.58312999 161.79967709 32.19900247 161.77368164 29.81494141 C161.73721663 26.38437063 161.72025448 22.954167 161.70703125 19.5234375 C161.69154739 18.46071625 161.67606354 17.397995 161.66011047 16.30307007 C161.65886733 10.81363352 161.75746626 6.6714871 165 2 C170.08903891 -1.39269261 176.06652281 -0.68044463 182 0 C184.93296947 1.34255645 185.91179616 2.43449242 188 5 C188.98466253 7.95398758 189.12127836 9.85249022 189.11352539 12.93041992 C189.11344986 13.93123093 189.11337433 14.93204193 189.11329651 15.96318054 C189.10813522 17.04138565 189.10297394 18.11959076 189.09765625 19.23046875 C189.09553383 20.88880486 189.09553383 20.88880486 189.09336853 22.5806427 C189.08776514 26.11628917 189.07521204 29.65187262 189.0625 33.1875 C189.05748544 35.58268138 189.05292246 37.97786375 189.04882812 40.37304688 C189.03779461 46.24871947 189.02105316 52.12435523 189 58 C190.16265381 57.98694824 191.32530762 57.97389648 192.52319336 57.96044922 C194.06624145 57.94989245 195.60929175 57.93965543 197.15234375 57.9296875 C197.9165564 57.92026123 198.68076904 57.91083496 199.46813965 57.90112305 C208.17349525 57.85898903 215.31746986 59.53859383 222.1796875 65.13671875 C229.49923359 72.62904382 232.10841035 81.06367848 232.0390625 91.2578125 C232.03342285 92.33434082 232.0277832 93.41086914 232.02197266 94.52001953 C232.01472168 95.33841309 232.0074707 96.15680664 232 97 C232.62782883 96.99111755 233.25565765 96.98223511 233.9025116 96.9730835 C240.43987927 96.88455545 246.97707652 96.82424288 253.51489258 96.78027344 C255.95441607 96.76016436 258.3938914 96.73287317 260.83325195 96.69824219 C264.34077848 96.64969511 267.84766743 96.62702368 271.35546875 96.609375 C272.44522507 96.58872986 273.53498138 96.56808472 274.65776062 96.54681396 C282.24104639 96.54456929 282.24104639 96.54456929 286.1652832 98.89941406 C289.32662234 102.51886342 289.2178677 105.05598164 289.3125 109.8125 C289.34988281 111.03582031 289.38726562 112.25914062 289.42578125 113.51953125 C288.92980695 117.5737799 287.84899719 119.14043139 285 122 C282.51644959 123.24177521 280.86892378 123.12036681 278.09130859 123.11352539 C277.07040131 123.11344986 276.04949402 123.11337433 274.99765015 123.11329651 C273.33978989 123.10555458 273.33978989 123.10555458 271.6484375 123.09765625 C270.5192691 123.0962413 269.39010071 123.09482635 268.22671509 123.09336853 C264.60945012 123.08775744 260.99224636 123.07520303 257.375 123.0625 C254.92708423 123.05748643 252.47916748 123.05292328 250.03125 123.04882812 C244.0207906 123.03863399 238.01046407 123.01906067 232 123 C232 134.55 232 146.1 232 158 C237.41792969 157.91298828 237.41792969 157.91298828 242.9453125 157.82421875 C246.45017299 157.78520598 249.95500913 157.75485668 253.45996094 157.7253418 C255.89268857 157.70022371 258.32534092 157.66612296 260.7578125 157.62280273 C264.25800159 157.56203556 267.7571915 157.53376217 271.2578125 157.51171875 C272.34240753 157.48591232 273.42700256 157.4601059 274.54446411 157.43351746 C282.99069343 157.43039209 282.99069343 157.43039209 286.6862793 160.3059082 C289.71737565 163.83531079 289.77502697 165.89331717 289.6875 170.5 C289.69136719 171.7890625 289.69523437 173.078125 289.69921875 174.40625 C288.85018819 178.7699825 287.40578761 180.23827207 284 183 C281.53838983 184.23080509 279.93503007 184.12043977 277.18310547 184.11352539 C276.18221893 184.11344986 275.1813324 184.11337433 274.15011597 184.11329651 C273.06674957 184.10813522 271.98338318 184.10297394 270.8671875 184.09765625 C269.76021515 184.0962413 268.6532428 184.09482635 267.51272583 184.09336853 C263.96679007 184.08775772 260.42091677 184.07520337 256.875 184.0625 C254.47526133 184.05748639 252.07552167 184.05292325 249.67578125 184.04882812 C243.78381057 184.0386344 237.89197545 184.01906103 232 184 C232 195.22 232 206.44 232 218 C235.46757812 217.96519531 238.93515625 217.93039062 242.5078125 217.89453125 C245.87368954 217.87112152 249.23955745 217.85291294 252.60546875 217.83520508 C254.94112216 217.82013739 257.27674737 217.79967951 259.61230469 217.77368164 C262.97337819 217.73721042 266.33407692 217.7202531 269.6953125 217.70703125 C270.73615997 217.69154739 271.77700745 217.67606354 272.84939575 217.66011047 C278.29424127 217.65885225 282.3603543 217.79777331 287 221 C289.48833262 224.73249893 289.36309518 226.91946402 289.4375 231.375 C289.47746094 232.68210937 289.51742188 233.98921875 289.55859375 235.3359375 C288.87173098 239.84137302 287.53695748 241.22652673 284 244 C281.07081707 244.97639431 279.20974262 245.12136181 276.16137695 245.11352539 C274.69019157 245.11341209 274.69019157 245.11341209 273.18928528 245.11329651 C272.13295395 245.10813522 271.07662262 245.10297394 269.98828125 245.09765625 C268.36323921 245.09553383 268.36323921 245.09553383 266.70536804 245.09336853 C263.24105075 245.08776559 259.7767978 245.07521258 256.3125 245.0625 C253.96549572 245.05748538 251.61849044 245.05292241 249.27148438 245.04882812 C243.51427811 245.03864559 237.75721118 245.01907063 232 245 C232 256.22 232 267.44 232 279 C235.55136719 278.96519531 239.10273438 278.93039062 242.76171875 278.89453125 C246.20368648 278.87113076 249.64564534 278.85291692 253.08764648 278.83520508 C255.4786374 278.82012457 257.86960068 278.79965723 260.26049805 278.77368164 C263.69847435 278.73726694 267.13608469 278.72026601 270.57421875 278.70703125 C271.64210129 278.69154739 272.70998383 278.67606354 273.81022644 278.66011047 C283.17406588 278.65799009 283.17406588 278.65799009 287 282 C289.48163006 285.72244509 289.39521552 287.93039177 289.5 292.375 C289.57734375 294.33566406 289.57734375 294.33566406 289.65625 296.3359375 C288.96235981 300.21015773 288.11804877 301.59314998 285.03741455 303.98242188 C280.74165522 306.1279208 275.95087141 305.59994605 271.2578125 305.48828125 C270.13430389 305.48120651 269.01079529 305.47413177 267.85324097 305.46684265 C264.27647396 305.43892807 260.70129124 305.37619067 257.125 305.3125 C254.69533516 305.28741353 252.2656457 305.26460098 249.8359375 305.24414062 C243.89008747 305.18911092 237.94515694 305.1055124 232 305 C232.00589142 305.57574768 232.01178284 306.15149536 232.01785278 306.74468994 C232.04137196 309.376654 232.05591609 312.00859586 232.0703125 314.640625 C232.07973877 315.54635254 232.08916504 316.45208008 232.09887695 317.38525391 C232.14107012 327.67101033 230.25182321 335.40595592 223 343 C215.35642326 349.86548809 208.71737493 351.31216245 198.625 351.125 C197.69816406 351.11597656 196.77132813 351.10695313 195.81640625 351.09765625 C193.54399923 351.07422937 191.2721382 351.04142748 189 351 C189.00999275 351.94174324 189.00999275 351.94174324 189.02018738 352.9025116 C189.08658382 359.43991981 189.13181863 365.97723214 189.16479492 372.51489258 C189.17987654 374.95438528 189.20034469 377.3938509 189.22631836 379.83325195 C189.26272812 383.34072559 189.27973289 386.84784054 189.29296875 390.35546875 C189.30845261 391.44522507 189.32393646 392.53498138 189.33988953 393.65776062 C189.34197456 403.04974203 189.34197456 403.04974203 186 407 C182.76040885 410.22544446 180.12052278 410.4580837 175.625 410.5 C171.48364477 410.41158905 168.52992415 410.33543877 165.25 407.6875 C162.20415783 404.04941074 161.87514665 401.56560765 161.88647461 396.9777832 C161.88655014 395.95695145 161.88662567 394.93611969 161.88670349 393.88435364 C161.89186478 392.78427475 161.89702606 391.68419586 161.90234375 390.55078125 C161.90446617 388.85915108 161.90446617 388.85915108 161.90663147 387.13334656 C161.9122353 383.52637088 161.92478847 379.91945696 161.9375 376.3125 C161.94251451 373.86914152 161.9470775 371.42578207 161.95117188 368.98242188 C161.96135567 362.98823824 161.98093047 356.99418836 162 351 C150.78 351 139.56 351 128 351 C128.04640625 354.68414062 128.0928125 358.36828125 128.140625 362.1640625 C128.17183405 365.73843 128.1961143 369.31278223 128.21972656 372.88720703 C128.23982241 375.36839611 128.26710384 377.84953795 128.30175781 380.33056641 C128.35036294 383.90018382 128.37298972 387.46917416 128.390625 391.0390625 C128.41127014 392.14553131 128.43191528 393.25200012 128.45318604 394.39199829 C128.4549764 400.5586835 128.21921582 404.35023194 124 409 C121.07752427 410.46123786 118.44146161 410.2477615 115.1875 410.3125 C113.96417969 410.34988281 112.74085938 410.38726562 111.48046875 410.42578125 C107.4262201 409.92980695 105.85956861 408.84899719 103 406 C101.73627956 403.47255912 101.87977205 401.73619692 101.88647461 398.90771484 C101.88655014 397.84676605 101.88662567 396.78581726 101.88670349 395.69271851 C101.89186478 394.54373077 101.89702606 393.39474304 101.90234375 392.2109375 C101.90446617 390.45059677 101.90446617 390.45059677 101.90663147 388.6546936 C101.91224311 384.89477015 101.92479762 381.13490555 101.9375 377.375 C101.9425135 374.83073002 101.94707667 372.28645912 101.95117188 369.7421875 C101.96136678 363.49475057 101.98094001 357.24744142 102 351 C90.45 351 78.9 351 67 351 C67.04640625 354.76792969 67.0928125 358.53585937 67.140625 362.41796875 C67.17182251 366.06842705 67.19610934 369.71887049 67.21972656 373.36938477 C67.23983841 375.90591075 67.26713161 378.4423904 67.30175781 380.97875977 C67.35029242 384.62527911 67.37297363 388.27118528 67.390625 391.91796875 C67.41127014 393.05147263 67.43191528 394.1849765 67.45318604 395.35282898 C67.45543096 403.23448964 67.45543096 403.23448964 65.10058594 407.19262695 C61.4705122 410.31599235 58.9309034 410.21812862 54.1875 410.3125 C52.96417969 410.34988281 51.74085938 410.38726562 50.48046875 410.42578125 C46.41042731 409.92787495 44.83432296 408.90766958 42 406 C40.99877829 402.99633486 40.87887989 401.02260407 40.88647461 397.88598633 C40.88655014 396.84513382 40.88662567 395.80428131 40.88670349 394.73188782 C40.89186478 393.60993515 40.89702606 392.48798248 40.90234375 391.33203125 C40.90446617 389.60710701 40.90446617 389.60710701 40.90663147 387.84733582 C40.91223571 384.16903092 40.92478896 380.49078655 40.9375 376.8125 C40.94251445 374.32096442 40.94707745 371.82942789 40.95117188 369.33789062 C40.96135627 363.22521825 40.98093099 357.11267701 41 351 C29.78 351 18.56 351 7 351 C7.02320313 354.55136719 7.04640625 358.10273438 7.0703125 361.76171875 C7.08591285 365.20369103 7.09805544 368.64565936 7.10986328 372.08764648 C7.11991686 374.47861496 7.13356164 376.86957115 7.15087891 379.26049805 C7.1751551 382.6984358 7.18648965 386.13621088 7.1953125 389.57421875 C7.20563507 390.64210129 7.21595764 391.70998383 7.22659302 392.81022644 C7.22674408 393.81088638 7.22689514 394.81154633 7.22705078 395.8425293 C7.231492 396.71967087 7.23593323 397.59681244 7.24050903 398.50053406 C6.84324081 402.62910415 5.67943117 405.29266362 2.8125 408.27734375 C-2.35882283 411.44477898 -8.14926294 410.82483509 -14 410 C-17.5411419 408.17725113 -18.74753439 405.75739683 -20 402 C-20.08754798 400.32779029 -20.11765995 398.65227801 -20.11352539 396.9777832 C-20.11341209 395.44653557 -20.11341209 395.44653557 -20.11329651 393.88435364 C-20.10813522 392.78427475 -20.10297394 391.68419586 -20.09765625 390.55078125 C-20.0962413 389.4230278 -20.09482635 388.29527435 -20.09336853 387.13334656 C-20.0877647 383.52637088 -20.07521153 379.91945696 -20.0625 376.3125 C-20.05748549 373.86914152 -20.0529225 371.42578207 -20.04882812 368.98242188 C-20.03779403 362.98826013 -20.02105215 356.99413448 -20 351 C-21.93879028 351.04459351 -21.93879028 351.04459351 -23.91674805 351.09008789 C-25.63589541 351.11413601 -27.3550531 351.13745342 -29.07421875 351.16015625 C-29.92334839 351.1816272 -30.77247803 351.20309814 -31.64733887 351.22521973 C-40.23765254 351.31014928 -46.29531345 349.02437546 -52.91796875 343.359375 C-59.37180837 336.53902103 -61.46421297 328.88691024 -61.3515625 319.67773438 C-61.31804687 318.60845703 -61.28453125 317.53917969 -61.25 316.4375 C-61.23195312 315.33341797 -61.21390625 314.22933594 -61.1953125 313.09179688 C-61.14859048 310.39360019 -61.0831014 307.69727965 -61 305 C-61.5902446 305.00888245 -62.1804892 305.01776489 -62.78862 305.0269165 C-68.9366995 305.11547008 -75.08459758 305.17576748 -81.2331543 305.21972656 C-83.52717448 305.23983106 -85.82114348 305.26711891 -88.11499023 305.30175781 C-91.41402826 305.35032559 -94.71238822 305.37298077 -98.01171875 305.390625 C-99.03585373 305.41127014 -100.05998871 305.43191528 -101.11515808 305.45318604 C-108.25088156 305.45543029 -108.25088156 305.45543029 -112.12426758 303.10058594 C-115.34212379 299.49698906 -115.21746929 296.96404347 -115.3125 292.1875 C-115.34988281 290.96417969 -115.38726562 289.74085938 -115.42578125 288.48046875 C-114.92787495 284.41042731 -113.90766958 282.83432296 -111 280 C-108.12037166 279.04012389 -106.33372559 278.87846186 -103.3449707 278.88647461 C-102.40422195 278.88655014 -101.46347321 278.88662567 -100.49421692 278.88670349 C-99.48163315 278.89186478 -98.46904938 278.89702606 -97.42578125 278.90234375 C-95.86732735 278.90446617 -95.86732735 278.90446617 -94.27738953 278.90663147 C-90.95573052 278.91223344 -87.63413867 278.92478628 -84.3125 278.9375 C-82.06184993 278.94251475 -79.81119881 278.9470777 -77.56054688 278.95117188 C-72.04031783 278.96135304 -66.52023418 278.98092817 -61 279 C-61 267.78 -61 256.56 -61 245 C-65.87652344 245.05220703 -65.87652344 245.05220703 -70.8515625 245.10546875 C-74.00894289 245.12888178 -77.16631352 245.14708846 -80.32373047 245.16479492 C-82.51387885 245.17985806 -84.70399719 245.20031259 -86.89404297 245.22631836 C-90.04662503 245.26280989 -93.19880737 245.27975139 -96.3515625 245.29296875 C-97.32678864 245.30845261 -98.30201477 245.32393646 -99.30679321 245.33988953 C-104.61237604 245.34119556 -108.46159277 245.08011616 -113 242 C-115.48833262 238.26750107 -115.36309518 236.08053598 -115.4375 231.625 C-115.49744141 229.66433594 -115.49744141 229.66433594 -115.55859375 227.6640625 C-114.87173098 223.15862698 -113.53695748 221.77347327 -110 219 C-107.14512885 218.04837628 -105.39545683 217.87836861 -102.43676758 217.88647461 C-101.51603958 217.88655014 -100.59531158 217.88662567 -99.64668274 217.88670349 C-98.16061775 217.89444542 -98.16061775 217.89444542 -96.64453125 217.90234375 C-95.11937141 217.90446617 -95.11937141 217.90446617 -93.56340027 217.90663147 C-90.31307036 217.91223293 -87.06280912 217.92478568 -83.8125 217.9375 C-81.61002704 217.94251481 -79.40755299 217.94707775 -77.20507812 217.95117188 C-71.80333762 217.96135231 -66.40174575 217.98092754 -61 218 C-61 206.78 -61 195.56 -61 184 C-65.98480469 184.06960937 -65.98480469 184.06960937 -71.0703125 184.140625 C-74.29718499 184.17184077 -77.52404051 184.19611714 -80.75097656 184.21972656 C-82.98966021 184.23981316 -85.22829158 184.2670878 -87.46679688 184.30175781 C-90.68893349 184.35040464 -93.91037501 184.37299874 -97.1328125 184.390625 C-98.12991241 184.41127014 -99.12701233 184.43191528 -100.15432739 184.45318604 C-106.08573059 184.45509138 -109.4914844 183.97370091 -114 180 C-115.49363355 177.0127329 -115.34693477 173.96346295 -115.4375 170.6875 C-115.49808594 169.37136719 -115.55867188 168.05523437 -115.62109375 166.69921875 C-114.96005136 162.76206689 -114.11845199 161.43406489 -110.99836731 159.01634216 C-106.89729851 156.93059491 -102.41103427 157.39782889 -97.9140625 157.51171875 C-96.32868179 157.52233086 -96.32868179 157.52233086 -94.71127319 157.53315735 C-91.34845034 157.56105885 -87.98731628 157.62379245 -84.625 157.6875 C-82.33986786 157.71258822 -80.05470952 157.73540047 -77.76953125 157.75585938 C-72.17851968 157.80661293 -66.59114116 157.90447937 -61 158 C-61 146.45 -61 134.9 -61 123 C-64.40699219 123.04640625 -67.81398438 123.0928125 -71.32421875 123.140625 C-74.62718211 123.17182787 -77.930129 123.1961116 -81.2331543 123.21972656 C-83.52717448 123.23983106 -85.82114348 123.26711891 -88.11499023 123.30175781 C-91.41402826 123.35032559 -94.71238822 123.37298077 -98.01171875 123.390625 C-99.03585373 123.41127014 -100.05998871 123.43191528 -101.11515808 123.45318604 C-108.25088156 123.45543029 -108.25088156 123.45543029 -112.12426758 121.10058594 C-115.34212379 117.49698906 -115.21746929 114.96404347 -115.3125 110.1875 C-115.34988281 108.96417969 -115.38726562 107.74085938 -115.42578125 106.48046875 C-114.92980695 102.4262201 -113.84899719 100.85956861 -111 98 C-108.58225419 96.79112709 -107.06668936 96.87940657 -104.36669922 96.88647461 C-103.40585419 96.88655014 -102.44500916 96.88662567 -101.45504761 96.88670349 C-100.41542877 96.89186478 -99.37580994 96.89702606 -98.3046875 96.90234375 C-97.24210724 96.9037587 -96.17952698 96.90517365 -95.08474731 96.90663147 C-91.68146991 96.91224166 -88.27825762 96.92479591 -84.875 96.9375 C-82.57161553 96.94251369 -80.26823003 96.94707682 -77.96484375 96.95117188 C-72.30987351 96.9622144 -66.65494141 96.97896248 -61 97 C-61.01812744 95.90300781 -61.03625488 94.80601562 -61.05493164 93.67578125 C-61.06959316 92.22135834 -61.08381131 90.76693091 -61.09765625 89.3125 C-61.11074829 88.59126953 -61.12384033 87.87003906 -61.1373291 87.12695312 C-61.20114997 78.1818207 -58.05590844 72.26429985 -52.0625 65.79296875 C-44.7058082 59.39766281 -36.66025452 57.81965712 -27.1875 57.9375 C-26.49462891 57.94201172 -25.80175781 57.94652344 -25.08789062 57.95117188 C-23.39188932 57.96286844 -21.69593297 57.98080076 -20 58 C-20.00999275 57.08037979 -20.00999275 57.08037979 -20.02018738 56.1421814 C-20.08665305 49.75060276 -20.13184731 43.35912262 -20.16479492 36.96728516 C-20.179864 34.58312999 -20.20032291 32.19900247 -20.22631836 29.81494141 C-20.26278337 26.38437063 -20.27974552 22.954167 -20.29296875 19.5234375 C-20.30845261 18.46071625 -20.32393646 17.397995 -20.33988953 16.30307007 C-20.34113267 10.81363352 -20.24253374 6.6714871 -17 2 C-11.90786141 -1.39475906 -5.93671155 -0.67400739 0 0 Z M-11 8 C-12.20887291 10.41774581 -12.12059343 11.93331064 -12.11352539 14.63330078 C-12.11344986 15.59414581 -12.11337433 16.55499084 -12.11329651 17.54495239 C-12.10813522 18.58457123 -12.10297394 19.62419006 -12.09765625 20.6953125 C-12.0962413 21.75789276 -12.09482635 22.82047302 -12.09336853 23.91525269 C-12.08775834 27.31853009 -12.07520409 30.72174238 -12.0625 34.125 C-12.05748631 36.42838447 -12.05292318 38.73176997 -12.04882812 41.03515625 C-12.03778559 46.69012936 -12.02051409 52.34505363 -12 58 C-8.37 58 -4.74 58 -1 58 C-0.95061994 51.36142059 -0.91428981 44.72294773 -0.89013672 38.08422852 C-0.88006942 35.82509499 -0.86641462 33.56597453 -0.84912109 31.30688477 C-0.82490492 28.06263001 -0.81352425 24.81854729 -0.8046875 21.57421875 C-0.79436493 20.56163498 -0.78404236 19.54905121 -0.77340698 18.50578308 C-0.77318039 17.09465996 -0.77318039 17.09465996 -0.77294922 15.6550293 C-0.768508 14.82674118 -0.76406677 13.99845306 -0.75949097 13.14506531 C-0.8674034 10.70214774 -0.8674034 10.70214774 -3 8 C-4.97747122 7.63702064 -4.97747122 7.63702064 -7.125 7.8125 C-8.40375 7.874375 -9.6825 7.93625 -11 8 Z M49 9 C48.90680551 10.5348297 48.882542 12.07392082 48.88647461 13.61157227 C48.88655014 14.59251358 48.88662567 15.5734549 48.88670349 16.5841217 C48.89186478 17.6507756 48.89702606 18.7174295 48.90234375 19.81640625 C48.9037587 20.9025975 48.90517365 21.98878876 48.90663147 23.1078949 C48.91224952 26.59279075 48.92480508 30.07762342 48.9375 33.5625 C48.94251267 35.91861887 48.94707598 38.27473874 48.95117188 40.63085938 C48.96222482 46.42059743 48.97950154 52.21028799 49 58 C52.3 58 55.6 58 59 58 C59.02464201 51.03996034 59.04283222 44.07994584 59.05493164 37.11987305 C59.05997341 34.75007688 59.06680665 32.38028385 59.07543945 30.01049805 C59.0875119 26.61245961 59.09322971 23.21446215 59.09765625 19.81640625 C59.10281754 18.74975235 59.10797882 17.68309845 59.11329651 16.5841217 C59.11337204 15.60318039 59.11344757 14.62223907 59.11352539 13.61157227 C59.115746 12.74331314 59.11796661 11.87505402 59.12025452 10.98048401 C59.21954667 8.99856319 59.21954667 8.99856319 58 8 C56.12678052 7.83946185 56.12678052 7.83946185 54 7.875 C53.278125 7.87242188 52.55625 7.86984375 51.8125 7.8671875 C49.97910585 7.80304724 49.97910585 7.80304724 49 9 Z M110 9 C109.90680551 10.5348297 109.882542 12.07392082 109.88647461 13.61157227 C109.88655014 14.59251358 109.88662567 15.5734549 109.88670349 16.5841217 C109.89186478 17.6507756 109.89702606 18.7174295 109.90234375 19.81640625 C109.9037587 20.9025975 109.90517365 21.98878876 109.90663147 23.1078949 C109.91224952 26.59279075 109.92480508 30.07762342 109.9375 33.5625 C109.94251267 35.91861887 109.94707598 38.27473874 109.95117188 40.63085938 C109.96222482 46.42059743 109.97950154 52.21028799 110 58 C113.3 58 116.6 58 120 58 C120.02464201 51.03996034 120.04283222 44.07994584 120.05493164 37.11987305 C120.05997341 34.75007688 120.06680665 32.38028385 120.07543945 30.01049805 C120.0875119 26.61245961 120.09322971 23.21446215 120.09765625 19.81640625 C120.10281754 18.74975235 120.10797882 17.68309845 120.11329651 16.5841217 C120.11337204 15.60318039 120.11344757 14.62223907 120.11352539 13.61157227 C120.115746 12.74331314 120.11796661 11.87505402 120.12025452 10.98048401 C120.21954667 8.99856319 120.21954667 8.99856319 119 8 C117.12678052 7.83946185 117.12678052 7.83946185 115 7.875 C114.278125 7.87242188 113.55625 7.86984375 112.8125 7.8671875 C110.97910585 7.80304724 110.97910585 7.80304724 110 9 Z M171 8 C169.79112709 10.41774581 169.87940657 11.93331064 169.88647461 14.63330078 C169.88655014 15.59414581 169.88662567 16.55499084 169.88670349 17.54495239 C169.89186478 18.58457123 169.89702606 19.62419006 169.90234375 20.6953125 C169.9037587 21.75789276 169.90517365 22.82047302 169.90663147 23.91525269 C169.91224166 27.31853009 169.92479591 30.72174238 169.9375 34.125 C169.94251369 36.42838447 169.94707682 38.73176997 169.95117188 41.03515625 C169.96221441 46.69012936 169.97948591 52.34505363 170 58 C173.63 58 177.26 58 181 58 C181.04933082 51.20069445 181.08568663 44.4014924 181.10986328 37.60205078 C181.11993892 35.28757921 181.13359975 32.97312041 181.15087891 30.65869141 C181.17505865 27.33753307 181.1864673 24.0165426 181.1953125 20.6953125 C181.20563507 19.65569366 181.21595764 18.61607483 181.22659302 17.54495239 C181.22674408 16.58410736 181.22689514 15.62326233 181.22705078 14.63330078 C181.231492 13.78502716 181.23593323 12.93675354 181.24050903 12.06277466 C181.19015361 9.77651455 181.19015361 9.77651455 179 8 C176.31160615 7.73008094 173.70858064 7.91262643 171 8 Z M-46.3125 72.25 C-46.94800781 72.79140625 -47.58351563 73.3328125 -48.23828125 73.890625 C-53.1611685 79.78499111 -53.43556681 85.69252704 -53.38768005 93.0511322 C-53.39306559 94.04785543 -53.39845113 95.04457865 -53.40399987 96.07150561 C-53.41827935 99.40318426 -53.41117558 102.7344656 -53.40405273 106.06616211 C-53.40975627 108.45812804 -53.41672047 110.85009125 -53.42485046 113.24205017 C-53.44093505 119.05981728 -53.44288222 124.87746032 -53.43763756 130.69524496 C-53.43359141 135.4251885 -53.43504469 140.15510017 -53.44038582 144.88504219 C-53.44113424 145.55897212 -53.44188266 146.23290205 -53.44265376 146.9272541 C-53.44418529 148.29646552 -53.44572363 149.66567693 -53.44726873 151.03488833 C-53.46098728 163.86646564 -53.45556057 176.69798193 -53.44408352 189.52955783 C-53.4341512 201.26051449 -53.44709287 212.99131342 -53.47101771 224.72224575 C-53.49541812 236.77749469 -53.50501431 248.83267019 -53.49836498 260.88794333 C-53.49487492 267.65211262 -53.49709069 274.41616062 -53.51461601 281.1803112 C-53.53007414 287.54072524 -53.52614174 293.90083792 -53.50731087 300.26124001 C-53.50362196 302.59448056 -53.50674217 304.92774339 -53.51719666 307.26096344 C-53.53038695 310.44828483 -53.51887544 313.6346057 -53.50120544 316.82188416 C-53.51081045 317.74319797 -53.52041546 318.66451178 -53.53031152 319.6137442 C-53.45200148 326.4882916 -51.78853385 331.76854466 -47.25390625 337.0234375 C-46.69574219 337.46945312 -46.13757813 337.91546875 -45.5625 338.375 C-45.00691406 338.83648437 -44.45132813 339.29796875 -43.87890625 339.7734375 C-38.43758994 343.32556499 -33.49274277 343.28843203 -27.18937683 343.26742554 C-25.69685527 343.27422221 -25.69685527 343.27422221 -24.17418176 343.28115618 C-20.83637033 343.29382757 -17.49872151 343.29217803 -14.16088867 343.29052734 C-11.76921885 343.29651088 -9.37755096 343.30331602 -6.98588562 343.31088257 C-1.16118594 343.32673019 4.66346432 343.33299174 10.48818449 343.33410732 C15.22389141 343.33505823 19.959585 343.33917065 24.6952877 343.34550858 C38.12758536 343.36311901 51.55985108 343.3723478 64.99216036 343.37084763 C66.07800753 343.37072776 66.07800753 343.37072776 67.18579102 343.37060547 C67.91057503 343.37052371 68.63535904 343.37044195 69.38210621 343.37035771 C81.12611751 343.36954495 92.87000052 343.38868059 104.61397473 343.4168822 C116.67819318 343.44562377 128.7423491 343.45942179 140.80660266 343.45769465 C147.57751712 343.45703117 154.34829709 343.46250496 161.11918068 343.48405075 C167.4877629 343.50340605 173.85606104 343.50357584 180.22465324 343.48901749 C182.56112202 343.48692494 184.89760846 343.49165671 187.23404694 343.5037384 C190.42584085 343.51917315 193.61665314 343.50989356 196.8084259 343.49447632 C198.19244298 343.50990701 198.19244298 343.50990701 199.60442001 343.52564943 C206.47888319 343.45236595 211.61295535 341.7349221 216.98828125 337.39453125 C223.12979624 330.05732307 224.45173579 322.38881638 224.38095093 313.02552795 C224.3856309 312.06117543 224.39031087 311.09682291 224.39513266 310.10324758 C224.407036 306.89298922 224.39764353 303.68316143 224.38818359 300.47290039 C224.39225138 298.16270195 224.39759443 295.85250545 224.40411377 293.54231262 C224.41776916 287.28199452 224.41249575 281.02182505 224.40297651 274.76150441 C224.39536986 268.20252542 224.40242841 261.64355897 224.40713501 255.08457947 C224.41353833 243.36466594 224.40362778 231.6448148 224.388357 219.92491209 C224.37495792 209.3132706 224.37728054 198.7017276 224.39111328 188.09008789 C224.40719316 175.74891715 224.41313017 163.40780915 224.40427649 151.06662935 C224.39960613 144.54054586 224.39895758 138.01453011 224.40888596 131.488451 C224.41757073 125.35129122 224.41150587 119.21431686 224.39420319 113.07717705 C224.39024628 110.8286304 224.39135871 108.58006806 224.39799118 106.33152771 C224.40622821 103.25462844 224.39585873 100.17831779 224.38095093 97.10145569 C224.38764309 96.21845938 224.39433526 95.33546308 224.40123022 94.42570931 C224.33365346 87.20057111 223.24447923 79.56099667 218.8125 73.625 C213.43818414 68.60897186 207.19129401 65.88139658 199.81322098 65.86857224 C198.98114223 65.86473109 198.14906348 65.86088995 197.29177022 65.8569324 C196.38283285 65.85779888 195.47389548 65.85866537 194.53741455 65.85955811 C193.56775592 65.85658698 192.59809728 65.85361586 191.59905505 65.8505547 C188.34109312 65.84186439 185.08316792 65.84035917 181.82519531 65.83886719 C179.49278688 65.83423926 177.1603792 65.82921463 174.82797241 65.82382202 C168.4848995 65.81069373 162.14183717 65.80425223 155.79875278 65.79981136 C151.8367276 65.79688136 147.87470531 65.79277669 143.91268158 65.78830719 C132.9390997 65.77619827 121.96552035 65.76581622 110.99193192 65.7624321 C110.28979342 65.76221253 109.58765492 65.76199297 108.8642395 65.76176675 C108.16043795 65.76154847 107.45663641 65.76133019 106.73150754 65.7611053 C105.30538003 65.76066184 103.87925251 65.76021527 102.453125 65.75976562 C101.74571917 65.7595442 101.03831335 65.75932277 100.30947098 65.75909463 C88.849949 65.75514759 77.39049064 65.73769593 65.93099323 65.7144061 C54.16061627 65.69067792 42.39027121 65.67822958 30.61986995 65.67706418 C24.013279 65.67601561 17.40677779 65.67009662 10.80020905 65.65224457 C4.58516875 65.63577737 -1.6297142 65.63360193 -7.84476852 65.64238358 C-10.12479702 65.64315467 -12.40483392 65.63880179 -14.68484116 65.62892532 C-17.79990828 65.61622385 -20.91441666 65.6220732 -24.02947998 65.63250732 C-25.37950171 65.62042272 -25.37950171 65.62042272 -26.7567966 65.60809398 C-34.17523797 65.66611867 -40.59837248 67.18654953 -46.3125 72.25 Z M-107 106 C-107.16053815 107.87321948 -107.16053815 107.87321948 -107.125 110 C-107.12757812 110.721875 -107.13015625 111.44375 -107.1328125 112.1875 C-107.19695276 114.02089415 -107.19695276 114.02089415 -106 115 C-104.58774954 115.0928726 -103.17091066 115.11746772 -101.75561523 115.11352539 C-100.85475693 115.11344986 -99.95389862 115.11337433 -99.02574158 115.11329651 C-97.5570034 115.10555458 -97.5570034 115.10555458 -96.05859375 115.09765625 C-94.56248314 115.09553383 -94.56248314 115.09553383 -93.03614807 115.09336853 C-89.83656876 115.08775114 -86.63705831 115.07519571 -83.4375 115.0625 C-81.27408955 115.05748724 -79.11067801 115.05292395 -76.94726562 115.04882812 C-71.63148371 115.03777606 -66.31575354 115.02049979 -61 115 C-61 111.7 -61 108.4 -61 105 C-67.39037797 104.975356 -73.78072852 104.95716683 -80.17114258 104.94506836 C-82.34692873 104.94002692 -84.52271147 104.93319393 -86.69848633 104.92456055 C-89.81853067 104.91248662 -92.93853038 104.90676995 -96.05859375 104.90234375 C-97.03775253 104.89718246 -98.01691132 104.89202118 -99.02574158 104.88670349 C-99.92659988 104.88662796 -100.82745819 104.88655243 -101.75561523 104.88647461 C-102.55281479 104.884254 -103.35001434 104.88203339 -104.17137146 104.87974548 C-106.01922281 104.79949544 -106.01922281 104.79949544 -107 106 Z M232 105 C232 108.3 232 111.6 232 115 C238.81762424 115.02464247 245.6352228 115.04283244 252.45288086 115.05493164 C254.77417451 115.05997333 257.09546497 115.06680651 259.41674805 115.07543945 C262.74528795 115.08751225 266.07378602 115.09322979 269.40234375 115.09765625 C270.96951393 115.10539818 270.96951393 115.10539818 272.56834412 115.11329651 C274.00972496 115.11340981 274.00972496 115.11340981 275.48022461 115.11352539 C276.33071884 115.115746 277.18121307 115.11796661 278.05747986 115.12025452 C280.00588545 115.21480284 280.00588545 115.21480284 281 114 C281.16053815 112.12678052 281.16053815 112.12678052 281.125 110 C281.12757813 109.278125 281.13015625 108.55625 281.1328125 107.8125 C281.19695276 105.97910585 281.19695276 105.97910585 280 105 C278.49581261 104.90688111 276.98728644 104.88253972 275.48022461 104.88647461 C274.51930405 104.88655014 273.55838348 104.88662567 272.56834412 104.88670349 C271.00117393 104.89444542 271.00117393 104.89444542 269.40234375 104.90234375 C268.33834854 104.9037587 267.27435333 104.90517365 266.17811584 104.90663147 C262.76454917 104.91224936 259.351047 104.92480489 255.9375 104.9375 C253.62955824 104.94251269 251.32161545 104.947076 249.01367188 104.95117188 C243.34242289 104.96222461 237.6712224 104.97950123 232 105 Z M-107 167 C-107.16053815 168.87321948 -107.16053815 168.87321948 -107.125 171 C-107.12757812 171.721875 -107.13015625 172.44375 -107.1328125 173.1875 C-107.19695276 175.02089415 -107.19695276 175.02089415 -106 176 C-104.58774954 176.0928726 -103.17091066 176.11746772 -101.75561523 176.11352539 C-100.85475693 176.11344986 -99.95389862 176.11337433 -99.02574158 176.11329651 C-97.5570034 176.10555458 -97.5570034 176.10555458 -96.05859375 176.09765625 C-94.56248314 176.09553383 -94.56248314 176.09553383 -93.03614807 176.09336853 C-89.83656876 176.08775114 -86.63705831 176.07519571 -83.4375 176.0625 C-81.27408955 176.05748724 -79.11067801 176.05292395 -76.94726562 176.04882812 C-71.63148371 176.03777606 -66.31575354 176.02049979 -61 176 C-61 172.7 -61 169.4 -61 166 C-67.39037797 165.975356 -73.78072852 165.95716683 -80.17114258 165.94506836 C-82.34692873 165.94002692 -84.52271147 165.93319393 -86.69848633 165.92456055 C-89.81853067 165.91248662 -92.93853038 165.90676995 -96.05859375 165.90234375 C-97.03775253 165.89718246 -98.01691132 165.89202118 -99.02574158 165.88670349 C-99.92659988 165.88662796 -100.82745819 165.88655243 -101.75561523 165.88647461 C-102.55281479 165.884254 -103.35001434 165.88203339 -104.17137146 165.87974548 C-106.01922281 165.79949544 -106.01922281 165.79949544 -107 167 Z M232 166 C232 169.3 232 172.6 232 176 C238.81762424 176.02464247 245.6352228 176.04283244 252.45288086 176.05493164 C254.77417451 176.05997333 257.09546497 176.06680651 259.41674805 176.07543945 C262.74528795 176.08751225 266.07378602 176.09322979 269.40234375 176.09765625 C270.96951393 176.10539818 270.96951393 176.10539818 272.56834412 176.11329651 C274.00972496 176.11340981 274.00972496 176.11340981 275.48022461 176.11352539 C276.33071884 176.115746 277.18121307 176.11796661 278.05747986 176.12025452 C280.00588545 176.21480284 280.00588545 176.21480284 281 175 C281.16053815 173.12678052 281.16053815 173.12678052 281.125 171 C281.12757813 170.278125 281.13015625 169.55625 281.1328125 168.8125 C281.19695276 166.97910585 281.19695276 166.97910585 280 166 C278.49581261 165.90688111 276.98728644 165.88253972 275.48022461 165.88647461 C274.51930405 165.88655014 273.55838348 165.88662567 272.56834412 165.88670349 C271.00117393 165.89444542 271.00117393 165.89444542 269.40234375 165.90234375 C268.33834854 165.9037587 267.27435333 165.90517365 266.17811584 165.90663147 C262.76454917 165.91224936 259.351047 165.92480489 255.9375 165.9375 C253.62955824 165.94251269 251.32161545 165.947076 249.01367188 165.95117188 C243.34242289 165.96222461 237.6712224 165.97950123 232 166 Z M-107 227 C-107 229.97 -107 232.94 -107 236 C-104.6699002 237.1650499 -103.32752923 237.1209358 -100.73388672 237.11352539 C-99.85312469 237.11344986 -98.97236267 237.11337433 -98.06491089 237.11329651 C-97.11278717 237.10813522 -96.16066345 237.10297394 -95.1796875 237.09765625 C-94.20589142 237.0962413 -93.23209534 237.09482635 -92.22879028 237.09336853 C-89.11082927 237.08775973 -85.9929394 237.07520573 -82.875 237.0625 C-80.76432395 237.05748613 -78.65364678 237.05292303 -76.54296875 237.04882812 C-71.36195165 237.03778744 -66.1809879 237.02051689 -61 237 C-61 233.37 -61 229.74 -61 226 C-67.22965199 225.97533037 -73.45927571 225.95715452 -79.68896484 225.94506836 C-81.80941259 225.94003128 -83.92985685 225.93320141 -86.05029297 225.92456055 C-89.09343322 225.91246766 -92.13652766 225.90676553 -95.1796875 225.90234375 C-96.13181122 225.89718246 -97.08393494 225.89202118 -98.06491089 225.88670349 C-99.38605392 225.88659019 -99.38605392 225.88659019 -100.73388672 225.88647461 C-101.51110077 225.884254 -102.28831482 225.88203339 -103.08908081 225.87974548 C-105.08651572 225.88069314 -105.08651572 225.88069314 -107 227 Z M232 226 C232 229.63 232 233.26 232 237 C238.65689827 237.02466642 245.31377011 237.04284395 251.97070312 237.05493164 C254.23665836 237.05996926 256.50261033 237.06679952 258.76855469 237.07543945 C262.02019047 237.08752996 265.27178339 237.09323392 268.5234375 237.09765625 C269.54118256 237.10281754 270.55892761 237.10797882 271.60751343 237.11329651 C272.54833771 237.11337204 273.48916199 237.11344757 274.45849609 237.11352539 C275.70425919 237.11685631 275.70425919 237.11685631 276.97518921 237.12025452 C279.06964964 237.12909182 279.06964964 237.12909182 281 236 C281 233.03 281 230.06 281 227 C278.60417654 225.80208827 277.13222462 225.8793256 274.45849609 225.88647461 C273.04725967 225.88658791 273.04725967 225.88658791 271.60751343 225.88670349 C270.08089584 225.89444542 270.08089584 225.89444542 268.5234375 225.90234375 C266.96286118 225.90446617 266.96286118 225.90446617 265.37075806 225.90663147 C262.03880979 225.91224134 258.70692805 225.92479553 255.375 225.9375 C253.11979264 225.94251373 250.86458422 225.94707686 248.609375 225.95117188 C243.07289093 225.96221398 237.53645675 225.97948525 232 226 Z M-107 288 C-107.16053815 289.87321948 -107.16053815 289.87321948 -107.125 292 C-107.12757812 292.721875 -107.13015625 293.44375 -107.1328125 294.1875 C-107.19695276 296.02089415 -107.19695276 296.02089415 -106 297 C-104.58774954 297.0928726 -103.17091066 297.11746772 -101.75561523 297.11352539 C-100.85475693 297.11344986 -99.95389862 297.11337433 -99.02574158 297.11329651 C-97.5570034 297.10555458 -97.5570034 297.10555458 -96.05859375 297.09765625 C-94.56248314 297.09553383 -94.56248314 297.09553383 -93.03614807 297.09336853 C-89.83656876 297.08775114 -86.63705831 297.07519571 -83.4375 297.0625 C-81.27408955 297.05748724 -79.11067801 297.05292395 -76.94726562 297.04882812 C-71.63148371 297.03777606 -66.31575354 297.02049979 -61 297 C-61 293.7 -61 290.4 -61 287 C-67.39037797 286.975356 -73.78072852 286.95716683 -80.17114258 286.94506836 C-82.34692873 286.94002692 -84.52271147 286.93319393 -86.69848633 286.92456055 C-89.81853067 286.91248662 -92.93853038 286.90676995 -96.05859375 286.90234375 C-97.03775253 286.89718246 -98.01691132 286.89202118 -99.02574158 286.88670349 C-99.92659988 286.88662796 -100.82745819 286.88655243 -101.75561523 286.88647461 C-102.55281479 286.884254 -103.35001434 286.88203339 -104.17137146 286.87974548 C-106.01922281 286.79949544 -106.01922281 286.79949544 -107 288 Z M232 287 C232 290.3 232 293.6 232 297 C238.81762424 297.02464247 245.6352228 297.04283244 252.45288086 297.05493164 C254.77417451 297.05997333 257.09546497 297.06680651 259.41674805 297.07543945 C262.74528795 297.08751225 266.07378602 297.09322979 269.40234375 297.09765625 C270.96951393 297.10539818 270.96951393 297.10539818 272.56834412 297.11329651 C274.00972496 297.11340981 274.00972496 297.11340981 275.48022461 297.11352539 C276.33071884 297.115746 277.18121307 297.11796661 278.05747986 297.12025452 C280.00588545 297.21480284 280.00588545 297.21480284 281 296 C281.16053815 294.12678052 281.16053815 294.12678052 281.125 292 C281.12757813 291.278125 281.13015625 290.55625 281.1328125 289.8125 C281.19695276 287.97910585 281.19695276 287.97910585 280 287 C278.49581261 286.90688111 276.98728644 286.88253972 275.48022461 286.88647461 C274.51930405 286.88655014 273.55838348 286.88662567 272.56834412 286.88670349 C271.00117393 286.89444542 271.00117393 286.89444542 269.40234375 286.90234375 C268.33834854 286.9037587 267.27435333 286.90517365 266.17811584 286.90663147 C262.76454917 286.91224936 259.351047 286.92480489 255.9375 286.9375 C253.62955824 286.94251269 251.32161545 286.947076 249.01367188 286.95117188 C243.34242289 286.96222461 237.6712224 286.97950123 232 287 Z M-12 351 C-12.0246645 357.94172911 -12.04284303 364.88343288 -12.05493164 371.82519531 C-12.05996959 374.18815556 -12.06680008 376.55111268 -12.07543945 378.9140625 C-12.08752854 382.30469535 -12.09323359 385.69528709 -12.09765625 389.0859375 C-12.10281754 390.14743011 -12.10797882 391.20892273 -12.11329651 392.30258179 C-12.11337204 393.28344757 -12.11344757 394.26431335 -12.11352539 395.27490234 C-12.115746 396.14094086 -12.11796661 397.00697937 -12.12025452 397.89926147 C-12.13553746 400.0583966 -12.13553746 400.0583966 -11 402 C-9.72125 402.061875 -8.4425 402.12375 -7.125 402.1875 C-6.40570313 402.22230469 -5.68640625 402.25710938 -4.9453125 402.29296875 C-4.30335938 402.19628906 -3.66140625 402.09960938 -3 402 C-0.85217167 398.77825751 -0.75350852 397.9566269 -0.77294922 394.25317383 C-0.77310028 393.29240433 -0.77325134 392.33163483 -0.77340698 391.3417511 C-0.78372955 390.30729355 -0.79405212 389.272836 -0.8046875 388.20703125 C-0.8075174 387.14586594 -0.81034729 386.08470062 -0.81326294 384.99137878 C-0.82446816 381.59830503 -0.84957353 378.20549413 -0.875 374.8125 C-0.88502935 372.51367568 -0.89415528 370.21484724 -0.90234375 367.91601562 C-0.92440864 362.27724229 -0.95894099 356.63866573 -1 351 C-4.63 351 -8.26 351 -12 351 Z M49 351 C48.97535844 358.10245508 48.957168 365.20488551 48.94506836 372.30737305 C48.94002651 374.72567172 48.93319322 377.14396733 48.92456055 379.56225586 C48.91248843 383.02979283 48.90677037 386.49728966 48.90234375 389.96484375 C48.89718246 391.05337143 48.89202118 392.14189911 48.88670349 393.26341248 C48.88662796 394.26437454 48.88655243 395.26533661 48.88647461 396.29663086 C48.884254 397.18265488 48.88203339 398.06867889 48.87974548 398.98155212 C48.77571959 400.9969869 48.77571959 400.9969869 50 402 C51.87321948 402.16053815 51.87321948 402.16053815 54 402.125 C54.721875 402.12757813 55.44375 402.13015625 56.1875 402.1328125 C58.02089415 402.19695276 58.02089415 402.19695276 59 401 C59.09326716 399.43452952 59.11745582 397.86487228 59.11352539 396.29663086 C59.11344986 395.29566879 59.11337433 394.29470673 59.11329651 393.26341248 C59.10813522 392.1748848 59.10297394 391.08635712 59.09765625 389.96484375 C59.0962413 388.85645645 59.09482635 387.74806915 59.09336853 386.60609436 C59.08775033 383.04986931 59.07519475 379.49370617 59.0625 375.9375 C59.05748734 373.53320403 59.05292403 371.12890708 59.04882812 368.72460938 C59.03777499 362.81638223 59.02049816 356.90820163 59 351 C55.7 351 52.4 351 49 351 Z M110 351 C109.97535844 358.10245508 109.957168 365.20488551 109.94506836 372.30737305 C109.94002651 374.72567172 109.93319322 377.14396733 109.92456055 379.56225586 C109.91248843 383.02979283 109.90677037 386.49728966 109.90234375 389.96484375 C109.89718246 391.05337143 109.89202118 392.14189911 109.88670349 393.26341248 C109.88662796 394.26437454 109.88655243 395.26533661 109.88647461 396.29663086 C109.884254 397.18265488 109.88203339 398.06867889 109.87974548 398.98155212 C109.77571959 400.9969869 109.77571959 400.9969869 111 402 C112.87321948 402.16053815 112.87321948 402.16053815 115 402.125 C115.721875 402.12757813 116.44375 402.13015625 117.1875 402.1328125 C119.02089415 402.19695276 119.02089415 402.19695276 120 401 C120.09326716 399.43452952 120.11745582 397.86487228 120.11352539 396.29663086 C120.11344986 395.29566879 120.11337433 394.29470673 120.11329651 393.26341248 C120.10813522 392.1748848 120.10297394 391.08635712 120.09765625 389.96484375 C120.0962413 388.85645645 120.09482635 387.74806915 120.09336853 386.60609436 C120.08775033 383.04986931 120.07519475 379.49370617 120.0625 375.9375 C120.05748734 373.53320403 120.05292403 371.12890708 120.04882812 368.72460938 C120.03777499 362.81638223 120.02049816 356.90820163 120 351 C116.7 351 113.4 351 110 351 Z M170 351 C169.9753355 357.94172911 169.95715697 364.88343288 169.94506836 371.82519531 C169.94003041 374.18815556 169.93319992 376.55111268 169.92456055 378.9140625 C169.91247146 382.30469535 169.90676641 385.69528709 169.90234375 389.0859375 C169.89718246 390.14743011 169.89202118 391.20892273 169.88670349 392.30258179 C169.88662796 393.28344757 169.88655243 394.26431335 169.88647461 395.27490234 C169.884254 396.14094086 169.88203339 397.00697937 169.87974548 397.89926147 C169.86446254 400.0583966 169.86446254 400.0583966 171 402 C175.0100934 402.17864631 175.0100934 402.17864631 179 402 C181.19557184 400.21915344 181.19557184 400.21915344 181.24050903 397.89926147 C181.23606781 397.03322296 181.23162659 396.16718445 181.22705078 395.27490234 C181.22689972 394.29403656 181.22674866 393.31317078 181.22659302 392.30258179 C181.21627045 391.24108917 181.20594788 390.17959656 181.1953125 389.0859375 C181.19106766 387.45877304 181.19106766 387.45877304 181.18673706 385.79873657 C181.17551578 382.32404687 181.15040762 378.84961218 181.125 375.375 C181.11497272 373.02344121 181.10584643 370.6718784 181.09765625 368.3203125 C181.07557007 362.5467763 181.0410269 356.77343143 181 351 C177.37 351 173.74 351 170 351 Z " fill="#000000" transform="translate(169,51)"/>
<path d="M0 0 C0.89080985 -0.00623996 1.7816197 -0.01247993 2.69942379 -0.01890898 C5.69058983 -0.0348903 8.68094676 -0.02221457 11.67211914 -0.00964355 C13.81397986 -0.01506238 15.95583686 -0.02218369 18.09768677 -0.03088379 C23.91993947 -0.04914842 29.74190925 -0.04203654 35.56416702 -0.02936745 C41.65085882 -0.01925609 47.73752603 -0.02862793 53.82421875 -0.03491211 C64.04667521 -0.04219394 74.26901615 -0.0325867 84.49145508 -0.0135498 C96.31808828 0.00821987 108.14444568 0.00116889 119.9710722 -0.02085543 C130.11637836 -0.0389941 140.26160139 -0.04157523 150.40691853 -0.03110075 C156.4701267 -0.02485741 162.53320514 -0.02405332 168.59640503 -0.0372467 C174.29606951 -0.04878221 179.99537762 -0.04082131 185.69500351 -0.01766968 C187.78964521 -0.01237031 189.88431678 -0.01391722 191.97894669 -0.02272034 C194.8328894 -0.03361083 197.68568186 -0.01999084 200.53955078 0 C201.37339767 -0.00892289 202.20724455 -0.01784577 203.06635952 -0.02703905 C206.44896312 0.01909108 208.84627516 0.25757922 211.78366852 1.99404144 C213.94530686 5.65066122 213.82187289 9.11111785 213.77770996 13.23815918 C213.78394992 14.12896903 213.79018989 15.01977888 213.79661894 15.93758297 C213.81260026 18.92874901 213.79992453 21.91910594 213.78735352 24.91027832 C213.79277234 27.05213904 213.79989365 29.19399604 213.80859375 31.33584595 C213.82685838 37.15809865 213.8197465 42.98006843 213.80707741 48.8023262 C213.79696605 54.889018 213.8063379 60.97568521 213.81262207 67.06237793 C213.8199039 77.28483438 213.81029666 87.50717533 213.79125977 97.72961426 C213.76949009 109.55624746 213.77654107 121.38260486 213.79856539 133.20923138 C213.81670406 143.35453754 213.81928519 153.49976057 213.80881071 163.64507771 C213.80256737 169.70828588 213.80176328 175.77136432 213.81495667 181.83456421 C213.82649218 187.53422869 213.81853127 193.2335368 213.79537964 198.93316269 C213.79008027 201.02780439 213.79162718 203.12247596 213.8004303 205.21710587 C213.81132079 208.07104858 213.7977008 210.92384104 213.77770996 213.77770996 C213.78663285 214.61155684 213.79555573 215.44540373 213.80474901 216.3045187 C213.7585979 219.68866132 213.520841 222.08410058 211.78087521 225.02140713 C208.13794954 227.1779558 204.69748626 227.06347291 200.58424377 227.02259827 C199.69822304 227.02954379 198.81220231 227.03648932 197.89933246 227.04364532 C194.924333 227.0619716 191.95012591 227.05163534 188.97509766 227.04138184 C186.8447103 227.04843746 184.71432796 227.05718097 182.58395386 227.06748962 C176.79263557 227.09003341 171.00158993 227.08703215 165.21024442 227.07816815 C160.37901792 227.07306595 155.547843 227.0803446 150.71662182 227.08764023 C139.32112669 227.10465516 127.92576543 227.10105736 116.53027344 227.08435059 C104.76610123 227.06742655 93.00229999 227.08326433 81.2381683 227.11557347 C71.14464682 227.14224632 61.05124098 227.14955161 50.9576878 227.14105839 C44.9262681 227.1361226 38.89507168 227.13838015 32.86367989 227.1588459 C27.19268319 227.1771667 21.52222125 227.17128801 15.85125351 227.1466465 C13.76831646 227.14162724 11.68533892 227.14515712 9.60243416 227.15779495 C6.76176711 227.17366867 3.92287319 227.15882829 1.08229065 227.13612366 C0.25524756 227.14795939 -0.57179554 227.15979511 -1.42390054 227.1719895 C-5.42713407 227.10684767 -7.32252744 226.77713331 -10.741745 224.51945496 C-13.42789423 220.45132516 -13.42678387 217.47291002 -13.3584137 212.69541931 C-13.36905528 211.36404823 -13.36905528 211.36404823 -13.37991184 210.00578076 C-13.39751538 207.03136758 -13.37937499 204.05825705 -13.36132812 201.0838623 C-13.36646599 198.95170496 -13.37374627 196.81955185 -13.38301086 194.68740845 C-13.40154862 188.89613882 -13.38857147 183.10532868 -13.36892056 177.31407809 C-13.35255465 171.25809094 -13.361344 165.20213336 -13.36643982 159.14613342 C-13.37096272 148.9767013 -13.35507776 138.807453 -13.32714844 128.63806152 C-13.29508718 116.87331506 -13.29511504 105.1089 -13.31236321 93.34412998 C-13.32821428 82.03479309 -13.3215044 70.72557796 -13.30442619 59.41624641 C-13.29754554 54.59931265 -13.29859855 49.78247618 -13.30597115 44.96554375 C-13.31361945 39.29621877 -13.30155519 33.62727205 -13.27412224 27.95801163 C-13.2672224 25.87466238 -13.26715746 23.79127791 -13.27433777 21.70792961 C-13.28299534 18.8693498 -13.2671392 16.03194729 -13.24488831 13.19346619 C-13.25312907 12.36419237 -13.26136984 11.53491856 -13.26986033 10.68051523 C-13.22089063 7.30831203 -12.97639935 4.9237825 -11.24369717 1.99683475 C-7.58787078 -0.16875904 -4.12798663 -0.04417305 0 0 Z M-4.73022461 8.50793457 C-4.73022461 77.80793457 -4.73022461 147.10793457 -4.73022461 218.50793457 C64.56977539 218.50793457 133.86977539 218.50793457 205.26977539 218.50793457 C205.26977539 149.20793457 205.26977539 79.90793457 205.26977539 8.50793457 C135.96977539 8.50793457 66.66977539 8.50793457 -4.73022461 8.50793457 Z " fill="#000000" transform="translate(153.730224609375,142.4920654296875)"/>
<path d="M0 0 C3.65652776 1.89845317 6.31077524 4.16226528 9 7.3125 C9.763125 8.116875 10.52625 8.92125 11.3125 9.75 C13.37243056 12.87804271 13.49034676 14.63489931 13 18.3125 C11 20.3125 11 20.3125 8.125 20.7109375 C5 20.3125 5 20.3125 2.875 18.4140625 C2.25625 17.59679687 1.6375 16.77953125 1 15.9375 C-2.09426681 12.21031498 -3.99017149 9.93872856 -9 9.3125 C-13.49012989 9.19481514 -16.36012955 9.93103877 -20.25 12.25 C-25.17848395 16.9360995 -27.1858382 23.66274196 -27.5 30.3125 C-27.19735789 36.92888275 -25.22060523 43.03495617 -20.5625 47.8125 C-15.23436798 50.93140655 -12.18034182 51.83047869 -6 50.3125 C-1.83355 48.1867602 0.4179867 45.85168835 3 42.0625 C5.59348114 38.3906767 5.59348114 38.3906767 9.25 37.6875 C12 38.3125 12 38.3125 14 40.3125 C14.5988964 43.45670608 14.46001589 45.50192027 12.8671875 48.30859375 C7.94534162 55.12444839 2.40288811 60.42909404 -6 62.3125 C-14.40692699 63.33227517 -21.24545615 62.03140063 -27.97265625 56.76953125 C-34.32516057 50.87559412 -37.7212358 43.96466327 -38.23828125 35.3359375 C-38.44554443 26.62244334 -38.52311671 19.05370303 -34 11.3125 C-33.63777344 10.66023437 -33.27554688 10.00796875 -32.90234375 9.3359375 C-25.9876724 -1.68065753 -11.78845736 -4.92178018 0 0 Z " fill="#000000" transform="translate(210,228.6875)"/>
<path d="M0 0 C2.875 0.6875 2.875 0.6875 3.875 1.6875 C3.9859417 4.64549982 4.0366645 7.58406663 4.05078125 10.54296875 C4.0739903 12.38087069 4.09810806 14.21876134 4.12304688 16.05664062 C4.15809931 18.96207097 4.18746334 21.8670895 4.20092773 24.77270508 C4.21644686 27.57163922 4.25669518 30.36935749 4.30078125 33.16796875 C4.29887283 34.03068893 4.29696442 34.89340912 4.29499817 35.78227234 C4.40473716 41.22013264 5.24611788 44.38129303 8.875 48.6875 C11.69093638 50.78308056 13.58264273 51.72121367 17.12109375 51.62890625 C21.28295957 50.96601465 23.17021876 50.5240237 25.9777832 47.19165039 C28.38810852 42.73979101 28.42783143 39.46352735 28.37890625 34.4921875 C28.38832748 33.62232208 28.39774872 32.75245667 28.40745544 31.85623169 C28.43601488 29.09141193 28.43918624 26.32745509 28.4375 23.5625 C28.44110871 20.79053062 28.45063028 18.01918402 28.47825623 15.24734497 C28.49503562 13.52678312 28.49792716 11.80601563 28.48524475 10.0854187 C28.5162242 6.56971536 28.54986758 4.28945082 30.24194336 1.15673828 C31.875 -0.3125 31.875 -0.3125 34.375 -0.75 C37.32079367 -0.23448611 38.04102714 0.38431757 39.875 2.6875 C40.18625487 5.72688969 40.31909698 8.5566005 40.30859375 11.59765625 C40.3138356 12.47973251 40.31907745 13.36180878 40.32447815 14.27061462 C40.33090492 16.14092966 40.32955288 18.01128507 40.32104492 19.8815918 C40.31260296 22.71543617 40.34117489 25.54721776 40.37304688 28.38085938 C40.45168578 47.90642323 40.45168578 47.90642323 33.9453125 56.125 C27.41465945 61.37050446 22.19424041 63.23881281 13.7578125 63.06640625 C7.58657849 62.255282 2.05487033 59.38207852 -2.125 54.75 C-6.21726439 48.48372015 -6.43293358 42.80748196 -6.42578125 35.546875 C-6.43006638 34.58348206 -6.4343515 33.62008911 -6.43876648 32.62750244 C-6.44448994 30.60030909 -6.44502473 28.5730952 -6.44067383 26.54589844 C-6.43749632 23.43389431 -6.46105814 20.32282544 -6.48632812 17.2109375 C-6.48859945 15.23958453 -6.48930539 13.26822901 -6.48828125 11.296875 C-6.497491 10.36357361 -6.50670074 9.43027222 -6.51618958 8.46868896 C-6.50996078 7.60729309 -6.50373199 6.74589722 -6.49731445 5.85839844 C-6.49794388 5.09928162 -6.4985733 4.34016479 -6.4992218 3.55804443 C-5.74702629 -0.20179832 -3.35843139 -0.33584314 0 0 Z " fill="#000000" transform="translate(297.125,228.3125)"/>
<path d="M0 0 C1.07894531 -0.00515625 2.15789062 -0.0103125 3.26953125 -0.015625 C4.39230469 -0.00015625 5.51507813 0.0153125 6.671875 0.03125 C7.77917969 0.01578125 8.88648438 0.0003125 10.02734375 -0.015625 C17.37790527 0.01933605 23.49073691 0.77455422 28.97338867 6.01391602 C33.22894657 10.86466732 33.72294075 14.83042642 33.6328125 21.03125 C33.20394404 26.11413551 31.18223927 28.78778271 27.609375 32.28125 C21.71247517 36.44376753 16.51712594 36.8098318 9.546875 36.65625 C8.37125 36.64271484 8.37125 36.64271484 7.171875 36.62890625 C5.25507445 36.60553063 3.33843309 36.56966653 1.421875 36.53125 C1.44544067 37.55279175 1.44544067 37.55279175 1.46948242 38.5949707 C1.53180722 41.67781281 1.57085758 44.76052244 1.609375 47.84375 C1.63451172 48.91560547 1.65964844 49.98746094 1.68554688 51.09179688 C1.70004883 52.63383789 1.70004883 52.63383789 1.71484375 54.20703125 C1.73840942 55.6288269 1.73840942 55.6288269 1.76245117 57.0793457 C1.421875 59.53125 1.421875 59.53125 0.05981445 61.33666992 C-1.578125 62.53125 -1.578125 62.53125 -4.078125 62.96875 C-6.578125 62.53125 -6.578125 62.53125 -8.2091217 60.83813477 C-9.85472502 58.06515589 -9.96369404 56.39372677 -9.98217773 53.18359375 C-9.99486191 52.11568604 -10.00754608 51.04777832 -10.02061462 49.94750977 C-10.01767899 48.79951904 -10.01474335 47.65152832 -10.01171875 46.46875 C-10.0169606 45.28531006 -10.02220245 44.10187012 -10.02760315 42.88256836 C-10.03402523 40.38103012 -10.032684 37.87946168 -10.02416992 35.37792969 C-10.01565705 31.54567871 -10.04442635 27.7149163 -10.07617188 23.8828125 C-10.07778384 21.45312545 -10.07720644 19.02343575 -10.07421875 16.59375 C-10.08545273 15.44575928 -10.09668671 14.29776855 -10.10826111 13.11499023 C-10.09888016 12.04708252 -10.08949921 10.9791748 -10.07983398 9.87890625 C-10.07966782 8.94054932 -10.07950165 8.00219238 -10.07933044 7.03540039 C-8.95733038 1.42960153 -5.2612069 0.0243333 0 0 Z M1.421875 11.53125 C1.421875 16.15125 1.421875 20.77125 1.421875 25.53125 C4.15271402 25.66673815 6.87679307 25.76554855 9.609375 25.84375 C10.37830078 25.88564453 11.14722656 25.92753906 11.93945312 25.97070312 C16.25534118 26.06331875 17.91511759 25.91781495 21.46875 23.20703125 C23.71796531 20.66250033 23.71796531 20.66250033 23.484375 17.40625 C22.22179152 13.98984763 21.6077159 13.24207165 18.421875 11.53125 C15.49498942 11.1709263 12.61503759 11.2485731 9.671875 11.34375 C8.87910156 11.35728516 8.08632812 11.37082031 7.26953125 11.38476562 C5.32001936 11.41999777 3.37085874 11.47380179 1.421875 11.53125 Z " fill="#000000" transform="translate(245.578125,228.46875)"/>
</svg>
