<svg width="13" height="12" viewBox="0 0 13 12" fill="none" xmlns="http://www.w3.org/2000/svg">
<path d="M12.7553 0.151451C12.7132 0.105136 12.6621 0.0678476 12.6051 0.0418398C12.5481 0.015832 12.4865 0.00164456 12.4239 0.000134679C12.3613 -0.0013752 12.299 0.00982382 12.2408 0.0330551C12.1827 0.0562864 12.1298 0.0910676 12.0855 0.135297L11.7287 0.490393C11.6854 0.533666 11.6611 0.59234 11.6611 0.653518C11.6611 0.714695 11.6854 0.773369 11.7287 0.816642L12.0558 1.14318C12.0772 1.16472 12.1027 1.18182 12.1308 1.19348C12.1589 1.20515 12.189 1.21115 12.2194 1.21115C12.2497 1.21115 12.2798 1.20515 12.3079 1.19348C12.336 1.18182 12.3615 1.16472 12.3829 1.14318L12.7308 0.797027C12.9068 0.621354 12.9232 0.335201 12.7553 0.151451ZM11.0072 1.21155L5.79994 6.40962C5.76837 6.44106 5.74542 6.4801 5.73331 6.52298L5.49244 7.24039C5.48667 7.25985 5.48626 7.28052 5.49126 7.3002C5.49626 7.31987 5.50647 7.33784 5.52083 7.3522C5.53518 7.36655 5.55315 7.37677 5.57283 7.38176C5.59251 7.38676 5.61317 7.38635 5.63264 7.38058L6.34946 7.13971C6.39234 7.1276 6.43138 7.10465 6.46283 7.07308L11.6609 1.8652C11.709 1.81659 11.736 1.75098 11.736 1.6826C11.736 1.61423 11.709 1.54861 11.6609 1.50001L11.3739 1.21155C11.3252 1.16302 11.2593 1.13576 11.1906 1.13576C11.1218 1.13576 11.0559 1.16302 11.0072 1.21155Z" fill="#1890FF"/>
<path d="M10.6323 4.20177L7.1163 7.72475C6.9804 7.86097 6.81338 7.96206 6.62966 8.01926L5.88255 8.26936C5.70524 8.31943 5.51779 8.32132 5.33951 8.27483C5.16123 8.22834 4.99856 8.13516 4.86828 8.00488C4.73801 7.8746 4.64482 7.71193 4.59833 7.53365C4.55184 7.35537 4.55373 7.16792 4.6038 6.99061L4.8539 6.2435C4.91094 6.05984 5.01182 5.89282 5.14784 5.75686L8.67081 2.24023C8.7031 2.20797 8.72511 2.16686 8.73404 2.1221C8.74296 2.07734 8.73842 2.03094 8.72097 1.98876C8.70353 1.94658 8.67397 1.91052 8.63603 1.88515C8.59809 1.85977 8.55348 1.84621 8.50783 1.84619H2.48794C2.05951 1.84619 1.64864 2.01638 1.34569 2.31933C1.04275 2.62227 0.872559 3.03315 0.872559 3.46157V10.3846C0.872559 10.8131 1.04275 11.224 1.34569 11.5269C1.64864 11.8298 2.05951 12 2.48794 12H9.411C9.83943 12 10.2503 11.8298 10.5533 11.5269C10.8562 11.224 11.0264 10.8131 11.0264 10.3846V4.36475C11.0264 4.3191 11.0128 4.27449 10.9874 4.23655C10.9621 4.19861 10.926 4.16905 10.8838 4.15161C10.8416 4.13416 10.7952 4.12961 10.7505 4.13854C10.7057 4.14747 10.6646 4.16947 10.6323 4.20177Z" fill="#1890FF"/>
</svg>
