<svg width="27" height="21" viewBox="0 0 27 21" fill="none" xmlns="http://www.w3.org/2000/svg">
<path d="M22.0473 1.75001H13.2789C13.0126 1.75083 12.752 1.6747 12.5303 1.53126L10.9666 0.514615C10.4488 0.177966 9.83969 -0.00117937 9.2168 5.84307e-06H4.94822C4.1131 0.000874404 3.31245 0.323809 2.72194 0.89795C2.13142 1.47209 1.79928 2.25055 1.79839 3.0625V4.375H25.1971C25.1971 2.68626 23.7842 1.75001 22.0473 1.75001ZM22.9332 21H4.06233C3.23584 20.9991 2.44283 20.6824 1.85433 20.1182C1.26583 19.554 0.928979 18.7875 0.916434 17.984L0.00860859 8.97477V8.95946C-0.02112 8.59836 0.0263414 8.2352 0.148006 7.89281C0.269671 7.55042 0.462906 7.23622 0.715552 6.96998C0.968197 6.70374 1.27478 6.49123 1.61602 6.34581C1.95726 6.20038 2.32576 6.12521 2.69834 6.125H24.3028C24.6753 6.12536 25.0436 6.20065 25.3848 6.34613C25.7259 6.49162 26.0323 6.70416 26.2848 6.97038C26.5374 7.23661 26.7305 7.55075 26.8521 7.89307C26.9737 8.23538 27.0211 8.59846 26.9914 8.95946V8.97477L26.0791 17.984C26.0665 18.7875 25.7297 19.554 25.1412 20.1182C24.5527 20.6824 23.7597 20.9991 22.9332 21Z" fill="#EDC846"/>
</svg>
