<svg width="201" height="26" viewBox="0 0 201 26" fill="none" xmlns="http://www.w3.org/2000/svg">
<path d="M8.976 10.192C8.976 10.7573 8.84267 11.2907 8.576 11.792C8.30933 12.2933 7.88267 12.704 7.296 13.024C6.70933 13.3333 5.95733 13.488 5.04 13.488H3.024V18H1.2V6.88H5.04C5.89333 6.88 6.61333 7.02933 7.2 7.328C7.79733 7.616 8.24 8.01067 8.528 8.512C8.82667 9.01333 8.976 9.57333 8.976 10.192ZM5.04 12C5.73333 12 6.25067 11.8453 6.592 11.536C6.93333 11.216 7.104 10.768 7.104 10.192C7.104 8.976 6.416 8.368 5.04 8.368H3.024V12H5.04ZM12.5396 10.464C12.8063 10.016 13.1583 9.66933 13.5956 9.424C14.0436 9.168 14.5716 9.04 15.1796 9.04V10.928H14.7156C14.001 10.928 13.457 11.1093 13.0836 11.472C12.721 11.8347 12.5396 12.464 12.5396 13.36V18H10.7156V9.184H12.5396V10.464ZM20.6803 18.144C19.8483 18.144 19.0963 17.9573 18.4243 17.584C17.7523 17.2 17.2243 16.6667 16.8403 15.984C16.4563 15.2907 16.2643 14.4907 16.2643 13.584C16.2643 12.688 16.4616 11.8933 16.8563 11.2C17.2509 10.5067 17.7896 9.97333 18.4723 9.6C19.1549 9.22667 19.9176 9.04 20.7603 9.04C21.6029 9.04 22.3656 9.22667 23.0483 9.6C23.7309 9.97333 24.2696 10.5067 24.6643 11.2C25.0589 11.8933 25.2563 12.688 25.2563 13.584C25.2563 14.48 25.0536 15.2747 24.6483 15.968C24.2429 16.6613 23.6883 17.2 22.9843 17.584C22.2909 17.9573 21.5229 18.144 20.6803 18.144ZM20.6803 16.56C21.1496 16.56 21.5869 16.448 21.9923 16.224C22.4083 16 22.7443 15.664 23.0003 15.216C23.2563 14.768 23.3843 14.224 23.3843 13.584C23.3843 12.944 23.2616 12.4053 23.0163 11.968C22.7709 11.52 22.4456 11.184 22.0403 10.96C21.6349 10.736 21.1976 10.624 20.7283 10.624C20.2589 10.624 19.8216 10.736 19.4163 10.96C19.0216 11.184 18.7069 11.52 18.4723 11.968C18.2376 12.4053 18.1203 12.944 18.1203 13.584C18.1203 14.5333 18.3603 15.2693 18.8403 15.792C19.3309 16.304 19.9443 16.56 20.6803 16.56ZM38.7714 6.88V18H36.9474V10.384L33.5554 18H32.2914L28.8834 10.384V18H27.0594V6.88H29.0274L32.9314 15.6L36.8194 6.88H38.7714ZM40.5608 13.552C40.5608 12.6667 40.7421 11.8827 41.1048 11.2C41.4781 10.5173 41.9794 9.98933 42.6088 9.616C43.2488 9.232 43.9528 9.04 44.7208 9.04C45.4141 9.04 46.0168 9.17867 46.5288 9.456C47.0514 9.72267 47.4674 10.0587 47.7768 10.464V9.184H49.6168V18H47.7768V16.688C47.4674 17.104 47.0461 17.4507 46.5128 17.728C45.9794 18.0053 45.3714 18.144 44.6888 18.144C43.9314 18.144 43.2381 17.952 42.6088 17.568C41.9794 17.1733 41.4781 16.6293 41.1048 15.936C40.7421 15.232 40.5608 14.4373 40.5608 13.552ZM47.7768 13.584C47.7768 12.976 47.6488 12.448 47.3928 12C47.1474 11.552 46.8221 11.2107 46.4168 10.976C46.0114 10.7413 45.5741 10.624 45.1048 10.624C44.6354 10.624 44.1981 10.7413 43.7928 10.976C43.3874 11.2 43.0568 11.536 42.8008 11.984C42.5554 12.4213 42.4328 12.944 42.4328 13.552C42.4328 14.16 42.5554 14.6933 42.8008 15.152C43.0568 15.6107 43.3874 15.9627 43.7928 16.208C44.2088 16.4427 44.6461 16.56 45.1048 16.56C45.5741 16.56 46.0114 16.4427 46.4168 16.208C46.8221 15.9733 47.1474 15.632 47.3928 15.184C47.6488 14.7253 47.7768 14.192 47.7768 13.584ZM56.4605 9.04C57.1538 9.04 57.7725 9.184 58.3165 9.472C58.8712 9.76 59.3032 10.1867 59.6125 10.752C59.9218 11.3173 60.0765 12 60.0765 12.8V18H58.2685V13.072C58.2685 12.2827 58.0712 11.68 57.6765 11.264C57.2818 10.8373 56.7432 10.624 56.0605 10.624C55.3778 10.624 54.8338 10.8373 54.4285 11.264C54.0338 11.68 53.8365 12.2827 53.8365 13.072V18H52.0125V9.184H53.8365V10.192C54.1352 9.82933 54.5138 9.54667 54.9725 9.344C55.4418 9.14133 55.9378 9.04 56.4605 9.04ZM61.7951 13.552C61.7951 12.6667 61.9765 11.8827 62.3391 11.2C62.7125 10.5173 63.2138 9.98933 63.8431 9.616C64.4831 9.232 65.1871 9.04 65.9551 9.04C66.6485 9.04 67.2511 9.17867 67.7631 9.456C68.2858 9.72267 68.7018 10.0587 69.0111 10.464V9.184H70.8511V18H69.0111V16.688C68.7018 17.104 68.2805 17.4507 67.7471 17.728C67.2138 18.0053 66.6058 18.144 65.9231 18.144C65.1658 18.144 64.4725 17.952 63.8431 17.568C63.2138 17.1733 62.7125 16.6293 62.3391 15.936C61.9765 15.232 61.7951 14.4373 61.7951 13.552ZM69.0111 13.584C69.0111 12.976 68.8831 12.448 68.6271 12C68.3818 11.552 68.0565 11.2107 67.6511 10.976C67.2458 10.7413 66.8085 10.624 66.3391 10.624C65.8698 10.624 65.4325 10.7413 65.0271 10.976C64.6218 11.2 64.2911 11.536 64.0351 11.984C63.7898 12.4213 63.6671 12.944 63.6671 13.552C63.6671 14.16 63.7898 14.6933 64.0351 15.152C64.2911 15.6107 64.6218 15.9627 65.0271 16.208C65.4431 16.4427 65.8805 16.56 66.3391 16.56C66.8085 16.56 67.2458 16.4427 67.6511 16.208C68.0565 15.9733 68.3818 15.632 68.6271 15.184C68.8831 14.7253 69.0111 14.192 69.0111 13.584ZM76.7989 9.04C77.4815 9.04 78.0842 9.17867 78.6069 9.456C79.1402 9.72267 79.5562 10.0587 79.8549 10.464V9.184H81.6949V18.144C81.6949 18.9547 81.5242 19.6747 81.1829 20.304C80.8415 20.944 80.3455 21.4453 79.6949 21.808C79.0549 22.1707 78.2869 22.352 77.3909 22.352C76.1962 22.352 75.2042 22.0693 74.4149 21.504C73.6255 20.9493 73.1775 20.192 73.0709 19.232H74.8789C75.0175 19.6907 75.3109 20.0587 75.7589 20.336C76.2175 20.624 76.7615 20.768 77.3909 20.768C78.1269 20.768 78.7189 20.544 79.1669 20.096C79.6255 19.648 79.8549 18.9973 79.8549 18.144V16.672C79.5455 17.088 79.1242 17.44 78.5909 17.728C78.0682 18.0053 77.4709 18.144 76.7989 18.144C76.0309 18.144 75.3269 17.952 74.6869 17.568C74.0575 17.1733 73.5562 16.6293 73.1829 15.936C72.8202 15.232 72.6389 14.4373 72.6389 13.552C72.6389 12.6667 72.8202 11.8827 73.1829 11.2C73.5562 10.5173 74.0575 9.98933 74.6869 9.616C75.3269 9.232 76.0309 9.04 76.7989 9.04ZM79.8549 13.584C79.8549 12.976 79.7269 12.448 79.4709 12C79.2255 11.552 78.9002 11.2107 78.4949 10.976C78.0895 10.7413 77.6522 10.624 77.1829 10.624C76.7135 10.624 76.2762 10.7413 75.8709 10.976C75.4655 11.2 75.1349 11.536 74.8789 11.984C74.6335 12.4213 74.5109 12.944 74.5109 13.552C74.5109 14.16 74.6335 14.6933 74.8789 15.152C75.1349 15.6107 75.4655 15.9627 75.8709 16.208C76.2869 16.4427 76.7242 16.56 77.1829 16.56C77.6522 16.56 78.0895 16.4427 78.4949 16.208C78.9002 15.9733 79.2255 15.632 79.4709 15.184C79.7269 14.7253 79.8549 14.192 79.8549 13.584ZM92.1706 13.376C92.1706 13.7067 92.1493 14.0053 92.1066 14.272H85.3706C85.424 14.976 85.6853 15.5413 86.1546 15.968C86.624 16.3947 87.2 16.608 87.8826 16.608C88.864 16.608 89.5573 16.1973 89.9626 15.376H91.9306C91.664 16.1867 91.1786 16.8533 90.4746 17.376C89.7813 17.888 88.9173 18.144 87.8826 18.144C87.04 18.144 86.2826 17.9573 85.6106 17.584C84.9493 17.2 84.4266 16.6667 84.0426 15.984C83.6693 15.2907 83.4826 14.4907 83.4826 13.584C83.4826 12.6773 83.664 11.8827 84.0266 11.2C84.4 10.5067 84.9173 9.97333 85.5786 9.6C86.2506 9.22667 87.0186 9.04 87.8826 9.04C88.7146 9.04 89.456 9.22133 90.1066 9.584C90.7573 9.94667 91.264 10.4587 91.6266 11.12C91.9893 11.7707 92.1706 12.5227 92.1706 13.376ZM90.2666 12.8C90.256 12.128 90.016 11.5893 89.5466 11.184C89.0773 10.7787 88.496 10.576 87.8026 10.576C87.1733 10.576 86.6346 10.7787 86.1866 11.184C85.7386 11.5787 85.472 12.1173 85.3866 12.8H90.2666Z" fill="black"/>
<rect y="25" width="45" height="1" rx="0.5" fill="#1761FD"/>
<g clip-path="url(#clip0_207_315)">
<path d="M141.172 4.99959C141.14 5.08383 141.108 5.15428 141.056 5.22705C141.043 5.24531 141.03 5.26356 141.017 5.28237C141.003 5.30171 140.989 5.32105 140.975 5.34098C140.945 5.3826 140.916 5.42423 140.886 5.46588C140.871 5.48694 140.856 5.508 140.841 5.5297C140.774 5.62437 140.709 5.72019 140.644 5.81602C140.619 5.85216 140.594 5.88829 140.57 5.92441C140.522 5.99383 140.475 6.06358 140.428 6.13355C140.282 6.34871 140.107 6.60519 139.873 6.72584C139.835 6.72827 139.797 6.72908 139.759 6.72909C139.735 6.72915 139.711 6.72922 139.686 6.72929C139.659 6.72923 139.633 6.72917 139.605 6.72911C139.563 6.72918 139.563 6.72918 139.519 6.72924C139.424 6.72934 139.328 6.72926 139.233 6.72918C139.164 6.7292 139.096 6.72926 139.028 6.72931C138.86 6.72943 138.692 6.7294 138.525 6.72933C138.387 6.72927 138.249 6.72926 138.111 6.72929C138.091 6.72929 138.071 6.7293 138.051 6.7293C138.011 6.72931 137.971 6.72932 137.93 6.72933C137.551 6.7294 137.172 6.72932 136.793 6.72918C136.475 6.72907 136.157 6.72908 135.839 6.7292C133.829 6.72994 131.819 6.72495 129.358 6.70008C129.417 6.80238 129.475 6.90469 129.533 7.00699C129.552 7.04169 129.572 7.0764 129.592 7.11111C129.733 7.3594 129.874 7.60739 130.017 7.85467C130.037 7.88883 130.057 7.923 130.076 7.95717C130.117 8.02727 130.157 8.09735 130.197 8.16743C130.287 8.32241 130.376 8.47747 130.465 8.63252C130.515 8.71838 130.564 8.80424 130.613 8.89009C130.633 8.92445 130.653 8.9588 130.673 8.99315C130.683 9.01016 130.692 9.02716 130.702 9.04468C131.681 10.7452 132.66 12.4457 135.952 18.1655C136.06 17.9827 136.162 17.7968 136.262 17.6089C136.306 17.5263 136.35 17.4439 136.394 17.3614C136.403 17.3446 136.412 17.3278 136.421 17.3104C136.51 17.1432 136.6 16.9764 136.69 16.8096C136.705 16.7811 136.721 16.7527 136.737 16.7233C136.768 16.6659 136.799 16.6085 136.829 16.5511C136.907 16.4065 136.985 16.2618 137.063 16.1171C137.094 16.0592 137.126 16.0012 137.157 15.9432C137.172 15.9145 137.188 15.8858 137.204 15.8563C137.344 15.5954 137.344 15.5954 137.391 15.5085C137.422 15.4505 137.453 15.3924 137.485 15.3344C137.562 15.1901 137.64 15.0458 137.718 14.9016C137.879 14.6028 138.04 14.3038 138.2 14.0044C138.375 13.6763 138.551 13.3487 138.728 13.0213C138.806 12.8767 138.883 12.732 138.961 12.5874C139.055 12.414 139.148 12.2407 139.241 12.0674C139.402 11.7687 139.563 11.4697 139.723 11.1703C139.898 10.8422 140.075 10.5146 140.251 10.1872C140.329 10.0425 140.407 9.89788 140.485 9.75322C140.516 9.69525 140.547 9.63728 140.578 9.57931C140.594 9.55061 140.609 9.52191 140.625 9.49235C140.766 9.23148 140.766 9.23148 140.813 9.14454C140.844 9.08652 140.875 9.02851 140.906 8.9705C140.984 8.82619 141.062 8.6819 141.14 8.53764C141.301 8.23887 141.461 7.93988 141.621 7.6405C141.796 7.31288 141.972 6.98577 142.148 6.65885C142.206 6.55242 142.263 6.44593 142.32 6.33942C142.376 6.23584 142.432 6.13245 142.488 6.02908C142.536 5.93999 142.583 5.85068 142.628 5.75996C142.755 5.50876 142.928 5.34112 143.17 5.20571C143.236 5.18859 143.236 5.18859 143.307 5.17802C143.334 5.1739 143.361 5.16978 143.389 5.16553C143.418 5.16142 143.446 5.15731 143.476 5.15308C143.506 5.14861 143.536 5.14415 143.567 5.13954C143.63 5.13017 143.693 5.12093 143.756 5.11182C143.853 5.09789 143.949 5.08353 144.046 5.06909C144.107 5.06002 144.169 5.05098 144.23 5.04197C144.259 5.0377 144.288 5.03343 144.317 5.02904C144.452 5.00973 144.582 4.99428 144.718 4.99959C144.683 5.09488 144.642 5.18242 144.594 5.27143C144.579 5.29922 144.564 5.327 144.548 5.35562C144.532 5.38564 144.516 5.41564 144.5 5.44565C144.491 5.46103 144.483 5.47642 144.474 5.49227C144.344 5.73297 144.211 5.97142 144.076 6.20892C143.966 6.40109 143.861 6.59521 143.757 6.79026C143.625 7.03664 143.489 7.28051 143.351 7.52305C143.242 7.71518 143.137 7.90926 143.032 8.10426C142.914 8.32496 142.794 8.54401 142.67 8.76127C142.529 9.00947 142.392 9.26024 142.257 9.51223C142.127 9.75401 141.995 9.99414 141.862 10.2337C141.782 10.3773 141.702 10.521 141.623 10.6647C141.614 10.6801 141.606 10.6955 141.597 10.7113C141.484 10.9155 141.371 11.12 141.259 11.3249C141.141 11.5416 141.021 11.7578 140.902 11.9738C140.893 11.9889 140.885 12.004 140.876 12.0195C140.791 12.1732 140.706 12.3268 140.621 12.4804C140.578 12.5563 140.536 12.6322 140.494 12.7081C140.486 12.7231 140.478 12.738 140.469 12.7535C140.351 12.9658 140.235 13.1789 140.12 13.3925C139.992 13.6281 139.862 13.8615 139.729 14.0941C139.61 14.3044 139.494 14.5168 139.38 14.7297C139.28 14.9133 139.179 15.0953 139.075 15.2766C138.934 15.524 138.799 15.774 138.664 16.0252C138.548 16.242 138.428 16.4561 138.306 16.6696C138.197 16.8617 138.092 17.0558 137.987 17.2508C137.856 17.4972 137.72 17.7411 137.582 17.9836C137.473 18.1757 137.367 18.3698 137.263 18.5648C137.131 18.8111 136.996 19.0548 136.858 19.2972C136.755 19.4784 136.655 19.6612 136.557 19.845C136.488 19.9723 136.42 20.0995 136.351 20.2266C136.339 20.2499 136.326 20.2731 136.314 20.297C136.091 20.7075 136.091 20.7075 135.927 20.845C135.91 20.8598 135.894 20.8745 135.877 20.8897C135.836 20.9269 135.794 20.9633 135.752 20.9996C135.641 20.9617 135.605 20.8752 135.554 20.7742C135.534 20.7362 135.514 20.6984 135.494 20.6605C135.483 20.6402 135.472 20.6199 135.461 20.599C135.402 20.4891 135.34 20.3813 135.278 20.2733C135.149 20.0505 135.022 19.8271 134.895 19.6035C134.756 19.3582 134.616 19.1135 134.475 18.8692C134.33 18.6166 134.187 18.3627 134.045 18.108C133.933 17.9071 133.819 17.7076 133.704 17.5085C133.556 17.2513 133.41 16.9929 133.265 16.7335C133.154 16.533 133.04 16.3335 132.926 16.1344C132.829 15.9654 132.732 15.7958 132.636 15.626C132.506 15.3944 132.374 15.1631 132.243 14.932C132.1 14.6797 131.956 14.4271 131.814 14.1744C131.699 13.9716 131.584 13.769 131.469 13.5664C131.339 13.339 131.21 13.1115 131.082 12.8837C130.955 12.6586 130.827 12.4337 130.699 12.2089C130.69 12.1933 130.682 12.1777 130.672 12.1617C130.609 12.0502 130.546 11.9387 130.482 11.8273C130.41 11.7001 130.338 11.5729 130.265 11.4457C130.256 11.43 130.248 11.4144 130.238 11.3984C130.106 11.1645 129.973 10.9304 129.841 10.6961C129.726 10.4933 129.611 10.2907 129.496 10.0882C129.352 9.83585 129.209 9.58334 129.066 9.33061C128.952 9.12776 128.837 8.92516 128.722 8.72262C128.578 8.47031 128.435 8.2178 128.292 7.96507C128.178 7.76222 128.062 7.55962 127.947 7.35708C127.774 7.05215 127.601 6.74692 127.429 6.44149C127.383 6.36163 127.338 6.28181 127.293 6.20199C127.22 6.07284 127.147 5.94363 127.074 5.81436C127.05 5.77143 127.025 5.72852 127.001 5.68564C126.972 5.63415 126.943 5.58259 126.914 5.531C126.899 5.5037 126.883 5.47639 126.867 5.44827C126.836 5.38607 126.836 5.38607 126.836 5.33454C126.879 5.29436 126.924 5.25597 126.97 5.2186C127.069 5.13853 127.069 5.13853 127.161 5.05112C127.226 5.04304 127.226 5.04304 127.313 5.04074C127.329 5.04027 127.346 5.03979 127.362 5.0393C127.42 5.03775 127.477 5.03662 127.534 5.03553C127.555 5.03506 127.575 5.03459 127.597 5.03411C128.332 5.01747 129.067 5.01947 129.802 5.01771C130.031 5.01715 130.26 5.01647 130.489 5.01579C130.903 5.01457 131.317 5.01346 131.731 5.01241C132.122 5.01142 132.512 5.01035 132.903 5.00919C135.3 5.00207 137.696 4.99829 141.172 4.99959Z" fill="black"/>
<path d="M145.809 5.04367C145.844 5.04395 145.844 5.04395 145.88 5.04424C145.906 5.04485 145.932 5.04546 145.958 5.04609C145.986 5.04642 146.013 5.04676 146.041 5.04711C146.134 5.04834 146.226 5.05013 146.318 5.05192C146.384 5.05291 146.45 5.05388 146.516 5.05481C146.677 5.05713 146.838 5.05988 146.999 5.06277C147.187 5.06611 147.375 5.06903 147.562 5.07193C147.897 5.07711 148.232 5.08266 148.567 5.08843C148.891 5.09402 149.216 5.09938 149.541 5.10448C149.571 5.10495 149.571 5.10495 149.601 5.10543C149.682 5.10669 149.762 5.10795 149.842 5.10921C150.152 5.11407 150.462 5.11911 150.771 5.12418C150.865 5.12571 150.958 5.12723 151.052 5.12873C151.248 5.1319 151.445 5.13512 151.641 5.13854C151.723 5.13995 151.804 5.14132 151.885 5.14262C151.973 5.14403 152.062 5.14558 152.15 5.14717C152.188 5.14774 152.188 5.14774 152.227 5.14832C152.381 5.15126 152.532 5.16207 152.685 5.18047C152.59 5.36312 152.491 5.54332 152.388 5.72153C152.375 5.74559 152.361 5.76964 152.346 5.79443C152.317 5.84621 152.287 5.89799 152.257 5.94975C152.193 6.06092 152.129 6.17217 152.065 6.28343C152.015 6.3716 151.964 6.45976 151.913 6.54792C151.813 6.72333 151.712 6.89876 151.611 7.07419C151.578 7.13216 151.544 7.19013 151.511 7.2481C151.495 7.2768 151.478 7.30549 151.461 7.33506C150.512 8.98723 150.512 8.98723 150.462 9.07422C150.429 9.13208 150.396 9.18995 150.362 9.24782C150.287 9.37945 150.211 9.51109 150.136 9.64271C149.974 9.92439 149.812 10.2061 149.651 10.488C149.481 10.7849 149.31 11.0815 149.14 11.3781C149.056 11.5237 148.972 11.6693 148.889 11.8149C148.855 11.8729 148.822 11.9309 148.789 11.9888C148.772 12.0175 148.756 12.0462 148.739 12.0758C148.589 12.3367 148.589 12.3367 148.539 12.4237C148.506 12.4815 148.473 12.5394 148.439 12.5973C148.364 12.7289 148.288 12.8605 148.213 12.9921C148.051 13.2738 147.889 13.5555 147.727 13.8375C147.557 14.1343 147.387 14.4309 147.217 14.7275C147.133 14.8731 147.049 15.0187 146.966 15.1644C146.932 15.2223 146.899 15.2803 146.866 15.3383C146.849 15.367 146.833 15.3957 146.816 15.4252C146.266 16.3818 146.266 16.3818 146.216 16.4687C146.183 16.5266 146.15 16.5845 146.117 16.6423C146.041 16.774 145.965 16.9056 145.89 17.0372C145.73 17.3162 145.569 17.5952 145.409 17.8745C145.258 18.1392 145.106 18.4036 144.954 18.6679C144.933 18.7036 144.913 18.7392 144.892 18.7749C144.882 18.7927 144.871 18.8105 144.861 18.8288C144.779 18.9703 144.698 19.1118 144.617 19.2535C144.567 19.3396 144.518 19.4258 144.468 19.5117C144.449 19.5457 144.429 19.5796 144.409 19.6135C144.4 19.6302 144.39 19.6469 144.38 19.664C144.322 19.7646 144.265 19.8656 144.208 19.9671C143.815 20.6742 143.815 20.6742 143.544 20.8198C143.447 20.7864 143.44 20.7533 143.392 20.6619C143.377 20.634 143.362 20.606 143.347 20.5771C143.331 20.5464 143.315 20.5156 143.299 20.4848C143.282 20.4532 143.266 20.4215 143.249 20.3899C143.214 20.3247 143.18 20.2594 143.145 20.1941C143.07 20.052 142.993 19.9109 142.917 19.7698C142.902 19.7434 142.888 19.7169 142.873 19.6897C142.763 19.4878 142.653 19.2863 142.542 19.0848C142.428 18.8763 142.315 18.6672 142.201 18.458C142.104 18.2788 142.006 18.0999 141.908 17.9212C141.752 17.6357 141.596 17.3495 141.441 17.0632C141.38 16.9512 141.319 16.8392 141.259 16.7273C141.229 16.6725 141.199 16.6177 141.17 16.5628C141.106 16.4447 141.042 16.3278 140.972 16.2137C140.956 16.1861 140.956 16.1861 140.939 16.1579C140.919 16.1251 140.899 16.0927 140.877 16.0608C140.84 15.9976 140.82 15.9439 140.828 15.8695C140.847 15.7998 140.871 15.7341 140.897 15.6668C140.913 15.6226 140.913 15.6226 140.929 15.5775C140.96 15.4943 140.993 15.412 141.026 15.3298C141.04 15.2958 141.053 15.2617 141.066 15.2274C141.174 14.944 141.32 14.742 141.596 14.6104C141.743 14.814 141.881 15.0231 142.015 15.2359C142.064 15.3136 142.113 15.3912 142.163 15.4688C142.189 15.5107 142.216 15.5526 142.243 15.5945C142.396 15.8368 142.551 16.0786 142.705 16.3203C142.752 16.3929 142.798 16.4654 142.844 16.5379C142.98 16.7506 143.116 16.9631 143.253 17.1749C143.377 17.3666 143.5 17.5594 143.622 17.7521C143.646 17.7901 143.67 17.828 143.695 17.866C143.753 17.9574 143.811 18.0488 143.869 18.1402C143.942 18.0504 143.999 17.9603 144.054 17.8571C144.061 17.8424 144.069 17.8277 144.077 17.8125C144.094 17.7809 144.11 17.7494 144.127 17.7177C144.171 17.6332 144.216 17.5489 144.261 17.4646C144.27 17.4475 144.279 17.4305 144.288 17.4129C144.372 17.2566 144.458 17.1023 144.546 16.9486C144.681 16.7131 144.811 16.4758 144.94 16.2371C145.067 16.0019 145.196 15.768 145.326 15.5344C145.405 15.3934 145.483 15.2523 145.561 15.1112C145.75 14.7699 145.75 14.7699 145.844 14.6012C145.886 14.5254 145.928 14.4495 145.97 14.3737C145.978 14.3588 145.986 14.3438 145.995 14.3284C146.113 14.1161 146.229 13.903 146.344 13.6893C146.472 13.4538 146.602 13.2204 146.735 12.9879C146.855 12.7756 146.972 12.5615 147.088 12.3467C147.215 12.1114 147.344 11.8775 147.474 11.6439C147.544 11.5182 147.614 11.3924 147.683 11.2666C147.726 11.1897 147.768 11.1128 147.811 11.0359C147.82 11.0205 147.828 11.0051 147.837 10.9892C147.889 10.8959 147.94 10.8026 147.992 10.7094C148.154 10.4169 148.316 10.1244 148.477 9.83103C148.595 9.61433 148.714 9.39807 148.834 9.18208C148.847 9.15948 148.847 9.15948 148.859 9.13643C148.928 9.01323 148.996 8.89006 149.064 8.76689C149.124 8.65946 149.184 8.55201 149.243 8.44456C149.251 8.42948 149.26 8.41441 149.268 8.39887C149.393 8.17445 149.516 7.94958 149.639 7.72441C149.757 7.5094 149.876 7.29506 149.995 7.08076C150.127 6.84299 150.258 6.60468 150.387 6.36565C150.093 6.38181 149.803 6.41453 149.511 6.45111C149.462 6.45721 149.412 6.46331 149.363 6.46939C149.257 6.48243 149.152 6.49552 149.046 6.50866C148.879 6.52945 148.712 6.55008 148.545 6.57068C148.131 6.62184 147.716 6.67318 147.302 6.72463C146.979 6.76469 146.656 6.80468 146.333 6.84446C146.167 6.86491 146.001 6.8855 145.836 6.9062C145.732 6.91904 145.629 6.93177 145.526 6.94445C145.478 6.95034 145.43 6.95628 145.383 6.96228C144.784 7.03745 144.784 7.03745 144.645 6.97918C144.557 6.90006 144.521 6.83972 144.51 6.71929C144.52 6.60493 144.55 6.55346 144.613 6.45945C144.634 6.42777 144.654 6.39608 144.675 6.36439C144.686 6.34784 144.697 6.33129 144.709 6.31424C144.755 6.24374 144.8 6.17213 144.846 6.10053C144.893 6.02512 144.942 5.95018 144.99 5.87526C145.015 5.8371 145.039 5.79884 145.064 5.76048C145.218 5.51677 145.369 5.31131 145.592 5.12894C145.607 5.11534 145.623 5.10175 145.638 5.08774C145.702 5.0451 145.734 5.04246 145.809 5.04367Z" fill="black"/>
<path d="M155.955 6.64263C155.981 6.6426 155.981 6.6426 156.008 6.64258C156.643 6.64359 157.251 6.82019 157.73 7.26743C157.748 7.28384 157.765 7.30024 157.784 7.31715C158.135 7.66181 158.37 8.15873 158.384 8.66165C158.384 8.69772 158.384 8.73378 158.384 8.76985C158.385 8.78826 158.385 8.80668 158.385 8.82565C158.385 8.87311 158.383 8.92056 158.38 8.96791C158.317 9.03214 158.298 9.02595 158.212 9.02611C158.188 9.02627 158.164 9.02644 158.139 9.0266C158.112 9.0265 158.086 9.02639 158.059 9.02629C158.032 9.02634 158.005 9.02639 157.977 9.02644C157.92 9.02647 157.863 9.02638 157.806 9.02616C157.718 9.02589 157.63 9.02616 157.543 9.02649C157.487 9.02645 157.432 9.02639 157.377 9.02629C157.35 9.02639 157.324 9.0265 157.297 9.0266C157.272 9.02644 157.248 9.02628 157.223 9.02611C157.191 9.02605 157.191 9.02605 157.158 9.02599C157.106 9.01944 157.106 9.01944 157.056 8.96791C157.043 8.89909 157.033 8.83106 157.023 8.76179C156.981 8.48783 156.893 8.24301 156.671 8.07097C156.353 7.84983 156.019 7.80755 155.645 7.87602C155.371 7.95884 155.168 8.12447 155.019 8.3727C154.928 8.576 154.897 8.76535 154.898 8.98809C154.898 9.02779 154.898 9.02779 154.897 9.0683C154.897 9.15505 154.897 9.24178 154.897 9.32852C154.897 9.38928 154.897 9.45004 154.897 9.51081C154.897 9.63787 154.897 9.76492 154.897 9.89198C154.897 10.0543 154.897 10.2165 154.896 10.3788C154.895 10.5042 154.895 10.6296 154.896 10.755C154.896 10.8148 154.895 10.8747 154.895 10.9345C154.895 11.0183 154.895 11.1021 154.895 11.186C154.895 11.2225 154.895 11.2225 154.895 11.2598C154.898 11.5277 154.989 11.7779 155.158 11.9824C155.432 12.258 155.718 12.3249 156.088 12.3255C156.386 12.321 156.612 12.2323 156.824 12.016C156.982 11.8388 157.031 11.6487 157.039 11.411C157.04 11.3812 157.041 11.3514 157.042 11.3207C157.043 11.2899 157.044 11.259 157.045 11.2272C157.046 11.1958 157.047 11.1644 157.048 11.1321C157.051 11.0548 157.053 10.9776 157.056 10.9003C157.042 10.9005 157.028 10.9006 157.014 10.9008C156.869 10.9025 156.724 10.9037 156.58 10.9045C156.526 10.9049 156.472 10.9054 156.418 10.9061C156.34 10.907 156.263 10.9075 156.185 10.9078C156.161 10.9082 156.137 10.9086 156.112 10.909C156.078 10.909 156.078 10.909 156.044 10.9091C156.024 10.9092 156.004 10.9094 155.984 10.9096C155.918 10.8977 155.896 10.8785 155.857 10.823C155.85 10.7481 155.847 10.6788 155.848 10.604C155.848 10.5718 155.848 10.5718 155.848 10.539C155.848 10.4937 155.848 10.4484 155.849 10.4031C155.849 10.3337 155.849 10.2644 155.849 10.195C155.849 10.151 155.849 10.1069 155.85 10.0629C155.85 10.0421 155.85 10.0214 155.849 9.99997C155.851 9.90039 155.852 9.85136 155.907 9.76662C155.984 9.75898 156.057 9.75635 156.134 9.75703C156.158 9.75694 156.181 9.75684 156.206 9.75675C156.284 9.75654 156.362 9.75689 156.44 9.75726C156.494 9.75728 156.548 9.75727 156.602 9.75723C156.716 9.75723 156.83 9.7575 156.943 9.75796C157.089 9.75855 157.235 9.75856 157.381 9.75839C157.492 9.7583 157.604 9.75847 157.716 9.75873C157.77 9.75883 157.823 9.75885 157.877 9.75881C157.952 9.7588 158.027 9.75913 158.102 9.75955C158.125 9.75948 158.147 9.75942 158.17 9.75935C158.324 9.76073 158.324 9.76073 158.38 9.81815C158.386 9.88446 158.386 9.88446 158.387 9.96956C158.387 10.0014 158.387 10.0333 158.388 10.0661C158.388 10.1012 158.388 10.1363 158.388 10.1714C158.388 10.2077 158.388 10.2439 158.388 10.2801C158.389 10.3565 158.389 10.4329 158.389 10.5093C158.389 10.5866 158.389 10.664 158.39 10.7413C158.397 11.5456 158.334 12.2843 157.763 12.8906C157.619 13.0375 157.46 13.1466 157.281 13.2449C157.255 13.2592 157.229 13.2734 157.202 13.2882C156.833 13.4772 156.446 13.5334 156.037 13.5345C155.983 13.5347 155.929 13.5355 155.875 13.5364C155.206 13.5416 154.598 13.293 154.112 12.8198C153.601 12.2598 153.526 11.5629 153.527 10.8322C153.527 10.7731 153.527 10.714 153.527 10.6549C153.526 10.5313 153.526 10.4078 153.527 10.2843C153.527 10.1271 153.526 9.96999 153.526 9.81284C153.525 9.69082 153.525 9.5688 153.525 9.44677C153.525 9.38889 153.525 9.331 153.525 9.27311C153.522 8.53155 153.639 7.86348 154.161 7.31332C154.652 6.81769 155.284 6.64323 155.955 6.64263Z" fill="black"/>
<path d="M168.787 7.16833C168.85 7.22507 168.909 7.28364 168.969 7.34456C168.988 7.36412 169.007 7.38368 169.027 7.40384C169.528 7.94262 169.605 8.61504 169.604 9.32574C169.604 9.38762 169.604 9.4495 169.604 9.51138C169.604 9.64055 169.604 9.76972 169.604 9.89889C169.604 10.0632 169.604 10.2275 169.605 10.3918C169.606 10.5195 169.606 10.6471 169.605 10.7748C169.605 10.8353 169.606 10.8959 169.606 10.9564C169.609 11.6119 169.506 12.1696 169.118 12.7037C169.105 12.7221 169.092 12.7405 169.078 12.7594C168.699 13.2447 168.081 13.494 167.496 13.5626C166.759 13.6347 166.033 13.4885 165.446 13.0009C164.99 12.6012 164.727 12.0278 164.673 11.4154C164.663 11.2173 164.665 11.0187 164.665 10.8203C164.664 10.7625 164.664 10.7047 164.664 10.6469C164.664 10.5262 164.664 10.4054 164.664 10.2846C164.664 10.1313 164.663 9.97797 164.662 9.82463C164.662 9.70532 164.661 9.58602 164.661 9.46671C164.661 9.41026 164.661 9.3538 164.661 9.29734C164.658 8.82629 164.689 8.3649 164.898 7.93715C164.909 7.91351 164.92 7.88986 164.931 7.86549C165.19 7.34025 165.656 6.95361 166.195 6.7687C167.042 6.49428 168.078 6.58669 168.787 7.16833ZM166.269 8.20487C166.082 8.46576 166.018 8.72163 166.017 9.04031C166.017 9.06568 166.017 9.09104 166.017 9.11718C166.016 9.20102 166.016 9.28487 166.016 9.36871C166.016 9.39746 166.015 9.4262 166.015 9.45581C166.015 9.60805 166.014 9.76029 166.014 9.91253C166.014 10.0691 166.013 10.2257 166.012 10.3823C166.011 10.5033 166.011 10.6242 166.011 10.7452C166.011 10.8029 166.011 10.8605 166.01 10.9182C166.007 11.3734 166.029 11.7347 166.342 12.0852C166.61 12.3488 166.913 12.3809 167.265 12.3759C167.415 12.3703 167.538 12.3408 167.67 12.2657C167.689 12.2547 167.709 12.2438 167.729 12.2325C167.968 12.0834 168.132 11.8691 168.219 11.5958C168.26 11.4254 168.277 11.2634 168.276 11.0883C168.276 11.0648 168.276 11.0413 168.276 11.0171C168.276 10.9402 168.276 10.8634 168.276 10.7866C168.276 10.7327 168.276 10.6788 168.276 10.6249C168.276 10.5123 168.276 10.3997 168.276 10.2871C168.276 10.1433 168.276 9.99948 168.276 9.85567C168.276 9.74449 168.276 9.63331 168.276 9.52212C168.276 9.46912 168.276 9.41612 168.276 9.36312C168.276 9.28884 168.276 9.21458 168.276 9.1403C168.276 9.11875 168.276 9.09719 168.276 9.07498C168.274 8.72342 168.181 8.40254 167.945 8.14327C167.68 7.88626 167.391 7.82074 167.038 7.82715C166.733 7.84003 166.471 7.96765 166.269 8.20487Z" fill="black"/>
<path d="M181.431 6.72605C181.484 6.7164 181.484 6.7164 181.551 6.71645C181.576 6.71629 181.601 6.71613 181.626 6.71597C181.653 6.7162 181.68 6.71644 181.708 6.71669C181.735 6.71667 181.763 6.71666 181.791 6.71665C181.849 6.71671 181.908 6.71696 181.966 6.71738C182.055 6.71799 182.145 6.71791 182.234 6.71774C182.291 6.71789 182.347 6.71807 182.404 6.7183C182.431 6.71827 182.458 6.71825 182.485 6.71823C182.51 6.71847 182.535 6.71872 182.561 6.71897C182.583 6.71909 182.604 6.71921 182.627 6.71933C182.68 6.72605 182.68 6.72605 182.73 6.77758C182.736 6.82697 182.736 6.82697 182.736 6.88843C182.736 6.9117 182.736 6.93497 182.736 6.95894C182.736 6.98453 182.736 7.01013 182.736 7.0365C182.736 7.06339 182.736 7.09029 182.736 7.118C182.736 7.20723 182.735 7.29644 182.735 7.38567C182.735 7.4474 182.735 7.50914 182.735 7.57087C182.735 7.73361 182.734 7.89635 182.733 8.05908C182.733 8.22504 182.733 8.391 182.732 8.55696C182.732 8.88278 182.731 9.2086 182.73 9.53442C182.747 9.53442 182.763 9.53442 182.78 9.53442C182.787 9.5193 182.794 9.50417 182.801 9.48859C182.829 9.43282 182.86 9.38872 182.899 9.34018C182.912 9.32324 182.926 9.3063 182.94 9.28885C182.954 9.27105 182.968 9.25324 182.983 9.2349C183.013 9.19754 183.042 9.16016 183.072 9.12279C183.086 9.10481 183.101 9.08683 183.116 9.06831C183.162 9.00938 183.209 8.94994 183.255 8.8903C183.326 8.79808 183.398 8.70651 183.47 8.61511C183.589 8.46468 183.707 8.31373 183.823 8.16083C183.92 8.03306 184.018 7.90677 184.118 7.7815C184.191 7.68914 184.265 7.59655 184.338 7.50382C184.352 7.48634 184.365 7.46886 184.38 7.45085C184.482 7.32101 184.582 7.18999 184.681 7.05759C184.701 7.03097 184.722 7.00462 184.743 6.97857C184.779 6.9322 184.779 6.9322 184.811 6.87953C184.873 6.79126 184.919 6.73472 185.023 6.70795C185.11 6.7022 185.195 6.70287 185.281 6.70592C185.313 6.70621 185.344 6.7065 185.376 6.7068C185.459 6.70776 185.542 6.7096 185.625 6.71189C185.709 6.71401 185.794 6.71495 185.879 6.71598C186.045 6.71825 186.211 6.7217 186.376 6.72605C186.391 6.78611 186.391 6.78611 186.401 6.85487C186.361 6.92442 186.361 6.92442 186.3 7.00141C186.277 7.03105 186.253 7.06071 186.23 7.09038C186.218 7.1063 186.205 7.12223 186.192 7.13864C186.119 7.23115 186.049 7.32582 185.978 7.42009C185.818 7.6331 185.656 7.84528 185.494 8.05727C185.355 8.24003 185.216 8.4232 185.078 8.60688C184.94 8.78993 184.801 8.97246 184.662 9.15458C184.625 9.20335 184.588 9.25218 184.551 9.30103C184.538 9.31771 184.526 9.33439 184.513 9.35157C184.488 9.38372 184.464 9.41588 184.439 9.44804C184.356 9.55729 184.356 9.55729 184.328 9.58595C184.304 9.72449 184.382 9.81613 184.453 9.92572C184.481 9.96954 184.509 10.0134 184.536 10.0573C184.558 10.0927 184.558 10.0927 184.581 10.1288C184.665 10.2643 184.747 10.4019 184.828 10.5393C184.957 10.7558 185.087 10.9715 185.219 11.186C185.308 11.3321 185.397 11.479 185.485 11.6262C185.602 11.8209 185.719 12.0152 185.836 12.2091C185.852 12.2346 185.867 12.2601 185.883 12.2863C185.965 12.4221 186.048 12.5578 186.13 12.6934C186.147 12.7213 186.164 12.7491 186.181 12.7778C186.214 12.831 186.246 12.8841 186.278 12.9372C186.32 13.0052 186.361 13.0733 186.401 13.1415C186.418 13.1678 186.418 13.1678 186.434 13.1945C186.489 13.2861 186.506 13.3443 186.501 13.4507C186.318 13.4555 186.135 13.4591 185.952 13.4614C185.867 13.4624 185.782 13.4639 185.697 13.4662C185.599 13.4689 185.502 13.4699 185.404 13.4708C185.373 13.4719 185.343 13.4729 185.312 13.474C185.106 13.4741 185.106 13.4741 185.027 13.4085C184.988 13.3557 184.958 13.3034 184.928 13.2446C184.912 13.2201 184.897 13.1956 184.88 13.1703C184.86 13.1362 184.86 13.1362 184.84 13.1014C184.824 13.0753 184.809 13.0492 184.793 13.0223C184.777 12.9947 184.76 12.9671 184.744 12.9386C184.726 12.9091 184.709 12.8796 184.691 12.8501C184.655 12.7889 184.619 12.7277 184.583 12.6665C184.497 12.5213 184.41 12.3765 184.324 12.2317C184.307 12.2038 184.291 12.176 184.273 12.1473C184.144 11.93 184.014 11.7129 183.883 11.496C183.827 11.4025 183.771 11.309 183.715 11.2154C183.701 11.1909 183.686 11.1664 183.671 11.1412C183.643 11.0945 183.615 11.0478 183.587 11.0011C183.533 10.9106 183.479 10.8208 183.42 10.7332C183.379 10.6681 183.379 10.6681 183.379 10.6165C183.289 10.7075 183.205 10.802 183.123 10.9016C183.113 10.9144 183.102 10.9272 183.091 10.9404C183.068 10.9683 183.046 10.9966 183.024 11.0252C182.992 11.0651 182.958 11.1036 182.924 11.1412C182.73 11.37 182.724 11.5623 182.729 11.8575C182.729 11.902 182.729 11.9465 182.729 11.991C182.729 12.1071 182.73 12.2232 182.731 12.3393C182.733 12.5038 182.732 12.6682 182.732 12.8327C182.732 12.9201 182.733 13.0074 182.734 13.0948C182.734 13.1345 182.734 13.1741 182.734 13.2137C182.735 13.2319 182.735 13.25 182.735 13.2686C182.735 13.3122 182.733 13.3557 182.73 13.3992C182.667 13.4638 182.647 13.4572 182.561 13.4574C182.536 13.4575 182.511 13.4577 182.485 13.4578C182.458 13.4577 182.432 13.4576 182.404 13.4575C182.376 13.4576 182.349 13.4576 182.32 13.4577C182.262 13.4577 182.204 13.4576 182.146 13.4574C182.056 13.4571 181.967 13.4574 181.877 13.4577C181.821 13.4577 181.764 13.4576 181.708 13.4575C181.681 13.4576 181.654 13.4577 181.626 13.4578C181.601 13.4577 181.576 13.4575 181.551 13.4574C181.529 13.4573 181.507 13.4573 181.484 13.4572C181.431 13.4507 181.431 13.4507 181.381 13.3992C181.375 13.3506 181.375 13.3506 181.375 13.29C181.375 13.267 181.375 13.244 181.375 13.2202C181.375 13.1948 181.375 13.1693 181.375 13.1431C181.375 13.1162 181.375 13.0892 181.375 13.0615C181.375 12.9707 181.375 12.8799 181.375 12.7891C181.375 12.7242 181.375 12.6593 181.375 12.5945C181.374 12.4362 181.374 12.278 181.375 12.1197C181.375 11.9911 181.375 11.8625 181.375 11.7339C181.375 11.7157 181.375 11.6974 181.375 11.6785C181.375 11.6414 181.375 11.6043 181.375 11.5672C181.374 11.2187 181.375 10.8703 181.375 10.5219C181.375 10.2227 181.375 9.92354 181.375 9.62438C181.375 9.27725 181.375 8.93013 181.375 8.58301C181.375 8.54601 181.375 8.50901 181.375 8.47201C181.375 8.45381 181.375 8.4356 181.375 8.41685C181.375 8.28838 181.375 8.15992 181.375 8.03146C181.374 7.85862 181.375 7.68578 181.375 7.51294C181.375 7.44937 181.375 7.38579 181.375 7.32222C181.375 7.23571 181.375 7.1492 181.375 7.06269C181.375 7.03729 181.375 7.01188 181.375 6.98571C181.375 6.95106 181.375 6.95106 181.375 6.91572C181.375 6.89574 181.375 6.87576 181.375 6.85517C181.381 6.80334 181.381 6.80334 181.431 6.72605Z" fill="black"/>
<path d="M176.012 6.72608C176.088 6.7165 176.088 6.7165 176.187 6.71661C176.206 6.71653 176.224 6.71645 176.243 6.71636C176.304 6.71617 176.366 6.71654 176.428 6.7169C176.472 6.71688 176.516 6.71683 176.56 6.71674C176.679 6.71661 176.799 6.71696 176.919 6.7174C177.044 6.71778 177.169 6.71775 177.294 6.71778C177.504 6.71787 177.714 6.71826 177.924 6.71884C178.194 6.71958 178.464 6.71985 178.734 6.71996C178.966 6.72006 179.198 6.72039 179.429 6.72074C179.504 6.72085 179.579 6.72093 179.653 6.721C179.771 6.72112 179.888 6.72138 180.005 6.72176C180.048 6.72187 180.091 6.72194 180.134 6.72197C180.193 6.72202 180.251 6.72222 180.31 6.72246C180.359 6.72258 180.359 6.72258 180.41 6.7227C180.482 6.72608 180.482 6.72608 180.507 6.75185C180.51 6.78637 180.511 6.82103 180.511 6.85566C180.512 6.87767 180.512 6.89968 180.512 6.92236C180.512 6.95827 180.512 6.95827 180.512 6.9949C180.513 7.01934 180.513 7.04377 180.513 7.06894C180.513 7.12073 180.513 7.17252 180.513 7.2243C180.514 7.30376 180.514 7.3832 180.515 7.46265C180.515 7.51285 180.516 7.56306 180.516 7.61326C180.516 7.63715 180.516 7.66104 180.517 7.68565C180.516 7.70774 180.516 7.72983 180.516 7.7526C180.516 7.78183 180.516 7.78183 180.517 7.81166C180.514 7.82752 180.511 7.84339 180.507 7.85974C180.425 7.91647 180.401 7.91766 180.305 7.91747C180.265 7.91757 180.265 7.91757 180.225 7.91768C180.196 7.91749 180.167 7.91731 180.137 7.91712C180.107 7.91713 180.076 7.91713 180.045 7.91714C179.962 7.91711 179.878 7.91685 179.794 7.91649C179.707 7.91617 179.62 7.91614 179.533 7.91608C179.367 7.91592 179.202 7.9155 179.037 7.91498C178.83 7.91435 178.623 7.91407 178.417 7.91378C178.048 7.91328 177.679 7.91225 177.311 7.91127C177.311 8.42141 177.311 8.93156 177.311 9.45716C177.459 9.45656 177.608 9.45597 177.761 9.45535C177.856 9.45509 177.95 9.45484 178.044 9.45465C178.193 9.45434 178.343 9.45397 178.492 9.45328C178.613 9.45272 178.733 9.45241 178.854 9.45227C178.9 9.45218 178.946 9.45199 178.992 9.45171C179.056 9.45134 179.12 9.45129 179.185 9.45131C179.204 9.45113 179.223 9.45094 179.243 9.45075C179.337 9.45113 179.378 9.45348 179.458 9.50869C179.468 9.55562 179.468 9.55562 179.468 9.61306C179.468 9.63456 179.468 9.65605 179.468 9.6782C179.468 9.71306 179.468 9.71306 179.468 9.74863C179.468 9.78436 179.468 9.78436 179.468 9.82082C179.468 9.87124 179.467 9.92166 179.467 9.97208C179.466 10.0494 179.466 10.1268 179.467 10.2041C179.466 10.2531 179.466 10.302 179.466 10.3509C179.466 10.3741 179.466 10.3974 179.466 10.4213C179.466 10.4428 179.466 10.4643 179.465 10.4865C179.465 10.5054 179.465 10.5244 179.465 10.5439C179.458 10.5908 179.458 10.5908 179.409 10.6423C179.342 10.648 179.279 10.6504 179.213 10.6506C179.182 10.651 179.182 10.651 179.151 10.6513C179.084 10.6521 179.017 10.6526 178.95 10.653C178.904 10.6535 178.857 10.654 178.811 10.6545C178.689 10.6559 178.566 10.6569 178.444 10.6578C178.298 10.659 178.151 10.6606 178.004 10.6622C177.781 10.6644 177.558 10.6662 177.336 10.6681C177.327 11.1953 177.319 11.7224 177.311 12.2655C177.535 12.2649 177.76 12.2643 177.991 12.2637C178.151 12.2634 178.311 12.2632 178.471 12.2629C178.678 12.2627 178.886 12.2623 179.093 12.2616C179.257 12.2611 179.421 12.2608 179.586 12.2607C179.673 12.2606 179.759 12.2605 179.846 12.2601C179.943 12.2597 180.04 12.2597 180.137 12.2597C180.181 12.2594 180.181 12.2594 180.225 12.2591C180.251 12.2592 180.278 12.2593 180.305 12.2593C180.328 12.2593 180.351 12.2592 180.375 12.2592C180.432 12.2655 180.432 12.2655 180.507 12.3171C180.517 12.3651 180.517 12.3651 180.516 12.4242C180.516 12.4573 180.516 12.4573 180.517 12.4912C180.516 12.527 180.516 12.527 180.516 12.5635C180.516 12.588 180.516 12.6125 180.515 12.6377C180.515 12.6894 180.515 12.7411 180.514 12.7929C180.514 12.8724 180.513 12.9519 180.513 13.0314C180.513 13.0816 180.513 13.1317 180.512 13.1819C180.512 13.2058 180.512 13.2298 180.512 13.2544C180.512 13.2765 180.512 13.2985 180.511 13.3211C180.511 13.3504 180.511 13.3504 180.511 13.3801C180.507 13.425 180.507 13.425 180.482 13.4507C180.425 13.4533 180.368 13.4541 180.31 13.4542C180.292 13.4542 180.274 13.4543 180.255 13.4543C180.193 13.4545 180.132 13.4545 180.07 13.4545C180.026 13.4545 179.982 13.4546 179.938 13.4547C179.818 13.455 179.699 13.455 179.579 13.455C179.479 13.4551 179.379 13.4552 179.279 13.4552C179.044 13.4555 178.809 13.4555 178.573 13.4555C178.33 13.4555 178.087 13.4558 177.844 13.4562C177.635 13.4565 177.427 13.4566 177.218 13.4566C177.094 13.4566 176.969 13.4567 176.844 13.457C176.727 13.4572 176.61 13.4572 176.493 13.457C176.45 13.457 176.407 13.4571 176.363 13.4572C176.305 13.4574 176.246 13.4573 176.187 13.4571C176.155 13.4571 176.122 13.4571 176.088 13.4571C176.012 13.4507 176.012 13.4507 175.962 13.3992C175.956 13.3506 175.956 13.3506 175.956 13.2901C175.956 13.267 175.955 13.244 175.955 13.2203C175.955 13.1948 175.955 13.1693 175.956 13.1431C175.956 13.1162 175.955 13.0893 175.955 13.0615C175.955 12.9707 175.955 12.8799 175.955 12.7891C175.955 12.7242 175.955 12.6594 175.955 12.5945C175.955 12.4362 175.955 12.278 175.955 12.1197C175.955 11.9911 175.955 11.8626 175.955 11.734C175.955 11.7157 175.955 11.6974 175.955 11.6786C175.955 11.6415 175.955 11.6043 175.955 11.5672C175.955 11.2188 175.955 10.8703 175.955 10.5219C175.956 10.2227 175.956 9.92357 175.955 9.62441C175.955 9.27729 175.955 8.93017 175.955 8.58305C175.955 8.54605 175.955 8.50905 175.955 8.47205C175.955 8.45385 175.955 8.43564 175.955 8.41688C175.955 8.28842 175.955 8.15996 175.955 8.03149C175.955 7.85866 175.955 7.68582 175.955 7.51298C175.955 7.44941 175.955 7.38583 175.955 7.32225C175.955 7.23574 175.955 7.14924 175.956 7.06273C175.956 7.03733 175.955 7.01192 175.955 6.98575C175.955 6.9511 175.955 6.9511 175.956 6.91575C175.956 6.89578 175.956 6.8758 175.956 6.85521C175.962 6.80338 175.962 6.80338 176.012 6.72608Z" fill="black"/>
<path d="M159.428 6.72608C159.504 6.7165 159.504 6.7165 159.604 6.71661C159.622 6.71653 159.641 6.71645 159.659 6.71636C159.721 6.71617 159.782 6.71654 159.844 6.7169C159.888 6.71688 159.932 6.71683 159.976 6.71674C160.096 6.71661 160.216 6.71696 160.335 6.7174C160.46 6.71778 160.586 6.71775 160.711 6.71778C160.921 6.71787 161.131 6.71826 161.341 6.71884C161.611 6.71958 161.881 6.71985 162.151 6.71996C162.382 6.72006 162.614 6.72039 162.846 6.72074C162.921 6.72085 162.995 6.72093 163.07 6.721C163.187 6.72112 163.304 6.72138 163.421 6.72176C163.464 6.72187 163.508 6.72194 163.551 6.72197C163.609 6.72202 163.668 6.72222 163.727 6.72246C163.776 6.72258 163.776 6.72258 163.826 6.7227C163.899 6.72608 163.899 6.72608 163.924 6.75185C163.927 6.78637 163.928 6.82103 163.928 6.85566C163.928 6.87767 163.928 6.89968 163.929 6.92236C163.929 6.95827 163.929 6.95827 163.929 6.9949C163.929 7.01934 163.929 7.04377 163.929 7.06894C163.93 7.12073 163.93 7.17252 163.93 7.2243C163.93 7.30376 163.931 7.3832 163.932 7.46265C163.932 7.51285 163.932 7.56306 163.932 7.61326C163.932 7.63715 163.933 7.66104 163.933 7.68565C163.933 7.70774 163.933 7.72983 163.933 7.7526C163.933 7.78183 163.933 7.78183 163.933 7.81166C163.93 7.82752 163.927 7.84339 163.924 7.85974C163.841 7.91647 163.817 7.91766 163.721 7.91747C163.682 7.91757 163.682 7.91757 163.642 7.91768C163.613 7.91749 163.584 7.91731 163.554 7.91712C163.523 7.91713 163.493 7.91713 163.462 7.91714C163.378 7.91711 163.295 7.91685 163.211 7.91649C163.124 7.91617 163.036 7.91614 162.949 7.91608C162.784 7.91592 162.618 7.9155 162.453 7.91498C162.247 7.91435 162.04 7.91407 161.833 7.91378C161.464 7.91328 161.096 7.91225 160.727 7.91127C160.727 8.42141 160.727 8.93156 160.727 9.45716C160.876 9.45656 161.025 9.45597 161.178 9.45535C161.272 9.45509 161.366 9.45484 161.46 9.45465C161.61 9.45434 161.759 9.45397 161.909 9.45328C162.029 9.45272 162.15 9.45241 162.27 9.45227C162.316 9.45218 162.362 9.45199 162.408 9.45171C162.473 9.45134 162.537 9.45129 162.601 9.45131C162.62 9.45113 162.639 9.45094 162.659 9.45075C162.753 9.45113 162.795 9.45348 162.875 9.50869C162.884 9.55562 162.884 9.55562 162.884 9.61306C162.884 9.63456 162.885 9.65605 162.885 9.6782C162.884 9.71306 162.884 9.71306 162.884 9.74863C162.884 9.78436 162.884 9.78436 162.884 9.82082C162.884 9.87124 162.884 9.92166 162.883 9.97208C162.883 10.0494 162.883 10.1268 162.883 10.2041C162.883 10.2531 162.883 10.302 162.882 10.3509C162.883 10.3741 162.883 10.3974 162.883 10.4213C162.882 10.4428 162.882 10.4643 162.882 10.4865C162.882 10.5054 162.882 10.5244 162.881 10.5439C162.875 10.5908 162.875 10.5908 162.825 10.6423C162.759 10.648 162.695 10.6504 162.629 10.6506C162.599 10.651 162.599 10.651 162.568 10.6513C162.501 10.6521 162.434 10.6526 162.367 10.653C162.32 10.6535 162.274 10.654 162.227 10.6545C162.105 10.6559 161.983 10.6569 161.861 10.6578C161.714 10.659 161.567 10.6606 161.421 10.6622C161.198 10.6644 160.975 10.6662 160.752 10.6681C160.744 11.1953 160.736 11.7224 160.727 12.2655C160.952 12.2649 161.176 12.2643 161.407 12.2637C161.567 12.2634 161.727 12.2632 161.887 12.2629C162.095 12.2627 162.302 12.2623 162.51 12.2616C162.674 12.2611 162.838 12.2608 163.002 12.2607C163.089 12.2606 163.176 12.2605 163.263 12.2601C163.36 12.2597 163.457 12.2597 163.554 12.2597C163.597 12.2594 163.597 12.2594 163.642 12.2591C163.668 12.2592 163.694 12.2593 163.721 12.2593C163.744 12.2593 163.767 12.2592 163.791 12.2592C163.849 12.2655 163.849 12.2655 163.924 12.3171C163.933 12.3651 163.933 12.3651 163.933 12.4242C163.933 12.4573 163.933 12.4573 163.933 12.4912C163.933 12.527 163.933 12.527 163.932 12.5635C163.932 12.588 163.932 12.6125 163.932 12.6377C163.932 12.6894 163.931 12.7411 163.931 12.7929C163.93 12.8724 163.93 12.9519 163.93 13.0314C163.93 13.0816 163.929 13.1317 163.929 13.1819C163.929 13.2058 163.929 13.2298 163.929 13.2544C163.928 13.2765 163.928 13.2985 163.928 13.3211C163.928 13.3504 163.928 13.3504 163.927 13.3801C163.924 13.425 163.924 13.425 163.899 13.4507C163.842 13.4533 163.784 13.4541 163.727 13.4542C163.708 13.4542 163.69 13.4543 163.671 13.4543C163.61 13.4545 163.548 13.4545 163.487 13.4545C163.443 13.4545 163.399 13.4546 163.355 13.4547C163.235 13.455 163.115 13.455 162.995 13.455C162.896 13.4551 162.796 13.4552 162.696 13.4552C162.461 13.4555 162.225 13.4555 161.99 13.4555C161.747 13.4555 161.503 13.4558 161.26 13.4562C161.052 13.4565 160.843 13.4566 160.635 13.4566C160.51 13.4566 160.386 13.4567 160.261 13.457C160.144 13.4572 160.026 13.4572 159.909 13.457C159.866 13.457 159.823 13.4571 159.78 13.4572C159.721 13.4574 159.663 13.4573 159.604 13.4571C159.571 13.4571 159.538 13.4571 159.504 13.4571C159.428 13.4507 159.428 13.4507 159.378 13.3992C159.372 13.3506 159.372 13.3506 159.372 13.2901C159.372 13.267 159.372 13.244 159.372 13.2203C159.372 13.1948 159.372 13.1693 159.372 13.1431C159.372 13.1162 159.372 13.0893 159.372 13.0615C159.372 12.9707 159.372 12.8799 159.372 12.7891C159.372 12.7242 159.372 12.6594 159.372 12.5945C159.372 12.4362 159.372 12.278 159.372 12.1197C159.372 11.9911 159.372 11.8626 159.372 11.734C159.372 11.7157 159.372 11.6974 159.372 11.6786C159.372 11.6415 159.372 11.6043 159.372 11.5672C159.372 11.2188 159.372 10.8703 159.372 10.5219C159.372 10.2227 159.372 9.92357 159.372 9.62441C159.372 9.27729 159.372 8.93017 159.372 8.58305C159.372 8.54605 159.372 8.50905 159.372 8.47205C159.372 8.45385 159.372 8.43564 159.372 8.41688C159.372 8.28842 159.372 8.15996 159.372 8.03149C159.371 7.85866 159.372 7.68582 159.372 7.51298C159.372 7.44941 159.372 7.38583 159.372 7.32225C159.372 7.23574 159.372 7.14924 159.372 7.06273C159.372 7.03733 159.372 7.01192 159.372 6.98575C159.372 6.9511 159.372 6.9511 159.372 6.91575C159.372 6.89578 159.372 6.8758 159.372 6.85521C159.378 6.80338 159.378 6.80338 159.428 6.72608Z" fill="black"/>
<path d="M170.4 6.71903C170.428 6.71917 170.428 6.71917 170.457 6.71932C170.487 6.71917 170.487 6.71917 170.517 6.71902C170.584 6.71876 170.65 6.71886 170.717 6.71896C170.765 6.71885 170.812 6.71872 170.86 6.71856C170.99 6.71822 171.119 6.7182 171.249 6.71827C171.357 6.7183 171.465 6.71817 171.574 6.71805C171.828 6.71776 172.083 6.71775 172.338 6.7179C172.602 6.71806 172.865 6.71774 173.129 6.71719C173.355 6.71674 173.58 6.71659 173.806 6.71667C173.941 6.71672 174.076 6.71665 174.211 6.71629C174.338 6.71597 174.465 6.71602 174.592 6.71635C174.639 6.71641 174.686 6.71634 174.732 6.71613C174.796 6.71586 174.859 6.71607 174.923 6.7164C174.951 6.71611 174.951 6.71611 174.979 6.71582C175.031 6.71638 175.031 6.71638 175.112 6.72604C175.178 6.82768 175.17 6.91562 175.17 7.03361C175.17 7.05619 175.17 7.07877 175.17 7.10204C175.17 7.14977 175.17 7.1975 175.17 7.24524C175.17 7.31836 175.171 7.39145 175.171 7.46456C175.172 7.51093 175.172 7.55729 175.172 7.60365C175.172 7.62556 175.172 7.64746 175.172 7.67002C175.171 7.81997 175.171 7.81997 175.135 7.87841C175.063 7.92794 175.004 7.92047 174.919 7.92C174.901 7.92001 174.884 7.92002 174.867 7.92003C174.81 7.91998 174.754 7.91938 174.698 7.91877C174.659 7.91863 174.62 7.91852 174.581 7.91844C174.478 7.91814 174.375 7.91739 174.272 7.91653C174.167 7.91574 174.062 7.91539 173.957 7.915C173.751 7.91417 173.545 7.91285 173.339 7.91122C173.339 7.9393 173.339 7.96738 173.339 7.99631C173.341 8.67879 173.341 9.36127 173.342 10.0437C173.342 10.3738 173.342 10.7038 173.343 11.0339C173.344 11.3214 173.344 11.609 173.344 11.8966C173.344 12.049 173.344 12.2013 173.345 12.3536C173.345 12.4969 173.345 12.6402 173.345 12.7835C173.345 12.8361 173.345 12.8888 173.345 12.9415C173.345 13.0133 173.345 13.085 173.345 13.1567C173.345 13.1777 173.346 13.1988 173.346 13.2204C173.345 13.3195 173.344 13.3662 173.289 13.4507C173.236 13.4603 173.236 13.4603 173.17 13.4603C173.145 13.4604 173.12 13.4606 173.095 13.4608C173.054 13.4604 173.054 13.4604 173.013 13.46C172.986 13.46 172.958 13.4601 172.93 13.4601C172.871 13.46 172.813 13.4598 172.755 13.4593C172.665 13.4587 172.576 13.4588 172.486 13.459C172.43 13.4588 172.373 13.4587 172.317 13.4584C172.277 13.4585 172.277 13.4585 172.235 13.4585C172.211 13.4583 172.186 13.458 172.16 13.4578C172.138 13.4576 172.116 13.4575 172.094 13.4574C172.041 13.4507 172.041 13.4507 171.991 13.3991C171.986 13.3268 171.984 13.257 171.985 13.1846C171.985 13.1622 171.985 13.1397 171.984 13.1166C171.984 13.0409 171.985 12.9652 171.985 12.8895C171.985 12.8354 171.985 12.7814 171.985 12.7273C171.985 12.5801 171.985 12.4329 171.986 12.2857C171.986 12.1321 171.986 11.9784 171.986 11.8247C171.986 11.5336 171.987 11.2424 171.987 10.9512C171.988 10.6198 171.988 10.2884 171.988 9.95696C171.989 9.27504 171.99 8.59313 171.991 7.91122C171.958 7.91139 171.958 7.91139 171.926 7.91157C171.723 7.9126 171.521 7.91339 171.319 7.91389C171.215 7.91416 171.111 7.91453 171.007 7.91511C170.907 7.91567 170.807 7.91598 170.707 7.91611C170.668 7.91621 170.63 7.91639 170.592 7.91667C170.538 7.91704 170.485 7.9171 170.431 7.91707C170.385 7.91724 170.385 7.91724 170.339 7.91742C170.267 7.91122 170.267 7.91122 170.217 7.85969C170.211 7.81276 170.211 7.81276 170.211 7.75533C170.211 7.73383 170.211 7.71234 170.21 7.69019C170.211 7.66695 170.211 7.6437 170.211 7.61976C170.211 7.59593 170.211 7.57211 170.211 7.54756C170.211 7.49714 170.211 7.44672 170.211 7.3963C170.211 7.31894 170.211 7.2416 170.211 7.16424C170.211 7.11533 170.211 7.06642 170.211 7.0175C170.211 6.99426 170.211 6.97102 170.21 6.94707C170.211 6.92558 170.211 6.90408 170.211 6.88194C170.211 6.86298 170.211 6.84403 170.211 6.8245C170.227 6.70973 170.307 6.71985 170.4 6.71903Z" fill="black"/>
<path d="M173.165 14.8422C173.484 14.839 173.484 14.839 173.809 14.8358C173.909 14.8344 173.909 14.8344 174.011 14.8329C174.065 14.8326 174.118 14.8324 174.172 14.8322C174.199 14.8316 174.226 14.8311 174.254 14.8306C174.495 14.8305 174.725 14.8806 174.904 15.0582C175.012 15.1906 175.025 15.3288 175.02 15.4956C175.002 15.6673 174.911 15.7908 174.813 15.9244C174.826 15.9331 174.839 15.9419 174.853 15.9509C174.983 16.0427 175.074 16.1241 175.113 16.2851C175.135 16.4844 175.147 16.6744 175.023 16.8389C174.885 16.9918 174.711 17.0699 174.509 17.0928C174.422 17.0956 174.336 17.0954 174.25 17.0938C174.222 17.0937 174.194 17.0936 174.166 17.0935C174.064 17.093 173.961 17.0916 173.859 17.0902C173.63 17.0881 173.401 17.086 173.165 17.0838C173.165 16.3441 173.165 15.6044 173.165 14.8422ZM173.589 15.1772C173.589 15.3727 173.589 15.5683 173.589 15.7698C173.689 15.7715 173.789 15.7731 173.889 15.774C173.923 15.7744 173.957 15.7749 173.991 15.7756C174.201 15.7797 174.358 15.7823 174.535 15.6603C174.581 15.5859 174.585 15.5223 174.588 15.4348C174.557 15.3412 174.53 15.2937 174.454 15.2335C174.338 15.1794 174.23 15.174 174.104 15.1747C174.059 15.1748 174.059 15.1748 174.013 15.1749C173.982 15.1751 173.951 15.1753 173.918 15.1756C173.887 15.1757 173.855 15.1758 173.823 15.1759C173.745 15.1762 173.667 15.1767 173.589 15.1772ZM173.589 16.1305C173.589 16.3345 173.589 16.5386 173.589 16.7488C173.695 16.7506 173.801 16.7522 173.908 16.7531C173.944 16.7535 173.98 16.754 174.016 16.7547C174.356 16.7667 174.356 16.7667 174.652 16.6152C174.699 16.5204 174.71 16.4395 174.688 16.3366C174.612 16.2114 174.55 16.1666 174.413 16.1305C174.347 16.1263 174.284 16.1244 174.218 16.1254C174.2 16.1255 174.182 16.1256 174.164 16.1257C174.106 16.1259 174.049 16.1266 173.992 16.1273C173.953 16.1275 173.914 16.1277 173.875 16.128C173.78 16.1285 173.684 16.1295 173.589 16.1305Z" fill="black"/>
<path d="M167.82 14.8423C168.194 14.8423 168.194 14.8423 168.305 14.9421C168.336 14.9855 168.365 15.0296 168.394 15.0742C168.427 15.1163 168.459 15.1582 168.493 15.1998C168.509 15.2214 168.526 15.2431 168.543 15.2654C168.594 15.3321 168.646 15.398 168.699 15.4639C168.794 15.5839 168.889 15.7042 168.984 15.8246C168.997 15.8412 169.011 15.8578 169.024 15.8749C169.124 16.0017 169.221 16.1303 169.318 16.2594C169.327 15.7917 169.335 15.3241 169.343 14.8423C169.483 14.8423 169.624 14.8423 169.768 14.8423C169.768 15.582 169.768 16.3217 169.768 17.0838C169.393 17.0838 169.393 17.0838 169.306 17.0167C169.277 16.9726 169.277 16.9726 169.25 16.9244C169.228 16.891 169.206 16.8576 169.184 16.8243C169.173 16.8073 169.162 16.7903 169.151 16.7728C169.1 16.6953 169.041 16.626 168.981 16.5557C168.875 16.4276 168.773 16.2962 168.673 16.1629C168.578 16.0383 168.48 15.9175 168.38 15.7978C168.297 15.6976 168.297 15.6976 168.269 15.641C168.261 16.1171 168.253 16.5933 168.244 17.0838C168.104 17.0838 167.964 17.0838 167.82 17.0838C167.82 16.3441 167.82 15.6044 167.82 14.8423Z" fill="black"/>
<path d="M183.904 14.8421C184.203 14.8389 184.203 14.8389 184.508 14.8356C184.601 14.8342 184.601 14.8342 184.696 14.8328C185.096 14.8293 185.429 14.8547 185.752 15.1255C185.975 15.3638 186.074 15.6335 186.083 15.9629C186.073 16.2819 185.978 16.5727 185.752 16.8002C185.481 17.0123 185.208 17.1006 184.87 17.0937C184.845 17.0936 184.82 17.0935 184.795 17.0934C184.704 17.0929 184.613 17.0914 184.522 17.0901C184.318 17.088 184.114 17.0858 183.904 17.0836C183.904 16.3439 183.904 15.6042 183.904 14.8421ZM184.328 15.2028C184.328 15.7044 184.328 16.2061 184.328 16.7229C184.948 16.7631 184.948 16.7631 185.463 16.4894C185.633 16.2751 185.646 16.0364 185.627 15.7696C185.578 15.5722 185.465 15.4161 185.295 15.3123C184.993 15.1399 184.669 15.2028 184.328 15.2028Z" fill="black"/>
<path d="M153.984 14.8421C154.283 14.8389 154.283 14.8389 154.588 14.8356C154.681 14.8342 154.681 14.8342 154.777 14.8328C155.176 14.8293 155.509 14.8547 155.832 15.1255C156.055 15.3638 156.154 15.6335 156.163 15.9629C156.153 16.2819 156.058 16.5727 155.832 16.8002C155.561 17.0123 155.288 17.1006 154.95 17.0937C154.925 17.0936 154.9 17.0935 154.875 17.0934C154.784 17.0929 154.693 17.0914 154.602 17.0901C154.398 17.088 154.194 17.0858 153.984 17.0836C153.984 16.3439 153.984 15.6042 153.984 14.8421ZM154.408 15.2028C154.408 15.7044 154.408 16.2061 154.408 16.7229C155.028 16.7631 155.028 16.7631 155.543 16.4894C155.713 16.2751 155.726 16.0364 155.707 15.7696C155.658 15.5722 155.545 15.4161 155.375 15.3123C155.073 15.1399 154.749 15.2028 154.408 15.2028Z" fill="black"/>
<path d="M166.516 15.0614C166.551 15.0968 166.551 15.0968 166.596 15.1515C166.561 15.2315 166.521 15.2898 166.462 15.3528C166.447 15.3689 166.433 15.385 166.418 15.4016C166.371 15.4349 166.371 15.4349 166.323 15.4319C166.263 15.4054 166.214 15.3715 166.161 15.3335C165.977 15.218 165.776 15.1822 165.564 15.2192C165.346 15.2774 165.204 15.3722 165.073 15.5638C164.965 15.7612 164.946 15.9666 165.004 16.1837C165.069 16.3876 165.185 16.544 165.369 16.6461C165.634 16.7597 165.886 16.7275 166.147 16.6201C166.155 16.3906 166.163 16.161 166.172 15.9245C166.303 15.9245 166.435 15.9245 166.571 15.9245C166.577 16.0539 166.582 16.1828 166.585 16.3123C166.586 16.3562 166.588 16.4002 166.59 16.4441C166.608 16.8081 166.608 16.8081 166.52 16.914C166.455 16.9554 166.394 16.9824 166.321 17.0066C166.28 17.0248 166.28 17.0248 166.238 17.0433C165.847 17.1696 165.454 17.1845 165.079 16.9905C164.802 16.821 164.635 16.5797 164.539 16.2643C164.475 15.9351 164.519 15.5944 164.693 15.3093C164.719 15.2733 164.746 15.2379 164.773 15.2031C164.785 15.1872 164.797 15.1714 164.809 15.1552C165.216 14.6768 166.057 14.6644 166.516 15.0614Z" fill="black"/>
<path d="M157.306 14.8423C157.841 14.8423 158.377 14.8423 158.929 14.8423C158.929 14.9613 158.929 15.0804 158.929 15.203C158.533 15.203 158.138 15.203 157.73 15.203C157.73 15.39 157.73 15.5771 157.73 15.7698C158.076 15.7698 158.423 15.7698 158.779 15.7698C158.779 15.8889 158.779 16.0079 158.779 16.1305C158.433 16.1305 158.087 16.1305 157.73 16.1305C157.73 16.3261 157.73 16.5216 157.73 16.7231C158.134 16.7231 158.538 16.7231 158.954 16.7231C158.954 16.8422 158.954 16.9612 158.954 17.0838C158.41 17.0838 157.866 17.0838 157.306 17.0838C157.306 16.3441 157.306 15.6044 157.306 14.8423Z" fill="black"/>
<path d="M176.261 14.8423C176.41 14.8423 176.558 14.8423 176.711 14.8423C176.711 14.8862 176.711 14.9301 176.711 14.9754C176.712 15.1214 176.713 15.2674 176.714 15.4135C176.715 15.5019 176.716 15.5903 176.716 15.6788C176.716 15.7807 176.717 15.8826 176.718 15.9846C176.718 16.016 176.718 16.0473 176.718 16.0796C176.721 16.2745 176.747 16.434 176.861 16.5943C176.997 16.7045 177.169 16.7374 177.339 16.7166C177.469 16.6882 177.589 16.6399 177.666 16.5214C177.742 16.374 177.762 16.2314 177.765 16.0649C177.765 16.0376 177.766 16.0103 177.766 15.9821C177.767 15.953 177.767 15.924 177.768 15.894C177.768 15.8639 177.769 15.8338 177.769 15.8028C177.771 15.707 177.772 15.6112 177.774 15.5154C177.775 15.4503 177.776 15.3852 177.777 15.3201C177.78 15.1609 177.782 15.0016 177.785 14.8423C177.925 14.8423 178.065 14.8423 178.209 14.8423C178.211 15.0311 178.212 15.2199 178.212 15.4087C178.212 15.4728 178.213 15.537 178.213 15.6011C178.214 15.6937 178.214 15.7863 178.214 15.8789C178.215 15.9072 178.215 15.9355 178.215 15.9646C178.215 16.2999 178.163 16.5594 177.992 16.8455C177.785 17.0538 177.52 17.1358 177.235 17.145C176.96 17.1361 176.692 17.0614 176.491 16.8576C176.268 16.5766 176.257 16.2352 176.259 15.889C176.259 15.859 176.259 15.8289 176.259 15.798C176.259 15.7027 176.259 15.6075 176.26 15.5122C176.26 15.4473 176.26 15.3825 176.26 15.3176C176.26 15.1592 176.261 15.0007 176.261 14.8423Z" fill="black"/>
<path d="M161.676 14.9967C161.635 15.1157 161.594 15.2348 161.551 15.3574C161.47 15.3247 161.389 15.292 161.307 15.2593C161.11 15.1844 160.846 15.1532 160.646 15.235C160.577 15.2806 160.538 15.307 160.502 15.3832C160.488 15.4605 160.488 15.4605 160.502 15.5378C160.64 15.7062 160.856 15.7391 161.055 15.7904C161.328 15.8611 161.562 15.9271 161.726 16.1819C161.78 16.3484 161.784 16.572 161.714 16.7342C161.595 16.9347 161.415 17.043 161.202 17.1094C160.841 17.1936 160.431 17.1272 160.103 16.9548C160.069 16.9299 160.035 16.9043 160.003 16.8775C160.019 16.7469 160.074 16.6348 160.128 16.5168C160.247 16.5653 160.364 16.6168 160.481 16.6683C160.68 16.7492 160.942 16.7631 161.148 16.7017C161.216 16.6672 161.267 16.6399 161.302 16.5684C161.314 16.4804 161.314 16.4804 161.302 16.388C161.211 16.2946 161.115 16.2571 160.994 16.2222C160.977 16.2168 160.96 16.2115 160.942 16.206C160.887 16.1891 160.832 16.1726 160.777 16.1561C160.705 16.1345 160.633 16.1124 160.562 16.0901C160.546 16.0853 160.529 16.0805 160.513 16.0756C160.363 16.0293 160.245 15.9564 160.145 15.8325C160.133 15.8175 160.12 15.8026 160.108 15.7873C160.015 15.653 160.041 15.462 160.053 15.3059C160.095 15.1337 160.213 15.0166 160.353 14.9194C160.774 14.6949 161.274 14.7638 161.676 14.9967Z" fill="black"/>
<path d="M181.282 14.8423C181.422 14.8423 181.562 14.8423 181.706 14.8423C181.706 15.463 181.706 16.0836 181.706 16.7231C182.085 16.7231 182.465 16.7231 182.855 16.7231C182.855 16.8422 182.855 16.9612 182.855 17.0838C182.336 17.0838 181.817 17.0838 181.282 17.0838C181.282 16.3441 181.282 15.6044 181.282 14.8423Z" fill="black"/>
<path d="M179.508 14.8423C179.648 14.8423 179.789 14.8423 179.933 14.8423C179.933 15.582 179.933 16.3217 179.933 17.0838C179.793 17.0838 179.653 17.0838 179.508 17.0838C179.508 16.3441 179.508 15.6044 179.508 14.8423Z" fill="black"/>
<path d="M162.9 14.8423C163.04 14.8423 163.18 14.8423 163.324 14.8423C163.324 15.582 163.324 16.3217 163.324 17.0838C163.184 17.0838 163.044 17.0838 162.9 17.0838C162.9 16.3441 162.9 15.6044 162.9 14.8423Z" fill="black"/>
<path d="M171.017 15.7954C171.305 15.7954 171.594 15.7954 171.891 15.7954C171.891 15.9059 171.891 16.0165 171.891 16.1304C171.602 16.1304 171.314 16.1304 171.017 16.1304C171.017 16.0198 171.017 15.9093 171.017 15.7954Z" fill="black"/>
</g>
<rect x="112" y="5.84229" width="2.47253" height="15.1579" rx="1.23626" fill="#E5E5E5"/>
<defs>
<clipPath id="clip0_207_315">
<rect width="60.1649" height="16" fill="white" transform="translate(126.836 5)"/>
</clipPath>
</defs>
</svg>
