<svg width="58" height="36" viewBox="0 0 58 36" fill="none" xmlns="http://www.w3.org/2000/svg">
<path d="M32.067 0.00238445C31.9961 0.191909 31.9256 0.350407 31.8091 0.514126C31.7801 0.5552 31.7512 0.596275 31.7213 0.638594C31.6902 0.682106 31.6591 0.725619 31.6271 0.77045C31.561 0.864081 31.4949 0.957751 31.4289 1.05145C31.3955 1.09884 31.362 1.14622 31.3276 1.19504C31.1783 1.40805 31.0326 1.62361 30.8869 1.83922C30.8315 1.92053 30.776 2.00182 30.7206 2.08309C30.614 2.23928 30.5086 2.3962 30.4037 2.55362C30.0769 3.03768 29.6852 3.61473 29.162 3.88619C29.0773 3.89165 28.9923 3.89346 28.9075 3.89348C28.8535 3.89363 28.7995 3.89378 28.7439 3.89394C28.6841 3.89381 28.6244 3.89368 28.5628 3.89355C28.4679 3.89368 28.4679 3.89368 28.3712 3.89382C28.1575 3.89405 27.9438 3.89387 27.7301 3.89369C27.5772 3.89373 27.4244 3.89387 27.2715 3.89399C26.8965 3.89425 26.5215 3.89419 26.1466 3.89403C25.8379 3.8939 25.5293 3.89388 25.2206 3.89394C25.1764 3.89395 25.1322 3.89396 25.0867 3.89397C24.9968 3.89399 24.9068 3.89401 24.8169 3.89403C23.9689 3.89419 23.121 3.894 22.273 3.89369C21.5617 3.89344 20.8504 3.89347 20.139 3.89374C15.6421 3.8954 11.1457 3.88417 5.64246 3.82822C5.77243 4.05839 5.90242 4.28856 6.03242 4.51871C6.07652 4.5968 6.12062 4.67488 6.16472 4.75297C6.48017 5.3116 6.79672 5.86953 7.11592 6.42587C7.15997 6.50274 7.20402 6.57962 7.24806 6.6565C7.3384 6.81419 7.42877 6.97187 7.51915 7.12955C7.719 7.47822 7.91855 7.82708 8.11813 8.17593C8.22865 8.3691 8.33919 8.56227 8.44972 8.75543C8.49395 8.83272 8.53818 8.91001 8.5824 8.9873C8.60429 9.02556 8.62619 9.06381 8.64874 9.10323C10.838 12.9291 13.0272 16.7549 20.3911 29.6236C20.6339 29.2125 20.8623 28.7942 21.0856 28.3714C21.1837 28.1857 21.2821 28.0002 21.3805 27.8146C21.4006 27.7768 21.4206 27.7389 21.4413 27.6999C21.6407 27.3237 21.8415 26.9483 22.0426 26.5731C22.0769 26.5091 22.1112 26.445 22.1466 26.379C22.2158 26.2499 22.285 26.1207 22.3543 25.9915C22.5286 25.6662 22.7029 25.3407 22.8771 25.0152C22.9469 24.8848 23.0168 24.7544 23.0866 24.6239C23.1212 24.5594 23.1557 24.4948 23.1913 24.4283C23.5056 23.8414 23.5056 23.8414 23.6103 23.6458C23.6802 23.5153 23.7501 23.3847 23.82 23.2542C23.9938 22.9295 24.1676 22.6049 24.3416 22.2803C24.7018 21.6082 25.0612 20.9355 25.419 20.2619C25.8111 19.5237 26.2052 18.7867 26.6001 18.05C26.7744 17.7247 26.9487 17.3992 27.1229 17.0737C27.3317 16.6838 27.5405 16.2938 27.7494 15.904C28.1097 15.2318 28.469 14.5591 28.8268 13.8855C29.219 13.1473 29.613 12.4103 30.0079 11.6737C30.1823 11.3483 30.3565 11.0228 30.5307 10.6973C30.6006 10.5669 30.6704 10.4365 30.7402 10.306C30.7748 10.2415 30.8094 10.1769 30.845 10.1104C31.1592 9.52349 31.1592 9.52349 31.264 9.32788C31.3338 9.19736 31.4037 9.06684 31.4736 8.93632C31.6474 8.61166 31.8213 8.28702 31.9952 7.96246C32.3555 7.29027 32.7148 6.61759 33.0726 5.94402C33.4642 5.20694 33.8577 4.47099 34.252 3.73547C34.3802 3.496 34.5083 3.25642 34.6363 3.01678C34.7607 2.78376 34.8859 2.55114 35.0111 2.31858C35.1189 2.11814 35.2246 1.9172 35.3258 1.7131C35.61 1.14794 35.996 0.770765 36.5363 0.466122C36.6839 0.427604 36.6839 0.427604 36.8439 0.40381C36.9041 0.394539 36.9643 0.385267 37.0264 0.375715C37.0909 0.366469 37.1555 0.357223 37.222 0.347697C37.2889 0.33765 37.3557 0.327603 37.4246 0.317251C37.5659 0.296154 37.7073 0.275368 37.8487 0.254873C38.0645 0.223543 38.2803 0.191225 38.496 0.158737C38.6335 0.138337 38.7709 0.117994 38.9084 0.0977133C38.9727 0.0881151 39.0371 0.078517 39.1033 0.068628C39.4051 0.0251784 39.6953 -0.00957939 40 0.00238445C39.9219 0.216755 39.8287 0.413717 39.7215 0.613983C39.6881 0.67649 39.6547 0.738996 39.6203 0.803396C39.5839 0.870918 39.5476 0.938433 39.5112 1.00594C39.4926 1.04055 39.474 1.07516 39.4549 1.11082C39.1641 1.65238 38.8656 2.18884 38.5627 2.72318C38.3184 3.15553 38.0825 3.59228 37.8492 4.0311C37.5544 4.58544 37.2518 5.1341 36.9424 5.67977C36.6982 6.11205 36.4623 6.5487 36.229 6.98743C35.965 7.48397 35.6961 7.9768 35.419 8.46559C35.1025 9.024 34.7972 9.5882 34.4951 10.1551C34.2052 10.6991 33.9094 11.2394 33.611 11.7784C33.4323 12.1013 33.2542 12.4246 33.0761 12.7479C33.057 12.7826 33.0379 12.8172 33.0182 12.8529C32.7651 13.3124 32.5131 13.7724 32.2626 14.2333C31.9975 14.7209 31.7308 15.2074 31.463 15.6934C31.4443 15.7273 31.4256 15.7612 31.4063 15.7962C31.2158 16.1419 31.0252 16.4876 30.8344 16.8331C30.7401 17.0039 30.6459 17.1746 30.5517 17.3454C30.5331 17.3791 30.5145 17.4127 30.4954 17.4474C30.2321 17.9251 29.9719 18.4045 29.7137 18.8852C29.4289 19.4153 29.1369 19.9404 28.8408 20.4637C28.5737 20.9368 28.3154 21.4146 28.0585 21.8936C27.8364 22.3068 27.6088 22.7162 27.3778 23.124C27.0626 23.6806 26.759 24.2432 26.4584 24.8085C26.1984 25.2961 25.9298 25.7778 25.6575 26.2581C25.4133 26.6904 25.1774 27.127 24.9441 27.5658C24.6494 28.1201 24.3468 28.6688 24.0374 29.2144C23.7931 29.6467 23.5573 30.0834 23.324 30.5221C23.0294 31.0761 22.727 31.6245 22.4178 32.1699C22.1874 32.5775 21.9641 32.9888 21.744 33.4023C21.5914 33.6888 21.4382 33.9749 21.2849 34.261C21.2569 34.3132 21.229 34.3654 21.2001 34.4192C20.702 35.3427 20.702 35.3427 20.3352 35.6522C20.2986 35.6854 20.262 35.7186 20.2243 35.7527C20.1319 35.8363 20.0382 35.9184 19.9441 36C19.6947 35.9147 19.6152 35.7201 19.5007 35.4928C19.4561 35.4075 19.4114 35.3223 19.3665 35.2371C19.3425 35.1915 19.3185 35.1458 19.2938 35.0988C19.1617 34.8515 19.022 34.609 18.8827 34.3661C18.5959 33.8647 18.311 33.3621 18.0272 32.8589C17.716 32.3071 17.4029 31.7565 17.088 31.2068C16.7626 30.6386 16.4426 30.0674 16.1254 29.4943C15.8748 29.0424 15.62 28.5934 15.3631 28.1454C15.0314 27.567 14.7052 26.9855 14.3819 26.4019C14.1317 25.9507 13.8779 25.5019 13.622 25.0541C13.4048 24.6737 13.1893 24.2923 12.9749 23.9102C12.6824 23.3892 12.389 22.8688 12.095 22.3487C11.7741 21.7811 11.4539 21.213 11.1346 20.6444C10.8781 20.188 10.6207 19.7322 10.3631 19.2765C10.0739 18.7648 9.78507 18.2529 9.49721 17.7403C9.21274 17.2339 8.92751 16.728 8.64176 16.2223C8.62193 16.1872 8.6021 16.1521 8.58167 16.116C8.43994 15.8652 8.29819 15.6144 8.15642 15.3637C7.99463 15.0775 7.83284 14.7913 7.67109 14.505C7.65125 14.4699 7.6314 14.4348 7.61096 14.3986C7.31362 13.8724 7.01711 13.3457 6.72111 12.8187C6.46469 12.3623 6.20732 11.9066 5.94972 11.4509C5.62881 10.8832 5.30866 10.3151 4.98931 9.74653C4.73287 9.29013 4.47549 8.83432 4.21788 8.37864C3.89697 7.81098 3.57682 7.24287 3.25746 6.67427C3.00103 6.21787 2.74364 5.76207 2.48603 5.30638C2.09822 4.62033 1.71153 3.93361 1.32559 3.24642C1.22462 3.06676 1.12352 2.88717 1.02239 2.70759C0.858773 2.41703 0.695391 2.12633 0.532254 1.83548C0.478057 1.73891 0.423799 1.64236 0.369457 1.54587C0.304262 1.43004 0.239365 1.31404 0.174581 1.19796C0.140158 1.13653 0.105735 1.07511 0.0702689 1.01183C0 0.871892 0 0.871892 0 0.755958C0.0972078 0.665551 0.197935 0.579187 0.300279 0.495105C0.520381 0.314967 0.520381 0.314967 0.726257 0.118319C0.872604 0.100127 0.872605 0.100127 1.0668 0.0949616C1.10344 0.0938871 1.14007 0.0928127 1.17781 0.0917057C1.30565 0.0882233 1.43348 0.0856963 1.56134 0.0832356C1.60764 0.0821775 1.65393 0.0811195 1.70163 0.0800293C3.34562 0.0426054 4.99065 0.0470956 6.63496 0.0431306C7.14733 0.0418877 7.65971 0.0403603 8.17208 0.0388316C9.09786 0.036079 10.0236 0.0335747 10.9494 0.0312124C11.8234 0.028982 12.6974 0.0265796 13.5713 0.0239665C18.9324 0.00796018 24.2935 -0.000555726 32.067 0.00238445Z" fill="black"/>
<path d="M42.3446 0.000483487C42.4249 0.00113113 42.4249 0.00113113 42.5069 0.00179185C42.5656 0.00318055 42.6243 0.00456926 42.6848 0.00600004C42.7473 0.00676819 42.8097 0.00753635 42.8741 0.00832778C43.0843 0.0111322 43.2944 0.0152253 43.5045 0.0193096C43.6549 0.0215816 43.8053 0.0237828 43.9557 0.0258962C44.3222 0.0312114 44.6888 0.0374821 45.0553 0.0440661C45.4824 0.051698 45.9095 0.0583555 46.3366 0.0649643C47.099 0.0767922 47.8614 0.0894598 48.6238 0.102619C49.363 0.115376 50.1022 0.12762 50.8415 0.13925C50.9097 0.140323 50.9097 0.140323 50.9793 0.141418C51.1621 0.144294 51.3449 0.147169 51.5277 0.150043C52.2327 0.161141 52.9377 0.172635 53.6427 0.1842C53.8555 0.18769 54.0682 0.191162 54.281 0.194592C54.7285 0.201811 55.1761 0.209167 55.6236 0.216966C55.8087 0.220188 55.9937 0.22331 56.1787 0.226271C56.3797 0.229504 56.5807 0.233045 56.7817 0.236665C56.8686 0.237961 56.8685 0.237961 56.9572 0.239283C57.3074 0.246002 57.6521 0.270652 58 0.312643C57.783 0.729448 57.559 1.14064 57.3248 1.5473C57.2933 1.60219 57.2618 1.65708 57.2293 1.71364C57.1615 1.83181 57.0936 1.94996 57.0258 2.06808C56.88 2.32174 56.7346 2.57562 56.5892 2.82949C56.4739 3.0307 56.3586 3.23187 56.2432 3.43304C56.0138 3.83331 55.7843 4.23362 55.5549 4.63393C55.4791 4.76621 55.4033 4.8985 55.3274 5.03078C55.2899 5.09626 55.2524 5.16174 55.2137 5.22921C53.0529 8.99931 53.0529 8.99931 52.9392 9.19781C52.8635 9.32985 52.7878 9.4619 52.7121 9.59394C52.54 9.89432 52.3678 10.1947 52.1956 10.4951C51.8271 11.1378 51.4587 11.7806 51.0912 12.424C50.7042 13.1014 50.3162 13.7782 49.9282 14.455C49.7377 14.7872 49.5473 15.1195 49.3568 15.4518C49.281 15.5841 49.2052 15.7164 49.1294 15.8487C49.0919 15.9142 49.0543 15.9797 49.0157 16.0471C48.6745 16.6424 48.6745 16.6424 48.5607 16.8409C48.485 16.9729 48.4094 17.105 48.3337 17.237C48.1615 17.5374 47.9894 17.8378 47.8172 18.1381C47.4486 18.7809 47.0802 19.4237 46.7127 20.0671C46.3258 20.7445 45.9378 21.4213 45.5498 22.0981C45.3593 22.4303 45.1688 22.7626 44.9784 23.0949C44.9026 23.2272 44.8268 23.3595 44.7509 23.4918C44.7134 23.5573 44.6759 23.6227 44.6372 23.6902C43.3862 25.8729 43.3862 25.8729 43.2725 26.0714C43.1968 26.2034 43.1211 26.3355 43.0454 26.4675C42.8733 26.7679 42.7011 27.0683 42.5289 27.3686C42.1639 28.0053 41.799 28.6419 41.4351 29.2792C41.0901 29.8833 40.7438 30.4866 40.3972 31.0897C40.3505 31.1711 40.3037 31.2524 40.257 31.3338C40.2337 31.3744 40.2103 31.415 40.1863 31.4568C40.0008 31.7796 39.8157 32.1027 39.6308 32.4259C39.5182 32.6225 39.4054 32.819 39.2921 33.0152C39.2473 33.0927 39.2026 33.1701 39.1579 33.2475C39.136 33.2855 39.114 33.3236 39.0914 33.3627C38.9592 33.5922 38.8292 33.8227 38.7007 34.0543C37.804 35.6679 37.804 35.6679 37.1882 36C36.9676 35.924 36.9515 35.8483 36.8423 35.6399C36.8085 35.576 36.7747 35.5122 36.7398 35.4463C36.7033 35.3761 36.6667 35.3059 36.6302 35.2357C36.5921 35.1634 36.554 35.0912 36.5157 35.0191C36.437 34.8703 36.3585 34.7213 36.2801 34.5723C36.1092 34.2481 35.9344 33.9261 35.7595 33.6042C35.7268 33.5438 35.6941 33.4835 35.6604 33.4213C35.4106 32.9605 35.1593 32.5007 34.9076 32.0411C34.6472 31.5651 34.3888 31.088 34.1307 30.6108C33.9094 30.2019 33.6869 29.7936 33.4637 29.3858C33.107 28.7343 32.7531 28.0812 32.3996 27.4278C32.2614 27.1722 32.1231 26.9167 31.9846 26.6613C31.917 26.5363 31.8497 26.4112 31.7826 26.286C31.6379 26.0165 31.4918 25.7498 31.3322 25.4894C31.2946 25.4264 31.2946 25.4264 31.2563 25.3622C31.2113 25.2873 31.1648 25.2133 31.1166 25.1406C31.031 24.9963 30.9851 24.8737 31.0044 24.704C31.0472 24.5449 31.1017 24.395 31.1607 24.2414C31.1974 24.1406 31.1974 24.1406 31.2348 24.0377C31.3047 23.8477 31.379 23.6599 31.455 23.4725C31.4862 23.3949 31.5166 23.317 31.5463 23.2388C31.7919 22.5922 32.1233 22.1311 32.7529 21.8309C33.0885 22.2955 33.4006 22.7726 33.7069 23.2581C33.8187 23.4354 33.931 23.6125 34.0431 23.7896C34.1037 23.8852 34.1643 23.9809 34.2249 24.0765C34.5749 24.6294 34.9265 25.1811 35.2783 25.7328C35.3837 25.8982 35.4892 26.0637 35.5946 26.2292C35.9039 26.7146 36.2139 27.1994 36.5262 27.6827C36.8086 28.1201 37.0871 28.5601 37.3659 29C37.4208 29.0866 37.4757 29.1732 37.5307 29.2598C37.663 29.4684 37.7952 29.6769 37.9274 29.8855C38.0941 29.6805 38.225 29.4749 38.3481 29.2395C38.3658 29.2059 38.3835 29.1723 38.4017 29.1377C38.4397 29.0657 38.4775 28.9936 38.5153 28.9215C38.6163 28.7285 38.7182 28.5362 38.8203 28.3438C38.841 28.3049 38.8616 28.266 38.8828 28.226C39.0727 27.8692 39.27 27.5172 39.4698 27.1663C39.7756 26.629 40.0729 26.0874 40.3666 25.5429C40.6561 25.0062 40.9503 24.4724 41.2459 23.9393C41.4242 23.6176 41.602 23.2956 41.7799 22.9737C42.2102 22.1947 42.2102 22.1947 42.4235 21.8098C42.5194 21.6368 42.6152 21.4638 42.711 21.2907C42.7299 21.2566 42.7488 21.2225 42.7682 21.1873C43.0363 20.7028 43.3011 20.2166 43.5639 19.729C43.8537 19.1915 44.1509 18.6591 44.4522 18.1284C44.7264 17.6441 44.9924 17.1554 45.2567 16.6652C45.5462 16.1285 45.8405 15.5947 46.1361 15.0615C46.2951 14.7747 46.4537 14.4876 46.6123 14.2006C46.7092 14.0251 46.8061 13.8497 46.9031 13.6743C46.9225 13.6391 46.942 13.6039 46.962 13.5677C47.0797 13.3547 47.1974 13.1419 47.3152 12.929C47.6844 12.2618 48.0533 11.5943 48.4186 10.9248C48.6884 10.4303 48.9599 9.9368 49.2325 9.44393C49.261 9.39237 49.261 9.39237 49.2901 9.33976C49.4455 9.05865 49.6011 8.77758 49.7566 8.49652C49.8923 8.25136 50.028 8.00619 50.1636 7.76098C50.1826 7.72658 50.2016 7.69218 50.2212 7.65674C50.5044 7.14462 50.7858 6.63149 51.066 6.11768C51.3339 5.62704 51.6043 5.13794 51.875 4.64894C52.1752 4.10636 52.4732 3.56256 52.7686 3.01712C52.0997 3.054 51.4382 3.12867 50.7735 3.21212C50.6611 3.22605 50.5487 3.23996 50.4364 3.25385C50.1961 3.28359 49.9559 3.31346 49.7157 3.34345C49.3354 3.3909 48.9552 3.43797 48.5749 3.48497C47.631 3.60172 46.6871 3.71888 45.7433 3.83627C45.0084 3.92768 44.2734 4.01895 43.5384 4.10972C43.1607 4.15639 42.783 4.20337 42.4054 4.25059C42.1704 4.27991 41.9353 4.30894 41.7002 4.33789C41.5916 4.35132 41.483 4.36488 41.3744 4.37856C40.0118 4.5501 40.0118 4.5501 39.6937 4.41713C39.495 4.23659 39.4134 4.09889 39.3881 3.82409C39.4092 3.56312 39.4782 3.44569 39.6213 3.23116C39.6686 3.15886 39.716 3.08656 39.7633 3.01425C39.7885 2.97648 39.8137 2.93872 39.8396 2.89981C39.9461 2.73892 40.0486 2.57552 40.1514 2.41215C40.26 2.24005 40.3703 2.06905 40.4806 1.8981C40.5366 1.81102 40.5923 1.72371 40.6476 1.63617C40.9994 1.08004 41.3428 0.611225 41.8509 0.195057C41.8858 0.164036 41.9206 0.133015 41.9565 0.101054C42.1005 0.003758 42.1742 -0.00227822 42.3446 0.000483487Z" fill="black"/>
</svg>
