<?xml version="1.0" encoding="UTF-8"?>
<svg version="1.1" xmlns="http://www.w3.org/2000/svg" width="512" height="512">
<path d="M0 0 C1.11463369 -0.00507454 2.22926739 -0.01014909 3.37767786 -0.0153774 C4.60226239 -0.01587516 5.82684692 -0.01637292 7.08854008 -0.01688576 C9.04001323 -0.02345914 9.04001323 -0.02345914 11.03091007 -0.03016531 C14.64527745 -0.042121 18.25963147 -0.04777695 21.87401474 -0.05234647 C25.77130722 -0.05830652 29.66858378 -0.06991551 33.56586552 -0.08063698 C42.98072597 -0.10515397 52.39559169 -0.11978825 61.81047425 -0.13269705 C64.47066213 -0.13640986 67.13084948 -0.14038303 69.79103684 -0.14444971 C86.31734844 -0.16969001 102.84366087 -0.19173893 119.36998749 -0.20417786 C123.1976449 -0.20710747 127.02530229 -0.21006914 130.85295963 -0.21308327 C132.27994666 -0.21420234 132.27994666 -0.21420234 133.73576171 -0.21534403 C149.13651417 -0.22798966 164.53715097 -0.26120225 179.93784939 -0.3028851 C195.75708316 -0.34534889 211.5762578 -0.36887813 227.3955484 -0.37409842 C236.27432393 -0.37750778 245.15291881 -0.38920658 254.03163815 -0.42220116 C261.59562573 -0.45026415 269.15939563 -0.46117374 276.72343122 -0.4500057 C280.57932593 -0.4448347 284.43476522 -0.44760312 288.29059315 -0.47247124 C292.48128572 -0.49927201 296.67098523 -0.48685036 300.86173344 -0.47098732 C302.06624147 -0.48486941 303.27074951 -0.49875149 304.51175779 -0.51305425 C318.06392788 -0.38716697 328.49019391 4.51358088 338.21843815 13.71904564 C345.77317008 21.72160962 349.70227343 31.64924155 349.68357754 42.49577045 C349.68622936 43.24275225 349.68888119 43.98973404 349.69161338 44.75935164 C349.69930703 47.2764414 349.69986558 49.79348238 349.70046329 52.31058311 C349.70447789 54.12793305 349.7089161 55.94528209 349.71374285 57.76263005 C349.72571479 62.76798965 349.73135826 67.77333961 349.73592401 72.77871072 C349.74187781 78.17294725 349.75348829 83.56717224 349.76421452 88.96140099 C349.78874467 101.99513136 349.80336713 115.02886555 349.81627458 128.06261191 C349.81998625 131.7438236 349.8239595 135.42503492 349.82802725 139.10624623 C349.85326488 161.96446466 349.87531875 184.82268368 349.88775539 207.68091297 C349.89068511 212.97642011 349.89364677 218.27192722 349.8966608 223.56743431 C349.89740686 224.883614 349.89815291 226.19979369 349.89892156 227.55585761 C349.91157306 248.87347051 349.94479289 270.19098305 349.98646264 291.50856041 C350.02889115 313.39370054 350.05245155 335.27879796 350.05767596 357.16397911 C350.06108916 369.45210529 350.07283368 381.7401011 350.10577869 394.0281868 C350.13379297 404.49436437 350.14477244 414.96038484 350.13358323 425.42659699 C350.12840007 430.7649383 350.13126146 436.10295069 350.15604877 441.44124413 C350.17857654 446.33385097 350.17777381 451.22589328 350.1588449 456.11851025 C350.15604985 457.88308645 350.16161576 459.64770122 350.17665784 461.41221552 C350.30287858 477.19062899 347.07611456 489.06627858 335.9645319 500.80888939 C328.53332518 507.82423783 318.80709123 512.2515268 308.62460518 512.27402878 C307.40546962 512.27910332 306.18633406 512.28417786 304.930255 512.28940618 C303.57539344 512.29000783 302.22053183 512.29050692 300.8656702 512.29091454 C299.42780165 512.29493014 297.98993423 512.29936853 296.55206817 512.30419409 C292.59565352 512.31615483 288.63925106 512.3218069 284.68282187 512.32637525 C280.41742855 512.33233336 276.15204979 512.34394281 271.8866663 512.35466576 C261.58191963 512.37918684 251.27716815 512.39381745 240.97240129 512.40672582 C238.06114199 512.41043828 235.14988316 512.41441148 232.23862433 512.41847849 C214.15528638 512.44371796 196.07194765 512.46576842 177.98859596 512.47820663 C173.7999919 512.48113628 169.61138786 512.48409795 165.42278385 512.48711205 C163.86121916 512.48823112 163.86121916 512.48823112 162.2681077 512.4893728 C145.41239169 512.50202026 128.55678132 512.53523511 111.70111466 512.57691388 C94.39026459 512.6193667 77.07946853 512.64290563 59.76856655 512.6481272 C50.05142754 512.65153775 40.33445354 512.66325079 30.61736584 512.69622993 C22.339726 512.72427776 14.062285 512.73520909 5.78460134 512.72403447 C1.56417375 512.71885971 -2.65583777 512.7216571 -6.87620449 512.74650002 C-10.74742613 512.76909652 -14.61793533 512.7681731 -18.48917032 512.74929614 C-19.88228404 512.74651056 -21.27544716 512.75201372 -22.66848188 512.76710908 C-37.38938114 512.91674829 -48.47224837 508.63556891 -59.12531185 498.55498314 C-66.02942716 491.24160327 -70.54479967 481.55135899 -70.61406612 471.50877953 C-70.62411175 470.36210304 -70.63415737 469.21542656 -70.64450741 468.0340023 C-70.6503384 466.77990059 -70.6561694 465.52579887 -70.66217709 464.23369408 C-70.67172051 462.89634522 -70.68161189 461.5589988 -70.69182491 460.22165489 C-70.72315116 455.83409599 -70.74346889 451.44651846 -70.7620306 447.05888939 C-70.76697658 445.93780391 -70.76697658 445.93780391 -70.77202249 444.79407024 C-70.80279849 437.74114439 -70.82949555 430.68821411 -70.84644127 423.63524055 C-70.86834372 414.62628864 -70.91031814 405.61793292 -70.97987884 396.60921931 C-71.02717628 390.26766825 -71.05138232 383.92627774 -71.05863816 377.58455586 C-71.06358537 373.80022718 -71.07857604 370.0165713 -71.11838245 366.23243523 C-71.15536567 362.66989099 -71.1636215 359.10840055 -71.15037632 355.54570007 C-71.15045559 353.62440712 -71.18023002 351.70318621 -71.21106625 349.78214073 C-71.15456472 343.03239526 -70.52251129 338.81352103 -66.01258564 333.65117264 C-63.7534136 331.45719089 -61.40976654 329.52440538 -58.8714056 327.66045189 C-45.73266407 317.11670252 -45.73266407 317.11670252 -39.95171261 301.79479027 C-39.07393615 291.58649131 -39.56199522 281.32844679 -40.45343685 271.13701439 C-41.36053402 271.16843529 -41.36053402 271.16843529 -42.28595638 271.20049095 C-45.04994457 271.28410384 -47.81366598 271.33581493 -50.57843685 271.38701439 C-51.52976498 271.42053001 -52.4810931 271.45404564 -53.46124935 271.48857689 C-59.30122598 271.56968768 -62.94964662 271.26198115 -67.45343685 267.13701439 C-70.45525538 263.07884897 -70.84324481 260.08858953 -70.88922787 255.08696556 C-70.90434162 254.05176025 -70.90434162 254.05176025 -70.9197607 252.99564171 C-70.948159 250.72358878 -70.95411323 248.45220229 -70.9573431 246.17998314 C-70.96699103 244.59203384 -70.97708401 243.00408719 -70.98760128 241.41614342 C-71.00554307 238.08988328 -71.01112446 234.76385659 -71.00934505 231.4375515 C-71.00904056 227.19038144 -71.04996631 222.94472033 -71.10166168 218.69790745 C-71.13514281 215.41801748 -71.14109905 212.13848752 -71.13951588 208.85844421 C-71.14303925 207.29362164 -71.15621477 205.72878807 -71.17951298 204.16413498 C-71.38196852 189.16170182 -71.38196852 189.16170182 -66.50304317 183.82196617 C-64.08494026 181.83407865 -61.53499984 180.2054526 -58.89337826 178.52617455 C-50.49390915 172.83253878 -43.20197146 166.38540848 -40.73808956 156.17160606 C-37.96481709 138.76540418 -39.07494469 120.55962982 -39.63414598 102.98805547 C-39.9279839 93.6636819 -40.0618741 84.33658421 -40.17956638 75.00852966 C-40.18832967 74.31842595 -40.19709296 73.62832225 -40.2061218 72.9173063 C-40.22356474 71.53981938 -40.24069173 70.16232843 -40.25749457 68.78483355 C-40.31850913 64.16320287 -40.44054544 59.54567583 -40.58243465 54.92568016 C-41.04508028 36.9904552 -39.6191115 24.93678908 -26.8714056 11.46513939 C-19.63623023 4.63485218 -9.95710617 0.02408513 0 0 Z M-5.26593685 34.57451439 C-9.7396677 39.81517053 -10.58109286 43.75952991 -10.57128048 50.5058651 C-10.57239834 51.5697747 -10.5735162 52.63368431 -10.57466793 53.7298336 C-10.57099712 54.88683266 -10.56732632 56.04383171 -10.56354427 57.23589134 C-10.56408689 59.77774621 -10.56467388 62.31960107 -10.56529903 64.86145592 C-10.56397135 66.22131232 -10.56252684 67.58116862 -10.56097126 68.94102478 C-10.55732924 73.15687821 -10.56649722 77.37264241 -10.57875729 81.58847618 C-10.58077922 82.30114295 -10.58280115 83.01380972 -10.58488435 83.74807245 C-10.58905275 85.20508458 -10.5932555 86.66209662 -10.59749186 88.11910856 C-10.62559803 97.92875977 -10.64577085 107.73821584 -10.62848568 117.54790306 C-10.61690898 124.17225117 -10.6265717 130.79619675 -10.66054326 137.4204728 C-10.67765698 140.92192911 -10.68405041 144.42265909 -10.66442585 147.92411804 C-10.64271432 151.83308576 -10.66772314 155.74101514 -10.69635677 159.64995384 C-10.68256481 160.8008802 -10.66877285 161.95180656 -10.65456295 163.13760948 C-10.75942145 170.52718427 -12.16281374 174.88576267 -17.45343685 180.13701439 C-20.24591732 182.5535183 -20.24591732 182.5535183 -23.07062435 184.61357689 C-35.33485463 194.16787769 -35.33485463 194.16787769 -41.51642513 207.9207058 C-42.72563809 218.94484627 -41.73627327 230.15953859 -40.45343685 241.13701439 C-39.84346859 241.15159691 -39.23350033 241.16617943 -38.60504818 241.18120384 C-35.82472621 241.25596214 -33.04556861 241.35252921 -30.26593685 241.44951439 C-28.8263763 241.48335228 -28.8263763 241.48335228 -27.35773373 241.51787376 C-18.17035916 241.86756622 -18.17035916 241.86756622 -14.45343685 245.13701439 C-11.46043464 249.20003367 -11.06361087 252.18739926 -11.01764584 257.18706322 C-11.00757 257.87720009 -10.99749416 258.56733696 -10.987113 259.27838707 C-10.9587147 261.55044 -10.95276047 263.82182649 -10.9495306 266.09404564 C-10.93988268 267.68199494 -10.92978969 269.26994158 -10.91927242 270.85788536 C-10.90133063 274.1841455 -10.89574924 277.51017219 -10.89752865 280.83647728 C-10.89783314 285.08364734 -10.8569074 289.32930845 -10.80521202 293.57612133 C-10.77173089 296.85601129 -10.76577466 300.13554126 -10.76735783 303.41558456 C-10.76383445 304.98040714 -10.75065893 306.54524071 -10.72736073 308.1098938 C-10.52508362 323.09910446 -10.52508362 323.09910446 -15.40355587 328.4317379 C-17.83060789 330.45077939 -20.38738371 332.16154387 -23.01569271 333.91045189 C-31.13113286 339.60405283 -38.6143258 345.97993712 -41.17271328 355.93614769 C-44.0497852 372.71194293 -42.7863719 390.2321395 -42.14929867 407.15434837 C-41.92647137 413.80877714 -41.8483103 420.46404327 -41.75226498 427.12138939 C-41.58646485 436.83068372 -41.38134148 446.53745529 -41.04547787 456.24248314 C-41.01653439 457.24716637 -40.9875909 458.25184959 -40.95777035 459.28697777 C-40.61433762 468.83373374 -40.61433762 468.83373374 -36.01593685 476.94951439 C-30.64272835 481.53639969 -26.6146522 482.26076504 -19.70401859 482.26564884 C-18.5488597 482.26887329 -17.39370081 482.27209773 -16.20353711 482.27541989 C-14.30652627 482.27309699 -14.30652627 482.27309699 -12.37119198 482.27072716 C-11.01068079 482.27259568 -9.65017014 482.27489655 -8.28966033 482.27759248 C-4.55194588 482.28371171 -0.81425379 482.28357674 2.92346454 482.2823981 C6.95490823 482.28219413 10.98634473 482.28771252 15.01778507 482.29245567 C22.91560951 482.30076333 30.81342649 482.30351056 38.71125494 482.30406805 C45.13031836 482.30454313 51.54937932 482.30659748 57.96844196 482.30976868 C76.1648272 482.31857536 94.36120654 482.323188 112.55759393 482.3224382 C113.53863639 482.32239825 114.51967885 482.32235829 115.53044987 482.32231712 C116.51268906 482.32227624 117.49492826 482.32223536 118.50693227 482.32219324 C134.42895026 482.32178671 150.35094461 482.33135808 166.27295576 482.34545549 C182.61877891 482.35981405 198.96459053 482.36672597 215.31042016 482.36586171 C224.48849843 482.36552958 233.66655192 482.368284 242.84462452 482.37903976 C250.65831089 482.38813789 258.47196123 482.39032566 266.2856506 482.38353034 C270.27230234 482.38026173 274.25888493 482.38022075 278.24553013 482.38888359 C281.89600692 482.3967344 285.54635956 482.39533174 289.19683327 482.38659946 C291.1409514 482.38433344 293.08507334 482.39190424 295.02917659 482.3998391 C305.46764888 482.52162188 305.46764888 482.52162188 314.35906315 477.69951439 C319.35129529 471.85147102 319.67104531 467.47371131 319.6751976 459.95079803 C319.67782716 458.87654942 319.67782716 458.87654942 319.68050984 457.78059882 C319.68517165 455.37441118 319.68270387 452.96828391 319.68027592 450.56209373 C319.68214379 448.82210105 319.6844444 447.08210879 319.68714124 445.34211719 C319.69326846 440.5554593 319.69312456 435.76881886 319.69194686 430.98215795 C319.69174309 425.82187012 319.69725935 420.66158793 319.70200443 415.50130272 C319.71031646 405.38963948 319.71305952 395.27798206 319.71361681 385.16631569 C319.71409168 376.9490066 319.71614499 368.73169943 319.71931744 360.51439095 C319.7281253 337.22695337 319.73273657 313.9395204 319.73198696 290.65208115 C319.73194701 289.39623509 319.73190705 288.14038904 319.73186588 286.84648705 C319.731825 285.58911129 319.73178412 284.33173554 319.731742 283.03625749 C319.73133543 262.65233847 319.74090741 242.26843792 319.75500425 221.88452424 C319.76935799 200.96441126 319.776275 180.04430729 319.77541047 159.12418926 C319.77507817 147.37511088 319.77783985 135.62605187 319.78858852 123.87697792 C319.79768032 113.8747454 319.79987964 103.87254101 319.7930791 93.87030615 C319.78980729 88.76571283 319.78978102 83.66117354 319.79843235 78.55658531 C319.80626904 73.88468431 319.80489499 69.21288042 319.79614822 64.54098187 C319.79460698 62.84990045 319.79645277 61.15881188 319.80200829 59.46773888 C319.8090575 57.17001249 319.8037834 54.87262778 319.79545212 52.57491302 C319.79566949 51.2983456 319.79588685 50.02177817 319.79611081 48.70652688 C319.42352228 43.37704637 318.64096011 39.39978011 315.10906315 35.32451439 C309.90115485 30.87873901 305.97038565 30.01359503 299.26566601 30.00837994 C298.21500898 30.00515549 297.16435196 30.00193104 296.08185685 29.99860889 C294.9339114 30.00015749 293.78596596 30.00170609 292.60323429 30.00330162 C291.37883542 30.00103606 290.15443655 29.99877051 288.89293468 29.9964363 C285.49725605 29.9912 282.10163036 29.9904516 278.70595145 29.99163067 C275.04260901 29.99183474 271.37927447 29.98631537 267.71593571 29.9815731 C260.54001519 29.97326746 253.36410288 29.97051831 246.18817796 29.96996073 C240.35549896 29.96948555 234.52282268 29.96743072 228.69014454 29.9642601 C212.15388503 29.95545397 195.617632 29.95084069 179.08137013 29.95159058 C177.74422124 29.95165051 177.74422124 29.95165051 176.38005924 29.95171165 C175.48753849 29.95175254 174.59501774 29.95179342 173.67545091 29.95183554 C159.20840035 29.95224205 144.74137581 29.94267096 130.27433278 29.92857329 C115.42012582 29.91421252 100.56593156 29.90730293 85.71171749 29.90816706 C77.37200851 29.90849912 69.03232682 29.90574803 60.69262409 29.89498901 C53.59259376 29.88588798 46.49260308 29.88370551 39.39256944 29.89049844 C35.77046312 29.89376558 32.14843291 29.89381333 28.52633381 29.88514519 C24.59880697 29.8758428 20.67139152 29.88205114 16.74385929 29.88977623 C15.02863329 29.88206089 15.02863329 29.88206089 13.27875626 29.87418967 C3.25850774 29.84457718 3.25850774 29.84457718 -5.26593685 34.57451439 Z " fill="#000000" transform="translate(116.45343685150146,-0.13701438903808594)"/>
<path d="M0 0 C1.02909392 -0.00538554 2.05818785 -0.01077108 3.11846644 -0.01631981 C6.57157619 -0.03064316 10.02430497 -0.02348471 13.47743225 -0.01637268 C15.95116485 -0.02207393 18.42489481 -0.02903724 20.89862061 -0.03717041 C26.92321614 -0.05327637 32.94766162 -0.055197 38.97226398 -0.04995751 C43.86912957 -0.04591589 48.76596434 -0.04735926 53.66282845 -0.05270576 C54.35980969 -0.05345419 55.05679094 -0.05420261 55.77489283 -0.05497371 C57.19081478 -0.05650519 58.60673672 -0.05804354 60.02265865 -0.05958868 C73.30053765 -0.07331626 86.57835773 -0.06787422 99.85623539 -0.05640347 C112.00252594 -0.04647071 124.14866417 -0.05941196 136.29493123 -0.08333766 C148.76821123 -0.1077223 161.24142028 -0.11733811 173.71472365 -0.11068493 C180.71695451 -0.1071913 187.71906821 -0.1094342 194.72128105 -0.12693596 C201.30488737 -0.14318736 207.88824979 -0.13848618 214.4718647 -0.11963081 C216.88979663 -0.11593578 219.30775 -0.11907985 221.72566223 -0.1295166 C225.02325733 -0.14266502 228.31987885 -0.13123256 231.61743164 -0.11352539 C232.57706296 -0.1231304 233.53669429 -0.1327354 234.52540535 -0.14263147 C240.11729947 -0.08073703 243.53532206 0.50278067 247.87220764 4.38768005 C251.17548619 8.42024659 251.30134074 12.21361704 251.2598877 17.23764038 C251.267966 18.41376155 251.267966 18.41376155 251.27620751 19.61364275 C251.29050047 22.23761947 251.28338016 24.86109266 251.27626038 27.48509216 C251.28196325 29.36770025 251.28892718 31.25030488 251.29705811 33.13290405 C251.31501376 38.24446785 251.3138166 43.35586021 251.30811572 48.46744609 C251.30502736 52.73445263 251.31111239 57.00142607 251.31715447 61.26842791 C251.33120598 71.33449238 251.32963317 81.400472 251.31825256 91.46653748 C251.30677029 101.85204454 251.32084749 112.2372934 251.34764904 122.62276644 C251.36979828 131.53925392 251.37644517 140.45566032 251.37057263 149.37217337 C251.36720005 154.69768141 251.36963816 160.02302392 251.38682365 165.34850883 C251.40227831 170.3562798 251.3983536 175.36366796 251.37951851 180.37142372 C251.37582855 182.20883485 251.37895294 184.04627425 251.3894043 185.88365936 C251.40258829 188.39312723 251.39109049 190.90132293 251.37341309 193.41073608 C251.38301809 194.13691051 251.3926231 194.86308493 251.40251917 195.61126465 C251.32935215 200.66343245 250.12788268 203.55004401 246.87220764 207.38768005 C242.3735878 211.32053767 237.41739215 210.81080682 231.74441528 210.77536011 C230.2007744 210.78343841 230.2007744 210.78343841 228.62594885 210.79167992 C225.17283909 210.80600326 221.72011031 210.79884482 218.26698303 210.79173279 C215.79325044 210.79743404 213.31952047 210.80439735 210.84579468 210.81253052 C204.82119915 210.82863648 198.79675366 210.8305571 192.7721513 210.82531761 C187.87528572 210.82127599 182.97845095 210.82271937 178.08158684 210.82806587 C177.38460559 210.82881429 176.68762435 210.82956272 175.96952246 210.83033382 C174.55360051 210.8318653 173.13767856 210.83340364 171.72175663 210.83494879 C158.44387763 210.84867636 145.16605755 210.84323433 131.88817989 210.83176357 C119.74188934 210.82183082 107.59575111 210.83477207 95.44948406 210.85869776 C82.97620405 210.88308241 70.50299501 210.89269821 58.02969164 210.88604504 C51.02746078 210.88255141 44.02534707 210.88479431 37.02313423 210.90229607 C30.43952791 210.91854747 23.8561655 210.91384629 17.27255058 210.89499092 C14.85461865 210.89129589 12.43666528 210.89443996 10.01875305 210.90487671 C6.72115796 210.91802513 3.42453643 210.90659267 0.12698364 210.8888855 C-1.31246334 210.90329301 -1.31246334 210.90329301 -2.78099006 210.91799158 C-8.37288418 210.85609713 -11.79090678 210.27257944 -16.12779236 206.38768005 C-19.4310709 202.35511352 -19.55692545 198.56174307 -19.51547241 193.53771973 C-19.52085795 192.75363894 -19.52624349 191.96955816 -19.53179222 191.16171736 C-19.54608518 188.53774064 -19.53896488 185.91426745 -19.53184509 183.29026794 C-19.53754796 181.40765985 -19.5445119 179.52505522 -19.55264282 177.64245605 C-19.57059848 172.53089226 -19.56940131 167.4194999 -19.56370044 162.30791402 C-19.56061208 158.04090748 -19.5666971 153.77393403 -19.57273918 149.5069322 C-19.5867907 139.44086772 -19.58521788 129.37488811 -19.57383728 119.30882263 C-19.562355 108.92331557 -19.57643221 98.53806671 -19.60323375 88.15259367 C-19.625383 79.23610618 -19.63202989 70.31969979 -19.62615734 61.40318674 C-19.62278477 56.0776787 -19.62522287 50.75233619 -19.64240837 45.42685127 C-19.65786302 40.4190803 -19.65393832 35.41169215 -19.63510323 30.40393639 C-19.63141326 28.56652526 -19.63453765 26.72908586 -19.64498901 24.89170074 C-19.65817301 22.38223288 -19.64667521 19.87403718 -19.6289978 17.36462402 C-19.64340531 16.27536239 -19.64340531 16.27536239 -19.65810388 15.16409546 C-19.58493686 10.11192766 -18.3834674 7.2253161 -15.12779236 3.38768005 C-10.62917252 -0.54517757 -5.67297687 -0.03544671 0 0 Z M10.87220764 30.38768005 C10.87220764 79.88768005 10.87220764 129.38768005 10.87220764 180.38768005 C80.17220764 180.38768005 149.47220764 180.38768005 220.87220764 180.38768005 C220.87220764 130.88768005 220.87220764 81.38768005 220.87220764 30.38768005 C151.57220764 30.38768005 82.27220764 30.38768005 10.87220764 30.38768005 Z " fill="#000000" transform="translate(155.12779235839844,240.61231994628906)"/>
<path d="M0 0 C4.60168335 2.17974474 6.78413871 4.4746682 9 9 C9.38768005 12.33226013 9.38768005 12.33226013 9.40405273 16.17358398 C9.41091599 16.87668701 9.41777924 17.57979004 9.42485046 18.30419922 C9.44308683 20.61837202 9.43928568 22.93186481 9.43359375 25.24609375 C9.43815719 26.86125406 9.44346325 28.47641243 9.44947815 30.09156799 C9.45840309 33.47331643 9.45599338 36.85482863 9.44604492 40.23657227 C9.43455763 44.56209558 9.45476553 48.88680223 9.48396206 53.21221828 C9.50234246 56.5469121 9.50202795 59.88141088 9.49632454 63.21614265 C9.49617154 64.81048795 9.50219828 66.40484665 9.51461601 67.9991436 C9.52955941 70.23228477 9.51882651 72.46392601 9.50170898 74.69702148 C9.50154282 75.96545395 9.50137665 77.23388641 9.50120544 78.54075623 C8.77187024 83.5745169 6.61006804 86.74948739 2.62109375 89.84765625 C-2.12829103 91.93568681 -6.92248151 91.61920957 -12 91 C-16.60168335 88.82025526 -18.78413871 86.5253318 -21 82 C-21.38768005 78.66773987 -21.38768005 78.66773987 -21.40405273 74.82641602 C-21.41091599 74.12331299 -21.41777924 73.42020996 -21.42485046 72.69580078 C-21.44308683 70.38162798 -21.43928568 68.06813519 -21.43359375 65.75390625 C-21.43815719 64.13874594 -21.44346325 62.52358757 -21.44947815 60.90843201 C-21.45840309 57.52668357 -21.45599338 54.14517137 -21.44604492 50.76342773 C-21.43455763 46.43790442 -21.45476553 42.11319777 -21.48396206 37.78778172 C-21.50234246 34.4530879 -21.50202795 31.11858912 -21.49632454 27.78385735 C-21.49617154 26.18951205 -21.50219828 24.59515335 -21.51461601 23.0008564 C-21.52955941 20.76771523 -21.51882651 18.53607399 -21.50170898 16.30297852 C-21.50154282 15.03454605 -21.50137665 13.76611359 -21.50120544 12.45924377 C-20.77187024 7.4254831 -18.61006804 4.25051261 -14.62109375 1.15234375 C-9.87170897 -0.93568681 -5.07751849 -0.61920957 0 0 Z " fill="#000000" transform="translate(367,60)"/>
<path d="M0 0 C4.60168335 2.17974474 6.78413871 4.4746682 9 9 C9.38768005 12.33226013 9.38768005 12.33226013 9.40405273 16.17358398 C9.41091599 16.87668701 9.41777924 17.57979004 9.42485046 18.30419922 C9.44308683 20.61837202 9.43928568 22.93186481 9.43359375 25.24609375 C9.43815719 26.86125406 9.44346325 28.47641243 9.44947815 30.09156799 C9.45840309 33.47331643 9.45599338 36.85482863 9.44604492 40.23657227 C9.43455763 44.56209558 9.45476553 48.88680223 9.48396206 53.21221828 C9.50234246 56.5469121 9.50202795 59.88141088 9.49632454 63.21614265 C9.49617154 64.81048795 9.50219828 66.40484665 9.51461601 67.9991436 C9.52955941 70.23228477 9.51882651 72.46392601 9.50170898 74.69702148 C9.50154282 75.96545395 9.50137665 77.23388641 9.50120544 78.54075623 C8.77187024 83.5745169 6.61006804 86.74948739 2.62109375 89.84765625 C-2.12829103 91.93568681 -6.92248151 91.61920957 -12 91 C-16.60168335 88.82025526 -18.78413871 86.5253318 -21 82 C-21.38768005 78.66773987 -21.38768005 78.66773987 -21.40405273 74.82641602 C-21.41091599 74.12331299 -21.41777924 73.42020996 -21.42485046 72.69580078 C-21.44308683 70.38162798 -21.43928568 68.06813519 -21.43359375 65.75390625 C-21.43815719 64.13874594 -21.44346325 62.52358757 -21.44947815 60.90843201 C-21.45840309 57.52668357 -21.45599338 54.14517137 -21.44604492 50.76342773 C-21.43455763 46.43790442 -21.45476553 42.11319777 -21.48396206 37.78778172 C-21.50234246 34.4530879 -21.50202795 31.11858912 -21.49632454 27.78385735 C-21.49617154 26.18951205 -21.50219828 24.59515335 -21.51461601 23.0008564 C-21.52955941 20.76771523 -21.51882651 18.53607399 -21.50170898 16.30297852 C-21.50154282 15.03454605 -21.50137665 13.76611359 -21.50120544 12.45924377 C-20.77187024 7.4254831 -18.61006804 4.25051261 -14.62109375 1.15234375 C-9.87170897 -0.93568681 -5.07751849 -0.61920957 0 0 Z " fill="#000000" transform="translate(277,60)"/>
<path d="M0 0 C4.60168335 2.17974474 6.78413871 4.4746682 9 9 C9.38768005 12.33226013 9.38768005 12.33226013 9.40405273 16.17358398 C9.41091599 16.87668701 9.41777924 17.57979004 9.42485046 18.30419922 C9.44308683 20.61837202 9.43928568 22.93186481 9.43359375 25.24609375 C9.43815719 26.86125406 9.44346325 28.47641243 9.44947815 30.09156799 C9.45840309 33.47331643 9.45599338 36.85482863 9.44604492 40.23657227 C9.43455763 44.56209558 9.45476553 48.88680223 9.48396206 53.21221828 C9.50234246 56.5469121 9.50202795 59.88141088 9.49632454 63.21614265 C9.49617154 64.81048795 9.50219828 66.40484665 9.51461601 67.9991436 C9.52955941 70.23228477 9.51882651 72.46392601 9.50170898 74.69702148 C9.50154282 75.96545395 9.50137665 77.23388641 9.50120544 78.54075623 C8.77187024 83.5745169 6.61006804 86.74948739 2.62109375 89.84765625 C-2.12829103 91.93568681 -6.92248151 91.61920957 -12 91 C-16.60168335 88.82025526 -18.78413871 86.5253318 -21 82 C-21.38768005 78.66773987 -21.38768005 78.66773987 -21.40405273 74.82641602 C-21.41091599 74.12331299 -21.41777924 73.42020996 -21.42485046 72.69580078 C-21.44308683 70.38162798 -21.43928568 68.06813519 -21.43359375 65.75390625 C-21.43815719 64.13874594 -21.44346325 62.52358757 -21.44947815 60.90843201 C-21.45840309 57.52668357 -21.45599338 54.14517137 -21.44604492 50.76342773 C-21.43455763 46.43790442 -21.45476553 42.11319777 -21.48396206 37.78778172 C-21.50234246 34.4530879 -21.50202795 31.11858912 -21.49632454 27.78385735 C-21.49617154 26.18951205 -21.50219828 24.59515335 -21.51461601 23.0008564 C-21.52955941 20.76771523 -21.51882651 18.53607399 -21.50170898 16.30297852 C-21.50154282 15.03454605 -21.50137665 13.76611359 -21.50120544 12.45924377 C-20.77187024 7.4254831 -18.61006804 4.25051261 -14.62109375 1.15234375 C-9.87170897 -0.93568681 -5.07751849 -0.61920957 0 0 Z " fill="#000000" transform="translate(187,60)"/>
</svg>
