<svg width="17" height="15" viewBox="0 0 17 15" fill="none" xmlns="http://www.w3.org/2000/svg">
<path d="M6.22224 3.52103C6.27123 3.51924 6.32022 3.51746 6.37069 3.51562C6.59083 3.55715 6.69197 3.64464 6.85073 3.79594C6.96194 3.98298 6.96194 3.98298 7.06295 4.21224C7.09109 4.27561 7.09109 4.27561 7.11981 4.34025C7.2437 4.62736 7.35088 4.91865 7.45396 5.21323C7.47915 5.28519 7.50434 5.35715 7.53029 5.4313C7.57965 5.57418 7.62803 5.71738 7.6753 5.86091C7.92841 6.60115 8.29687 7.0466 9.00554 7.44055C9.3367 7.57845 9.67431 7.68798 10.0176 7.79401C11.6643 8.31091 11.6643 8.31091 11.9439 8.76015C11.9897 9.10717 11.9897 9.10717 11.9439 9.26285C11.4122 9.87392 10.4406 10.0961 9.67793 10.3301C8.90716 10.574 8.30136 10.9223 7.90059 11.6168C7.69107 12.0315 7.55645 12.476 7.4078 12.9133C6.94918 14.2281 6.94918 14.2281 6.52424 14.4784C6.38166 14.5079 6.38166 14.5079 6.23449 14.5098C6.16189 14.5127 6.16189 14.5127 6.08782 14.5157C5.85321 14.4578 5.76231 14.3435 5.61008 14.1642C5.50904 13.9878 5.43038 13.8053 5.35298 13.6183C5.33069 13.5662 5.3084 13.514 5.28543 13.4603C5.13412 13.1 5.00306 12.7353 4.87957 12.3655C4.62806 11.6171 4.30975 10.9968 3.55552 10.6166C3.09882 10.404 2.61828 10.261 2.13683 10.1101C0.851445 9.69651 0.851445 9.69651 0.594727 9.35896C0.489152 9.14334 0.486275 8.99592 0.5169 8.76015C0.699045 8.49137 0.881296 8.37365 1.18211 8.24173C1.24375 8.21465 1.24375 8.21465 1.30664 8.18701C1.79314 7.97997 2.29766 7.81504 2.80171 7.65244C3.55305 7.40368 4.13939 7.09869 4.56533 6.43514C4.73196 6.09777 4.84948 5.74776 4.96578 5.39193C5.1116 4.9505 5.27426 4.53689 5.48765 4.12191C5.50965 4.07867 5.53164 4.03543 5.5543 3.99088C5.72001 3.67839 5.84888 3.52716 6.22224 3.52103Z" fill="#68728C"/>
<path d="M12.2046 0.515625C12.4941 0.654816 12.6162 0.904087 12.7179 1.18663C12.7737 1.34752 12.8275 1.50879 12.8795 1.67085C13.0153 2.05772 13.176 2.29466 13.5421 2.50929C13.7656 2.61358 13.9939 2.69763 14.2275 2.77859C14.3465 2.82059 14.4652 2.86302 14.5838 2.90596C14.6358 2.92405 14.6878 2.94214 14.7414 2.96077C14.8901 3.02862 14.9762 3.09461 15.0801 3.21672C15.1178 3.37348 15.1178 3.37348 15.0801 3.53828C14.7277 3.80537 14.3329 3.92985 13.9129 4.06998C13.505 4.21367 13.1995 4.40081 13.0071 4.79235C12.9857 4.83579 12.9643 4.87923 12.9423 4.92399C12.8269 5.18799 12.7274 5.4577 12.6288 5.72789C12.5325 5.93153 12.4627 6.04684 12.2715 6.17506C12.0695 6.18937 12.0695 6.18937 11.8702 6.11074C11.7648 5.94354 11.6941 5.80459 11.6236 5.62439C11.6048 5.57991 11.586 5.53543 11.5666 5.48961C11.4913 5.31016 11.4178 5.13215 11.3602 4.94663C11.2433 4.5875 11.0667 4.38088 10.7334 4.18139C10.5223 4.08751 10.3069 4.0164 10.0856 3.94826C9.38959 3.7308 9.38959 3.7308 9.19531 3.47396C9.19531 3.30916 9.19531 3.30916 9.26219 3.15241C9.438 3.00621 9.60292 2.92265 9.82199 2.8512C9.87694 2.83267 9.9319 2.81414 9.98852 2.79505C10.1031 2.75738 10.2176 2.71987 10.3323 2.6825C10.7128 2.55385 11.027 2.44304 11.2287 2.08523C11.2528 2.02355 11.2769 1.96187 11.3018 1.89833C11.3431 1.79698 11.3431 1.79698 11.3851 1.69358C11.4267 1.58801 11.4267 1.58801 11.469 1.4803C11.5253 1.33931 11.5824 1.19861 11.6404 1.05826C11.6653 0.99583 11.6902 0.933405 11.7159 0.869088C11.8276 0.664098 11.9519 0.515625 12.2046 0.515625Z" fill="#68728C" fill-opacity="0.65"/>
<path d="M15.0449 5.18164C15.1657 5.18643 15.1657 5.18643 15.2978 5.24982C15.3915 5.45189 15.4544 5.65808 15.5229 5.87145C15.631 6.10461 15.7146 6.16216 15.9302 6.27256C16.0072 6.31198 16.0072 6.31198 16.0856 6.35219C16.1594 6.3866 16.1594 6.3866 16.2346 6.42171C16.2846 6.44518 16.3345 6.46864 16.386 6.49282C16.4234 6.51013 16.4609 6.52745 16.4994 6.54529C16.4908 6.70589 16.4908 6.70589 16.4362 6.8862C16.2729 6.97489 16.2729 6.97489 16.0686 7.04387C15.7217 7.18274 15.7217 7.18274 15.5152 7.49558C15.4834 7.58732 15.453 7.67966 15.4243 7.77257C15.3611 7.90894 15.2978 8.0453 15.2346 8.18167C15.0864 8.17261 15.0864 8.17261 14.9184 8.11348C14.8294 7.93504 14.8294 7.93504 14.7603 7.71291C14.6644 7.39848 14.6644 7.39848 14.451 7.17305C14.2655 7.08052 14.0812 7.01337 13.8858 6.95039C13.78 6.8862 13.78 6.8862 13.7336 6.74318C13.7281 6.70037 13.7225 6.65757 13.7168 6.61347C13.8848 6.45594 14.0546 6.36733 14.2583 6.27682C14.6661 6.08428 14.7591 5.80921 14.9268 5.38113C14.9816 5.24982 14.9816 5.24982 15.0449 5.18164Z" fill="#68728C" fill-opacity="0.5"/>
</svg>
