<?xml version="1.0" encoding="UTF-8"?>
<svg version="1.1" xmlns="http://www.w3.org/2000/svg" width="512" height="512">
<path d="M0 0 C1.01335515 -0.00694553 2.0267103 -0.01389106 3.07077318 -0.02104706 C6.44695099 -0.03925964 9.82242156 -0.0290684 13.19862366 -0.01878357 C15.62705 -0.0258449 18.05547195 -0.03459081 20.48388672 -0.04489136 C26.38361899 -0.06503839 32.28317327 -0.06641894 38.18291777 -0.05826581 C42.98050049 -0.05195254 47.77802706 -0.05311497 52.57560921 -0.05953789 C53.25979216 -0.06043954 53.94397511 -0.0613412 54.64889087 -0.06227018 C56.03903577 -0.06412148 57.42918065 -0.06598404 58.81932551 -0.06785773 C71.83983944 -0.0844167 84.86024483 -0.07573329 97.88075221 -0.05887216 C109.77839463 -0.04417731 121.67578446 -0.0588038 133.57339435 -0.08764232 C145.80726934 -0.11707375 158.04102791 -0.12799768 170.27493674 -0.11846012 C171.66012384 -0.11743763 173.04531097 -0.11644301 174.43049812 -0.11547661 C175.11193546 -0.11500022 175.79337279 -0.11452383 176.49545975 -0.114033 C181.2834048 -0.11187378 186.07123899 -0.12164662 190.85915947 -0.13624763 C197.31155187 -0.15565107 203.76358993 -0.14862789 210.21596718 -0.12404823 C212.58061871 -0.11904502 214.94530606 -0.12251727 217.30992889 -0.13519669 C220.54480193 -0.15116706 223.77813815 -0.13613707 227.01293945 -0.11352539 C228.40747098 -0.13127898 228.40747098 -0.13127898 229.83017486 -0.14939123 C238.33729011 -0.02906487 245.07465309 3.10769437 251.44496155 8.7021637 C258.30593185 16.20867159 259.1433116 24.86454302 258.81996155 34.6396637 C258.80191467 35.6915387 258.7838678 36.7434137 258.76527405 37.8271637 C258.71866506 40.39065792 258.65326424 42.95214464 258.56996155 45.5146637 C259.4950502 45.49800911 259.4950502 45.49800911 260.43882751 45.48101807 C266.89580201 45.36983685 273.35250173 45.29475399 279.81019592 45.24000549 C282.21558184 45.21496285 284.62089244 45.18091869 287.02601624 45.13746643 C290.49658361 45.07636489 293.96613927 45.04835007 297.43714905 45.02638245 C298.50109894 45.00057602 299.56504883 44.97476959 300.66123962 44.94818115 C307.92423583 44.94549283 313.55819665 46.29725876 319.56996155 50.5146637 C326.55973508 57.97669294 326.83632036 64.57887485 326.9200592 74.43629456 C326.93651695 75.85117661 326.9636711 77.26597909 327.00209045 78.68043518 C327.24039025 87.51721327 326.98925818 95.13537561 321.56996155 102.5146637 C314.25384018 109.57755818 305.85429665 109.80652226 296.1676178 109.7099762 C295.08991623 109.7071463 294.01221466 109.70431641 292.90185547 109.70140076 C289.47860856 109.69025563 286.05562864 109.66516125 282.63246155 109.6396637 C280.3036893 109.62962658 277.97491293 109.62050201 275.64613342 109.61231995 C269.9538919 109.59204121 264.26222364 109.55288105 258.56996155 109.5146637 C258.56996155 118.0946637 258.56996155 126.6746637 258.56996155 135.5146637 C262.30308655 135.45665588 266.03621155 135.39864807 269.88246155 135.33888245 C273.51313657 135.29984669 277.14378788 135.26951046 280.77455139 135.24000549 C283.29060901 135.21491937 285.80659418 135.18084244 288.32240295 135.13746643 C291.94677141 135.0765587 295.57017323 135.04839349 299.19496155 135.02638245 C300.31298157 135.00057602 301.43100159 134.97476959 302.582901 134.94818115 C310.43425305 134.94538519 315.42834996 136.47953237 321.08753967 141.9932251 C327.23896323 148.88792262 326.94258627 155.95467029 326.94056702 164.69703674 C326.944928 166.81090133 326.98125021 168.92265391 327.0191803 171.03614807 C327.0922982 179.66036319 326.63266021 185.80665944 320.8238678 192.5381012 C320.26570374 192.98411682 319.70753967 193.43013245 319.13246155 193.8896637 C318.57687561 194.35114807 318.02128967 194.81263245 317.4488678 195.2881012 C313.47046312 197.88523024 309.94936365 198.76468512 305.22889709 198.74171448 C303.66784492 198.74148788 303.66784492 198.74148788 302.07525635 198.74125671 C300.4078112 198.72577286 300.4078112 198.72577286 298.7066803 198.7099762 C297.5595607 198.7071463 296.4124411 198.70431641 295.2305603 198.70140076 C291.57275387 198.69022066 287.91519377 198.66511965 284.25746155 198.6396637 C281.77504321 198.62963111 279.29262103 198.62050574 276.81019592 198.61231995 C270.72994692 198.59199146 264.65022945 198.55283768 258.56996155 198.5146637 C258.56996155 207.0946637 258.56996155 215.6746637 258.56996155 224.5146637 C262.08652405 224.47985901 265.60308655 224.44505432 269.22621155 224.40919495 C272.64840382 224.38576964 276.07058701 224.36756994 279.49281311 224.34986877 C281.86329678 224.33482271 284.2337528 224.31438097 286.60414124 224.28834534 C290.01990095 224.25177864 293.43529117 224.23489501 296.85121155 224.22169495 C297.90361023 224.20621109 298.95600891 224.19072723 300.04029846 224.17477417 C307.78475178 224.17302009 313.23202534 225.33216695 319.81996155 229.6396637 C327.27748218 237.43616254 327.19175041 246.16261037 327.06996155 256.5146637 C327.0854303 257.82950745 327.10089905 259.1443512 327.11683655 260.4990387 C327.08275637 268.98500196 326.53267145 276.15889148 320.64027405 282.63575745 C319.99832092 283.07017151 319.3563678 283.50458557 318.69496155 283.9521637 C318.05816467 284.40462463 317.4213678 284.85708557 316.76527405 285.32325745 C310.26356314 288.85176603 304.26600808 288.78010149 297.04652405 288.7099762 C295.94521149 288.7071463 294.84389893 288.70431641 293.70921326 288.70140076 C290.20435047 288.69023848 286.69974663 288.66514081 283.19496155 288.6396637 C280.81345483 288.6296288 278.43194409 288.62050384 276.0504303 288.61231995 C270.22342823 288.5920168 264.39698352 288.55285976 258.56996155 288.5146637 C258.56996155 297.0946637 258.56996155 305.6746637 258.56996155 314.5146637 C264.0613678 314.44505432 264.0613678 314.44505432 269.66371155 314.3740387 C273.22489537 314.34280842 276.78606371 314.31854027 280.3473053 314.29493713 C282.81482313 314.27487075 285.28229369 314.24761125 287.74964905 314.21290588 C291.30445548 314.16417063 294.85863099 314.14164431 298.41371155 314.1240387 C300.05793091 314.09307098 300.05793091 314.09307098 301.73536682 314.06147766 C309.3362761 314.05927058 314.67475757 315.15335833 320.59339905 320.26075745 C321.03941467 320.81892151 321.4854303 321.37708557 321.94496155 321.9521637 C322.40644592 322.50774963 322.8679303 323.06333557 323.34339905 323.63575745 C327.42589828 329.88952219 326.94222696 336.51031153 326.94056702 343.69703674 C326.944928 345.81090133 326.98125021 347.92265391 327.0191803 350.03614807 C327.09224978 358.64714442 326.6679136 364.85953396 320.78871155 371.5381012 C320.22152405 371.98411682 319.65433655 372.43013245 319.06996155 372.8896637 C318.50277405 373.35114807 317.93558655 373.81263245 317.35121155 374.2881012 C313.56830004 376.89300079 310.87751847 377.7637473 306.25062561 377.74171448 C305.18982788 377.74156342 304.12903015 377.74141235 303.03608704 377.74125671 C301.89742188 377.73093414 300.75875671 377.72061157 299.58558655 377.7099762 C297.82949066 377.70573135 297.82949066 377.70573135 296.03791809 377.70140076 C292.2984953 377.69020525 288.55931196 377.66510145 284.81996155 377.6396637 C282.28480876 377.6296331 279.74965221 377.62050739 277.2144928 377.61231995 C270.99948256 377.59196955 264.78499012 377.55281871 258.56996155 377.5146637 C258.56996155 386.0946637 258.56996155 394.6746637 258.56996155 403.5146637 C263.7191217 403.46245667 263.7191217 403.46245667 268.9723053 403.40919495 C272.31840687 403.38575976 275.6644991 403.36756571 279.01063538 403.34986877 C281.32578157 403.33483641 283.64089955 403.314405 285.95594788 403.28834534 C289.29480479 403.25171774 292.63328325 403.23488129 295.9723053 403.22169495 C297.51035072 403.19846916 297.51035072 403.19846916 299.07946777 403.17477417 C306.57041784 403.17304273 312.77065134 404.35596471 319.31996155 408.0771637 C326.38732769 415.73347702 327.35254912 424.00766541 327.16688538 434.07423401 C327.13238441 436.14429219 327.14632404 438.21010624 327.16566467 440.2802887 C327.1560519 449.35904236 326.40313172 455.68149352 319.75746155 462.3271637 C312.28386388 467.45610327 306.63615647 467.93538445 297.7301178 467.80763245 C296.04697731 467.80126518 296.04697731 467.80126518 294.32983398 467.79476929 C290.76379388 467.77804467 287.1983294 467.74040292 283.63246155 467.7021637 C281.20733953 467.68710887 278.78220861 467.67342186 276.35707092 467.66114807 C270.42783974 467.62816147 264.49894179 467.57802377 258.56996155 467.5146637 C258.60138245 468.48121887 258.60138245 468.48121887 258.63343811 469.46730042 C258.71757153 472.44125702 258.768925 475.41496212 258.81996155 478.3896637 C258.87023499 479.90946838 258.87023499 479.90946838 258.92152405 481.4599762 C259.0263418 489.63576049 257.50713857 496.35104231 252.7457428 503.1006012 C251.82341858 503.98618713 251.82341858 503.98618713 250.88246155 504.8896637 C250.28046936 505.49552307 249.67847717 506.10138245 249.0582428 506.7256012 C242.08907515 511.73639991 235.59983554 513.1041367 227.1399231 513.02932739 C226.12656794 513.03627292 225.11321279 513.04321845 224.06914991 513.05037445 C220.6929721 513.06858703 217.31750154 513.05839579 213.94129944 513.04811096 C211.51287309 513.05517229 209.08445115 513.06391821 206.65603638 513.07421875 C200.75630411 513.09436578 194.85674983 513.09574633 188.95700533 513.08759321 C184.15942261 513.08127993 179.36189604 513.08244236 174.56431389 513.08886528 C173.88013094 513.08976694 173.19594799 513.09066859 172.49103222 513.09159757 C171.10088733 513.09344887 169.71074245 513.09531143 168.32059758 513.09718513 C155.30008366 513.1137441 142.27967826 513.10506068 129.25917088 513.08819955 C117.36152846 513.07350471 105.46413864 513.0881312 93.56652874 513.11696971 C81.33265375 513.14640115 69.09889519 513.15732507 56.86498636 513.14778751 C55.47979925 513.14676502 54.09461212 513.14577041 52.70942497 513.144804 C51.68726897 513.14408942 51.68726897 513.14408942 50.64446335 513.14336039 C45.8565183 513.14120118 41.06868411 513.15097401 36.28076363 513.16557503 C29.82837122 513.18497846 23.37633317 513.17795528 16.92395592 513.15337563 C14.55930439 513.14837241 12.19461703 513.15184466 9.8299942 513.16452408 C6.59512117 513.18049446 3.36178495 513.16546446 0.12698364 513.14285278 C-1.26754789 513.16060638 -1.26754789 513.16060638 -2.69025177 513.17871863 C-11.19736701 513.05839226 -17.93472999 509.92163302 -24.30503845 504.3271637 C-31.16600875 496.8206558 -32.0033885 488.16478437 -31.68003845 478.3896637 C-31.66199158 477.3377887 -31.6439447 476.2859137 -31.62535095 475.2021637 C-31.57874197 472.63866947 -31.51334115 470.07718275 -31.43003845 467.5146637 C-32.04676422 467.52576675 -32.66348999 467.53686981 -33.29890442 467.54830933 C-39.75587892 467.65949054 -46.21257863 467.73457341 -52.67027283 467.7893219 C-55.07565875 467.81436454 -57.48096935 467.8484087 -59.88609314 467.89186096 C-63.35666052 467.9529625 -66.82621617 467.98097732 -70.29722595 468.00294495 C-71.89315079 468.04165459 -71.89315079 468.04165459 -73.52131653 468.08114624 C-80.78431274 468.08383457 -86.41827355 466.73206863 -92.43003845 462.5146637 C-99.41981198 455.05263446 -99.69639727 448.45045255 -99.78013611 438.59303284 C-99.79659385 437.17815078 -99.82374801 435.7633483 -99.86216736 434.34889221 C-100.10046715 425.51211412 -99.84933508 417.89395178 -94.43003845 410.5146637 C-87.11391708 403.45176921 -78.71437355 403.22280513 -69.0276947 403.3193512 C-67.94999313 403.32218109 -66.87229156 403.32501099 -65.76193237 403.32792664 C-62.33868547 403.33907177 -58.91570554 403.36416614 -55.49253845 403.3896637 C-53.1637662 403.39970081 -50.83498983 403.40882538 -48.50621033 403.41700745 C-42.81396881 403.43728618 -37.12230054 403.47644635 -31.43003845 403.5146637 C-31.43003845 394.9346637 -31.43003845 386.3546637 -31.43003845 377.5146637 C-35.16316345 377.57267151 -38.89628845 377.63067932 -42.74253845 377.69044495 C-46.37321347 377.7294807 -50.00386478 377.75981693 -53.6346283 377.7893219 C-56.15068592 377.81440803 -58.66667108 377.84848495 -61.18247986 377.89186096 C-64.80684832 377.9527687 -68.43025014 377.9809339 -72.05503845 378.00294495 C-73.17305847 378.02875137 -74.29107849 378.0545578 -75.44297791 378.08114624 C-83.29432996 378.0839422 -88.28842687 376.54979502 -93.94761658 371.03610229 C-100.09904014 364.14140477 -99.80266318 357.0746571 -99.80064392 348.33229065 C-99.8050049 346.21842607 -99.84132711 344.10667348 -99.8792572 341.99317932 C-99.9523751 333.3689642 -99.49273711 327.22266796 -93.6839447 320.4912262 C-93.12578064 320.04521057 -92.56761658 319.59919495 -91.99253845 319.1396637 C-91.15915955 318.44743713 -91.15915955 318.44743713 -90.3089447 317.7412262 C-86.33054003 315.14409716 -82.80944055 314.26464227 -78.088974 314.28761292 C-76.52792183 314.28783951 -76.52792183 314.28783951 -74.93533325 314.28807068 C-73.26788811 314.30355453 -73.26788811 314.30355453 -71.5667572 314.3193512 C-70.4196376 314.32218109 -69.27251801 314.32501099 -68.09063721 314.32792664 C-64.43283078 314.33910673 -60.77527068 314.36420774 -57.11753845 314.3896637 C-54.63512012 314.39969628 -52.15269794 314.40882165 -49.67027283 314.41700745 C-43.59002383 314.43733593 -37.51030635 314.47648971 -31.43003845 314.5146637 C-31.43003845 305.9346637 -31.43003845 297.3546637 -31.43003845 288.5146637 C-34.94660095 288.54946838 -38.46316345 288.58427307 -42.08628845 288.62013245 C-45.50848072 288.64355775 -48.93066391 288.66175745 -52.35289001 288.67945862 C-54.72337368 288.69450469 -57.0938297 288.71494643 -59.46421814 288.74098206 C-62.87997785 288.77754875 -66.29536807 288.79443238 -69.71128845 288.80763245 C-70.76368713 288.8231163 -71.81608582 288.83860016 -72.90037537 288.85455322 C-80.64482869 288.8563073 -86.09210225 287.69716045 -92.68003845 283.3896637 C-100.13755908 275.59316486 -100.05182731 266.86671703 -99.93003845 256.5146637 C-99.9455072 255.19981995 -99.96097595 253.8849762 -99.97691345 252.5302887 C-99.94283328 244.04432543 -99.39274835 236.87043591 -93.50035095 230.39356995 C-92.53742126 229.74194885 -92.53742126 229.74194885 -91.55503845 229.0771637 C-90.91824158 228.62470276 -90.2814447 228.17224182 -89.62535095 227.70606995 C-83.12364004 224.17756136 -77.12608498 224.24922591 -69.90660095 224.3193512 C-68.80528839 224.32218109 -67.70397583 224.32501099 -66.56929016 224.32792664 C-63.06442737 224.33908892 -59.55982354 224.36418659 -56.05503845 224.3896637 C-53.67353174 224.39969859 -51.292021 224.40882355 -48.9105072 224.41700745 C-43.08350514 224.43731059 -37.25706043 224.47646763 -31.43003845 224.5146637 C-31.43003845 215.9346637 -31.43003845 207.3546637 -31.43003845 198.5146637 C-35.09097595 198.56106995 -38.75191345 198.6074762 -42.52378845 198.6552887 C-46.08497228 198.68651897 -49.64614062 198.71078712 -53.2073822 198.73439026 C-55.67490003 198.75445664 -58.1423706 198.78171614 -60.60972595 198.81642151 C-64.16453238 198.86515676 -67.71870789 198.88768308 -71.27378845 198.9052887 C-72.91800781 198.93625641 -72.91800781 198.93625641 -74.59544373 198.96784973 C-82.196353 198.97005682 -87.53483448 197.87596906 -93.45347595 192.76856995 C-93.89949158 192.21040588 -94.3455072 191.65224182 -94.80503845 191.0771637 C-95.26652283 190.52157776 -95.7280072 189.96599182 -96.20347595 189.39356995 C-100.28597518 183.1398052 -99.80230386 176.51901586 -99.80064392 169.33229065 C-99.8050049 167.21842607 -99.84132711 165.10667348 -99.8792572 162.99317932 C-99.95232668 154.38218297 -99.5279905 148.16979344 -93.64878845 141.4912262 C-93.08160095 141.04521057 -92.51441345 140.59919495 -91.93003845 140.1396637 C-91.0792572 139.44743713 -91.0792572 139.44743713 -90.21128845 138.7412262 C-86.42837695 136.13632661 -83.73759538 135.26558009 -79.11070251 135.28761292 C-78.04990479 135.28776398 -76.98910706 135.28791504 -75.89616394 135.28807068 C-74.75749878 135.29839325 -73.61883362 135.30871582 -72.44566345 135.3193512 C-70.68956757 135.32359604 -70.68956757 135.32359604 -68.897995 135.32792664 C-65.1585722 135.33912214 -61.41938886 135.36422594 -57.68003845 135.3896637 C-55.14488566 135.39969429 -52.60972912 135.40882 -50.0745697 135.41700745 C-43.85955947 135.43735784 -37.64506702 135.47650868 -31.43003845 135.5146637 C-31.43003845 126.9346637 -31.43003845 118.3546637 -31.43003845 109.5146637 C-34.86281189 109.54946838 -38.29558533 109.58427307 -41.8323822 109.62013245 C-45.17848378 109.64356763 -48.52457601 109.66176168 -51.87071228 109.67945862 C-54.18585847 109.69449099 -56.50097645 109.7149224 -58.81602478 109.74098206 C-62.15488169 109.77760965 -65.49336015 109.79444611 -68.8323822 109.80763245 C-70.37042763 109.83085823 -70.37042763 109.83085823 -71.93954468 109.85455322 C-79.43049474 109.85628466 -85.63072824 108.67336268 -92.18003845 104.9521637 C-99.2474046 97.29585037 -100.21262603 89.02166198 -100.02696228 78.95509338 C-99.99246131 76.8850352 -100.00640094 74.81922116 -100.02574158 72.7490387 C-100.0161288 63.67028503 -99.26320863 57.34783387 -92.61753845 50.7021637 C-85.14394078 45.57322412 -79.49623338 45.09394294 -70.5901947 45.22169495 C-69.46810104 45.22593979 -68.34600739 45.23018463 -67.18991089 45.23455811 C-63.62387078 45.25128273 -60.0584063 45.28892447 -56.49253845 45.3271637 C-54.06741643 45.34221852 -51.64228551 45.35590553 -49.21714783 45.36817932 C-43.28791665 45.40116592 -37.35901869 45.45130362 -31.43003845 45.5146637 C-31.46145935 44.54810852 -31.46145935 44.54810852 -31.49351501 43.56202698 C-31.57764843 40.58807037 -31.62900191 37.61436527 -31.68003845 34.6396637 C-31.71355408 33.62646057 -31.7470697 32.61325745 -31.78160095 31.5693512 C-31.8864187 23.3935669 -30.36721547 16.67828508 -25.6058197 9.9287262 C-24.68349548 9.04314026 -24.68349548 9.04314026 -23.74253845 8.1396637 C-23.14054626 7.53380432 -22.53855408 6.92794495 -21.9183197 6.3037262 C-14.94915205 1.29292748 -8.45991245 -0.07480931 0 0 Z M-13.74253845 20.8896637 C-16.82148115 25.67913011 -16.57457717 30.68852466 -16.5586729 36.23466396 C-16.56042594 37.00853401 -16.56217898 37.78240405 -16.56398514 38.5797247 C-16.56865039 41.18219592 -16.56617828 43.78461139 -16.56375122 46.38708496 C-16.56561892 48.26803351 -16.56791946 50.14898168 -16.57061654 52.02992922 C-16.57674589 57.20617087 -16.57659962 62.38239639 -16.57542217 67.55864084 C-16.57521845 73.13813615 -16.58073411 78.71762625 -16.58547974 84.29711914 C-16.59379279 95.23061523 -16.59653486 106.16410594 -16.59709211 117.09760492 C-16.59756691 125.98187536 -16.59961985 134.86614402 -16.60279274 143.75041389 C-16.61016699 164.82677546 -16.61631738 185.90313592 -16.61579418 206.97949886 C-16.6157786 207.65360175 -16.61576302 208.32770464 -16.61574697 209.02223489 C-16.61566386 212.43893945 -16.61556482 215.85564401 -16.61546227 219.27234858 C-16.61544232 219.95093018 -16.61542238 220.62951178 -16.61540183 221.32865647 C-16.61536139 222.70091334 -16.61531959 224.07317021 -16.61527643 225.44542709 C-16.61466352 246.80111367 -16.62217308 268.15678439 -16.635849 289.51246643 C-16.65120383 313.49979843 -16.65980293 337.48711851 -16.65888578 361.47445685 C-16.65855336 374.17756818 -16.66132001 386.88066161 -16.67206383 399.58376884 C-16.68115083 410.39740259 -16.6833589 421.21101031 -16.6765544 432.02464622 C-16.67328023 437.54429378 -16.67326478 443.06389137 -16.68190765 448.58353424 C-16.68973393 453.63348353 -16.68838109 458.68334291 -16.67962352 463.7332899 C-16.67807997 465.56297977 -16.67993664 467.39267623 -16.6854836 469.22235834 C-16.69251227 471.70462272 -16.68727483 474.18656892 -16.67892742 476.66882229 C-16.6838956 477.38321249 -16.68886378 478.09760269 -16.69398251 478.83364108 C-16.64575304 485.59314952 -15.18734456 490.62143456 -10.43003845 495.5146637 C-5.74707443 498.09951043 -1.03457965 497.79702189 4.16625977 497.77536011 C5.62414605 497.78109843 5.62414605 497.78109843 7.11148459 497.78695267 C10.37105457 497.79727859 13.63044828 497.79329126 16.89002991 497.7893219 C19.22583174 497.79366858 21.56163214 497.79885158 23.89743042 497.80480957 C30.24445825 497.81821513 36.5914266 497.81877653 42.93846583 497.81624627 C48.90410421 497.81504254 54.86973252 497.82125184 60.83536787 497.82667973 C73.37214351 497.83755469 85.90889226 497.83539294 98.44566942 497.82929488 C109.91295 497.82412532 121.38014564 497.83538225 132.84740942 497.8543931 C144.62459397 497.87376796 156.40173833 497.88202815 168.17893893 497.87826985 C174.7899154 497.87645486 181.40081406 497.87911479 188.01177788 497.89298439 C194.22765586 497.90553686 200.44336352 497.90364298 206.65923882 497.8905735 C208.94171709 497.8882026 211.22420726 497.89096071 213.50667191 497.89919662 C216.6202068 497.90962204 219.73316574 497.90159692 222.84667969 497.8888855 C223.75183773 497.89625978 224.65699578 497.90363407 225.58958286 497.91123182 C230.67104113 497.86752819 234.16755251 497.33477372 238.56996155 494.5146637 C243.7887553 489.15482146 243.71914697 483.96120328 243.698596 476.79466343 C243.70122556 475.63385836 243.70122556 475.63385836 243.70390823 474.44960269 C243.70857348 471.84713148 243.70610138 469.244716 243.70367432 466.64224243 C243.70554202 464.76129388 243.70784256 462.88034572 243.71053964 460.99939817 C243.71666898 455.82315653 243.71652271 450.646931 243.71534526 445.47068655 C243.71514155 439.89119124 243.7206572 434.31170115 243.72540283 428.73220825 C243.73371589 417.79871216 243.73645796 406.86522146 243.73701521 395.93172247 C243.73749001 387.04745203 243.73954294 378.16318337 243.74271584 369.2789135 C243.75009009 348.20255194 243.75624048 327.12619147 243.75571728 306.04982853 C243.7557017 305.37572564 243.75568612 304.70162275 243.75567007 304.00709251 C243.75558696 300.59038794 243.75548792 297.17368338 243.75538536 293.75697882 C243.75536542 293.07839721 243.75534547 292.39981561 243.75532492 291.70067092 C243.75528448 290.32841405 243.75524269 288.95615718 243.75519953 287.58390031 C243.75458661 266.22821372 243.76209618 244.87254301 243.77577209 223.51686096 C243.79112692 199.52952896 243.79972603 175.54220888 243.79880887 151.55487055 C243.79847646 138.85175922 243.8012431 126.14866579 243.81198692 113.44555855 C243.82107393 102.6319248 243.82328199 91.81831708 243.8164775 81.00468118 C243.81320333 75.48503361 243.81318788 69.96543602 243.82183075 64.44579315 C243.82965703 59.39584386 243.82830419 54.34598448 243.81954662 49.29603749 C243.81800306 47.46634762 243.81985973 45.63665117 243.82540669 43.80696905 C243.83243537 41.32470468 243.82719793 38.84275847 243.81885052 36.3605051 C243.8238187 35.6461149 243.82878688 34.9317247 243.83390561 34.19568631 C243.78567614 27.43617787 242.32726765 22.40789283 237.56996155 17.5146637 C232.88699753 14.92981696 228.17450274 15.23230551 222.97366333 15.25396729 C221.51577704 15.24822896 221.51577704 15.24822896 220.02843851 15.24237472 C216.76886852 15.2320488 213.50947482 15.23603613 210.24989319 15.24000549 C207.91409136 15.23565881 205.57829095 15.23047582 203.24249268 15.22451782 C196.89546484 15.21111227 190.5484965 15.21055086 184.20145726 15.21308112 C178.23581889 15.21428485 172.27019058 15.20807555 166.30455523 15.20264766 C153.76777958 15.1917727 141.23103084 15.19393445 128.69425368 15.20003251 C117.2269731 15.20520207 105.75977745 15.19394514 94.29251368 15.17493429 C82.51532913 15.15555944 70.73818476 15.14729924 58.96098417 15.15105754 C52.3500077 15.15287253 45.73910903 15.1502126 39.12814522 15.136343 C32.91226724 15.12379053 26.69655957 15.12568441 20.48068428 15.13875389 C18.19820601 15.14112479 15.91571584 15.13836668 13.63325119 15.13013077 C10.5197163 15.11970536 7.40675735 15.12773047 4.29324341 15.14044189 C3.38808536 15.13306761 2.48292731 15.12569332 1.55034024 15.11809558 C-4.78050874 15.17254472 -9.16279642 16.18614485 -13.74253845 20.8896637 Z M-83.088974 63.72486877 C-85.29781028 68.31987554 -85.04837295 72.49612762 -84.99253845 77.5146637 C-85.01638611 78.49950745 -85.04023376 79.4843512 -85.06480408 80.4990387 C-85.06287048 81.45294495 -85.06093689 82.4068512 -85.0589447 83.3896637 C-85.0596698 84.25333557 -85.0603949 85.11700745 -85.06114197 86.0068512 C-84.08513569 89.88520185 -82.70581592 91.21435239 -79.43003845 93.5146637 C-75.75844737 94.19386957 -72.16457867 94.0967536 -68.4417572 94.00294495 C-66.85425407 93.99233284 -66.85425407 93.99233284 -65.23468018 93.98150635 C-61.86157409 93.95356589 -58.49014099 93.8908249 -55.11753845 93.8271637 C-52.82784892 93.80208052 -50.53813331 93.77926739 -48.24839783 93.75880432 C-42.64111842 93.70799534 -37.03744599 93.61013602 -31.43003845 93.5146637 C-31.43003845 82.9546637 -31.43003845 72.3946637 -31.43003845 61.5146637 C-38.3361858 61.39990128 -45.23902941 61.30035029 -52.14537048 61.24000549 C-54.49476833 61.21485308 -56.84408787 61.18072707 -59.19322205 61.13746643 C-62.56923228 61.07684943 -65.94420857 61.04846074 -69.32066345 61.02638245 C-70.3718335 61.00057602 -71.42300354 60.97476959 -72.50602722 60.94818115 C-78.28290787 60.85219979 -78.28290787 60.85219979 -83.088974 63.72486877 Z M258.56996155 61.5146637 C258.56996155 72.0746637 258.56996155 82.6346637 258.56996155 93.5146637 C265.33303819 93.58351855 272.09489966 93.6432585 278.85804749 93.67945862 C281.15887065 93.69454864 283.45966503 93.71502297 285.76039124 93.74098206 C289.06677857 93.77735517 292.37278571 93.79438802 295.67933655 93.80763245 C297.22328094 93.83085823 297.22328094 93.83085823 298.79841614 93.85455322 C299.75911011 93.85477982 300.71980408 93.85500641 301.70960999 93.85523987 C302.55344238 93.8619017 303.39727478 93.86856354 304.26667786 93.87542725 C307.13036953 93.42688694 308.4785644 92.49604747 310.56996155 90.5146637 C312.04385841 86.0929731 311.83550929 81.77228613 311.88246155 77.1396637 C311.91146545 76.19349182 311.94046936 75.24731995 311.97035217 74.2724762 C311.98292053 72.89575745 311.98292053 72.89575745 311.9957428 71.4912262 C312.01032532 70.65671936 312.02490784 69.82221252 312.03993225 68.9624176 C311.33753545 65.30411612 310.46212672 63.92087524 307.56996155 61.5146637 C303.86468824 60.81316594 300.21958382 60.93409834 296.46058655 61.02638245 C294.83766693 61.03699455 294.83766693 61.03699455 293.18196106 61.04782104 C289.72725706 61.07580326 286.27417544 61.13855239 282.81996155 61.2021637 C280.47753704 61.22724146 278.13508712 61.25005553 275.7926178 61.27052307 C270.05060501 61.32139136 264.31209833 61.41924414 258.56996155 61.5146637 Z M-83.43003845 153.5146637 C-84.90414043 157.93696964 -84.65499674 162.25694786 -84.68003845 166.8896637 C-84.70066345 167.83583557 -84.72128845 168.78200745 -84.74253845 169.7568512 C-84.83215304 176.66165371 -84.83215304 176.66165371 -81.43003845 182.5146637 C-78.55041011 183.47453981 -76.76376405 183.63620183 -73.77500916 183.62818909 C-72.83426041 183.62811356 -71.89351166 183.62803802 -70.92425537 183.62796021 C-69.40537971 183.62021828 -69.40537971 183.62021828 -67.8558197 183.61231995 C-66.81685043 183.610905 -65.77788116 183.60949005 -64.70742798 183.60803223 C-61.38576897 183.60243025 -58.06417712 183.58987741 -54.74253845 183.5771637 C-52.49188838 183.57214895 -50.24123726 183.567586 -47.99058533 183.56349182 C-42.47035628 183.55331065 -36.95027263 183.53373552 -31.43003845 183.5146637 C-31.43003845 172.6246637 -31.43003845 161.7346637 -31.43003845 150.5146637 C-38.19311509 150.44580884 -44.95497656 150.38606889 -51.71812439 150.34986877 C-54.01894755 150.33477875 -56.31974194 150.31430442 -58.62046814 150.28834534 C-61.92685547 150.25197222 -65.23286262 150.23493937 -68.53941345 150.22169495 C-69.56870972 150.20621109 -70.59800598 150.19072723 -71.65849304 150.17477417 C-72.61918701 150.17454758 -73.57988098 150.17432098 -74.56968689 150.17408752 C-75.41351929 150.16742569 -76.25735168 150.16076385 -77.12675476 150.15390015 C-79.99044644 150.60244045 -81.33864131 151.53327992 -83.43003845 153.5146637 Z M258.56996155 150.5146637 C258.56996155 161.4046637 258.56996155 172.2946637 258.56996155 183.5146637 C265.1904147 183.56056823 271.81031592 183.60039633 278.43080139 183.62452698 C280.68309907 183.63458622 282.93538369 183.64823516 285.18763733 183.6655426 C288.42448653 183.68979401 291.66116309 183.70114759 294.89808655 183.7099762 C296.40922028 183.72546005 296.40922028 183.72546005 297.95088196 183.74125671 C299.36189178 183.74148331 299.36189178 183.74148331 300.80140686 183.74171448 C302.04050812 183.74837631 302.04050812 183.74837631 303.30464172 183.75517273 C305.82847432 183.48721739 307.41925063 182.84436951 309.56996155 181.5146637 C312.53550563 177.1201543 311.899855 172.18040163 311.88246155 167.0771637 C311.89857483 166.13550354 311.91468811 165.19384338 311.93128967 164.22364807 C311.94117943 157.36821649 311.94117943 157.36821649 308.56996155 151.5146637 C306.15221574 150.30579079 304.63665091 150.39407027 301.93666077 150.40113831 C300.97581573 150.40121384 300.0149707 150.40128937 299.02500916 150.40136719 C297.4655809 150.40910912 297.4655809 150.40910912 295.87464905 150.41700745 C294.81206879 150.41842239 293.74948853 150.41983734 292.65470886 150.42129517 C289.25143146 150.42690536 285.84821916 150.43945961 282.44496155 150.4521637 C280.14157708 150.45717738 277.83819158 150.46174052 275.5348053 150.46583557 C269.87981194 150.47602842 264.22495987 150.4956019 258.56996155 150.5146637 Z M-83.09117126 242.72486877 C-84.48434967 245.62783186 -84.94457407 247.44005288 -84.96128845 250.6396637 C-84.9664447 251.59356995 -84.97160095 252.5474762 -84.97691345 253.5302887 C-84.9614447 254.51513245 -84.94597595 255.4999762 -84.93003845 256.5146637 C-84.9455072 257.49950745 -84.96097595 258.4843512 -84.97691345 259.4990387 C-84.9717572 260.45294495 -84.96660095 261.4068512 -84.96128845 262.3896637 C-84.95677673 263.25333557 -84.95226501 264.11700745 -84.94761658 265.0068512 C-84.19042204 268.67567303 -83.34320006 270.09513598 -80.43003845 272.5146637 C-76.72455834 273.21537692 -73.07973927 273.09523098 -69.32066345 273.00294495 C-67.69774384 272.99233284 -67.69774384 272.99233284 -66.04203796 272.98150635 C-62.58733396 272.95352414 -59.13425234 272.890775 -55.68003845 272.8271637 C-53.33761395 272.80208594 -50.99516403 272.77927186 -48.6526947 272.75880432 C-42.91068192 272.70793603 -37.17217523 272.61008325 -31.43003845 272.5146637 C-31.43003845 261.9546637 -31.43003845 251.3946637 -31.43003845 240.5146637 C-38.3361858 240.39990128 -45.23902941 240.30035029 -52.14537048 240.24000549 C-54.49476833 240.21485308 -56.84408787 240.18072707 -59.19322205 240.13746643 C-62.56923228 240.07684943 -65.94420857 240.04846074 -69.32066345 240.02638245 C-70.3718335 240.00057602 -71.42300354 239.97476959 -72.50602722 239.94818115 C-78.28352724 239.85268154 -78.28352724 239.85268154 -83.09117126 242.72486877 Z M258.56996155 240.5146637 C258.56996155 251.0746637 258.56996155 261.6346637 258.56996155 272.5146637 C265.47610889 272.62942612 272.3789525 272.7289771 279.28529358 272.7893219 C281.63469142 272.81447431 283.98401096 272.84860033 286.33314514 272.89186096 C289.70915537 272.95247796 293.08413166 272.98086665 296.46058655 273.00294495 C298.03734161 273.04165459 298.03734161 273.04165459 299.64595032 273.08114624 C305.42345033 273.17664585 305.42345033 273.17664585 310.23109436 270.30445862 C311.62427276 267.40149553 312.08449716 265.58927452 312.10121155 262.3896637 C312.1063678 261.43575745 312.11152405 260.4818512 312.11683655 259.4990387 C312.1013678 258.51419495 312.08589905 257.5293512 312.06996155 256.5146637 C312.0854303 255.52981995 312.10089905 254.5449762 312.11683655 253.5302887 C312.10910217 252.09942932 312.10910217 252.09942932 312.10121155 250.6396637 C312.09669983 249.77599182 312.09218811 248.91231995 312.08753967 248.0224762 C311.33034514 244.35365436 310.48312316 242.93419141 307.56996155 240.5146637 C303.86448143 239.81395047 300.21966237 239.93409641 296.46058655 240.02638245 C294.83766693 240.03699455 294.83766693 240.03699455 293.18196106 240.04782104 C289.72725706 240.07580326 286.27417544 240.13855239 282.81996155 240.2021637 C280.47753704 240.22724146 278.13508712 240.25005553 275.7926178 240.27052307 C270.05060501 240.32139136 264.31209833 240.41924414 258.56996155 240.5146637 Z M-82.43003845 331.5146637 C-85.39558253 335.90917309 -84.7599319 340.84892576 -84.74253845 345.9521637 C-84.75865173 346.89382385 -84.77476501 347.83548401 -84.79136658 348.80567932 C-84.80125634 355.6611109 -84.80125634 355.6611109 -81.43003845 361.5146637 C-79.01229264 362.7235366 -77.49672781 362.63525712 -74.79673767 362.62818909 C-73.83589264 362.62811356 -72.87504761 362.62803802 -71.88508606 362.62796021 C-70.32565781 362.62021828 -70.32565781 362.62021828 -68.73472595 362.61231995 C-67.67214569 362.610905 -66.60956543 362.60949005 -65.51478577 362.60803223 C-62.11150836 362.60242203 -58.70829607 362.58986779 -55.30503845 362.5771637 C-53.00165398 362.57215001 -50.69826849 362.56758688 -48.3948822 362.56349182 C-42.73988885 362.55329897 -37.08503678 362.53372549 -31.43003845 362.5146637 C-31.43003845 351.6246637 -31.43003845 340.7346637 -31.43003845 329.5146637 C-38.0504916 329.46875917 -44.67039282 329.42893107 -51.2908783 329.40480042 C-53.54317597 329.39474117 -55.79546059 329.38109223 -58.04771423 329.36378479 C-61.28456343 329.33953339 -64.52124 329.3281798 -67.75816345 329.3193512 C-69.26929718 329.30386734 -69.26929718 329.30386734 -70.81095886 329.28807068 C-71.75163208 329.28791962 -72.6923053 329.28776855 -73.66148376 329.28761292 C-74.90058502 329.28095108 -74.90058502 329.28095108 -76.16471863 329.27415466 C-78.68855123 329.54211 -80.27932753 330.18495789 -82.43003845 331.5146637 Z M258.56996155 329.5146637 C258.56996155 340.4046637 258.56996155 351.2946637 258.56996155 362.5146637 C265.33303819 362.58351855 272.09489966 362.6432585 278.85804749 362.67945862 C281.15887065 362.69454864 283.45966503 362.71502297 285.76039124 362.74098206 C289.06677857 362.77735517 292.37278571 362.79438802 295.67933655 362.80763245 C297.22328094 362.83085823 297.22328094 362.83085823 298.79841614 362.85455322 C299.75911011 362.85477982 300.71980408 362.85500641 301.70960999 362.85523987 C302.55344238 362.8619017 303.39727478 362.86856354 304.26667786 362.87542725 C307.13036953 362.42688694 308.4785644 361.49604747 310.56996155 359.5146637 C312.04406353 355.09235775 311.79491984 350.77237953 311.81996155 346.1396637 C311.84058655 345.19349182 311.86121155 344.24731995 311.88246155 343.2724762 C311.97207613 336.36767368 311.97207613 336.36767368 308.56996155 330.5146637 C305.69033321 329.55478758 303.90368714 329.39312556 300.91493225 329.40113831 C299.9741835 329.40121384 299.03343475 329.40128937 298.06417847 329.40136719 C296.54530281 329.40910912 296.54530281 329.40910912 294.9957428 329.41700745 C293.95677353 329.41842239 292.91780426 329.41983734 291.84735107 329.42129517 C288.52569207 329.42689714 285.20410022 329.43944998 281.88246155 329.4521637 C279.63181148 329.45717844 277.38116035 329.46174139 275.13050842 329.46583557 C269.61027938 329.47601674 264.09019573 329.49559187 258.56996155 329.5146637 Z M-82.57749939 421.72486877 C-84.55515179 424.70307567 -85.06190665 426.1116592 -85.0589447 429.6396637 C-85.0608783 430.59356995 -85.06281189 431.5474762 -85.06480408 432.5302887 C-85.04095642 433.51513245 -85.01710876 434.4999762 -84.99253845 435.5146637 C-85.00349548 436.49950745 -85.01445251 437.4843512 -85.02574158 438.4990387 C-84.98374603 442.64259943 -84.90972789 445.51677343 -83.088974 449.30445862 C-78.87243951 452.80939726 -74.63120774 452.13331983 -69.32066345 452.00294495 C-67.69774384 451.99233284 -67.69774384 451.99233284 -66.04203796 451.98150635 C-62.58733396 451.95352414 -59.13425234 451.890775 -55.68003845 451.8271637 C-53.33761395 451.80208594 -50.99516403 451.77927186 -48.6526947 451.75880432 C-42.91068192 451.70793603 -37.17217523 451.61008325 -31.43003845 451.5146637 C-31.43003845 440.9546637 -31.43003845 430.3946637 -31.43003845 419.5146637 C-38.17548897 419.39981494 -44.91754311 419.30029049 -51.66319275 419.24000549 C-53.95725504 419.21487441 -56.25123736 419.18076401 -58.54502869 419.13746643 C-61.84413895 419.07675537 -65.14218992 419.04843932 -68.4417572 419.02638245 C-69.46589218 419.00057602 -70.49002716 418.97476959 -71.54519653 418.94818115 C-76.23551502 418.94633721 -78.65965798 418.97368833 -82.57749939 421.72486877 Z M258.56996155 419.5146637 C258.56996155 430.0746637 258.56996155 440.6346637 258.56996155 451.5146637 C265.47610889 451.62942612 272.3789525 451.7289771 279.28529358 451.7893219 C281.63469142 451.81447431 283.98401096 451.84860033 286.33314514 451.89186096 C289.70915537 451.95247796 293.08413166 451.98086665 296.46058655 452.00294495 C298.03734161 452.04165459 298.03734161 452.04165459 299.64595032 452.08114624 C305.42908009 452.17829609 305.42908009 452.17829609 310.23329163 449.29078674 C311.59990915 446.45246567 312.07310207 444.73350403 312.0660553 441.6084137 C312.06669983 440.69962463 312.06734436 439.79083557 312.06800842 438.85450745 C312.03803772 437.44878479 312.03803772 437.44878479 312.00746155 436.0146637 C312.01455139 435.07751526 312.02164124 434.14036682 312.02894592 433.17481995 C311.98309053 428.20127346 311.9042701 424.4930074 308.56996155 420.5146637 C306.15221574 419.30579079 304.63665091 419.39407027 301.93666077 419.40113831 C300.97581573 419.40121384 300.0149707 419.40128937 299.02500916 419.40136719 C297.4655809 419.40910912 297.4655809 419.40910912 295.87464905 419.41700745 C294.81206879 419.41842239 293.74948853 419.41983734 292.65470886 419.42129517 C289.25143146 419.42690536 285.84821916 419.43945961 282.44496155 419.4521637 C280.14157708 419.45717738 277.83819158 419.46174052 275.5348053 419.46583557 C269.87981194 419.47602842 264.22495987 419.4956019 258.56996155 419.5146637 Z " fill="#000000" transform="translate(142.43003845214844,-0.5146636962890625)"/>
<path d="M0 0 C1.05499695 -0.01583633 2.1099939 -0.03167267 3.19696045 -0.04798889 C4.33240295 -0.04302902 5.46784546 -0.03806915 6.63769531 -0.03295898 C8.39862518 -0.04225685 8.39862518 -0.04225685 10.19512939 -0.05174255 C12.67988251 -0.05884709 15.16468318 -0.05565578 17.64941406 -0.04296875 C21.43807598 -0.0291539 25.22424395 -0.06310845 29.01269531 -0.10131836 C31.42936258 -0.10227006 33.84603292 -0.10040803 36.26269531 -0.09545898 C37.39004089 -0.10871719 38.51738647 -0.1219754 39.67889404 -0.13563538 C46.64906135 -0.05380939 51.34170662 0.9540647 56.71582031 5.53344727 C61.39779724 10.46184403 62.964203 14.91141516 62.97308922 21.65488911 C62.97953811 22.89303279 62.985987 24.13117648 62.99263132 25.40683967 C62.98968914 26.77792547 62.98655371 28.14901086 62.98324585 29.52009583 C62.98698251 30.97889128 62.99158409 32.43768474 62.99697649 33.89647502 C63.00922002 37.90591344 63.00894444 41.9152685 63.00658774 45.92472136 C63.00617992 50.24863004 63.01721545 54.57251188 63.02670288 58.89640808 C63.04332128 67.36808389 63.04881281 75.83973188 63.04992764 84.31142262 C63.05087772 91.19720436 63.054986 98.0829769 63.06132889 104.96875572 C63.07894361 124.48817939 63.0881674 144.00758107 63.08666794 163.52701274 C63.08658803 164.57948037 63.08650812 165.631948 63.08642578 166.71630859 C63.08634402 167.77006023 63.08626226 168.82381187 63.08617802 169.90949538 C63.08536506 186.98837377 63.10450467 204.06716399 63.13270251 221.14601687 C63.1614227 238.6794925 63.17524329 256.2129251 63.17351496 273.74642485 C63.17285076 283.59134658 63.17835627 293.43617587 63.19987106 303.28107643 C63.21807147 311.66312811 63.22243959 320.04504545 63.20885222 328.42710833 C63.20231679 332.70356593 63.202226 336.97976572 63.21955872 341.25619888 C63.23526926 345.17268772 63.23244675 349.08871388 63.21499045 353.00519129 C63.21191608 354.42038547 63.21556951 355.83561402 63.2267106 357.25076769 C63.28772786 365.55248067 63.33764487 372.71200931 57.26853311 379.0432418 C52.79406442 382.97736866 49.29305267 384.77583839 43.36816406 384.82397461 C42.30025635 384.83673431 41.23234863 384.84949402 40.13208008 384.86264038 C38.98408936 384.86486603 37.83609863 384.86709167 36.65332031 384.86938477 C35.46988037 384.87604156 34.28644043 384.88269836 33.06713867 384.88955688 C30.56560826 384.89967961 28.06405087 384.90437402 25.5625 384.90405273 C21.7303441 384.90843067 17.8993353 384.94476975 14.06738281 384.98266602 C11.63769926 384.98853317 9.20801022 384.99250324 6.77832031 384.99438477 C5.63032959 385.0087558 4.48233887 385.02312683 3.29956055 385.03793335 C2.23165283 385.03178009 1.16374512 385.02562683 0.06347656 385.01928711 C-0.87488037 385.02213715 -1.8132373 385.02498718 -2.7800293 385.02792358 C-6.06666686 384.37893523 -7.25340418 383.15222299 -9.28417969 380.53344727 C-9.78417969 377.03344727 -9.78417969 377.03344727 -9.28417969 373.53344727 C3.73290311 360.51636447 27.31042308 368.89433741 45.71582031 368.53344727 C45.71582031 252.70344727 45.71582031 136.87344727 45.71582031 17.53344727 C43.29789911 16.32448666 41.75520739 16.40260665 39.05419922 16.39160156 C37.60226669 16.38104988 37.60226669 16.38104988 36.1210022 16.37028503 C35.0720578 16.36612076 34.0231134 16.36195648 32.94238281 16.35766602 C30.73403992 16.33447048 28.52570655 16.31035326 26.31738281 16.28540039 C22.82578132 16.25024839 19.33453054 16.22092312 15.84277344 16.20751953 C12.47970875 16.19207301 9.11767597 16.15188475 5.75488281 16.10766602 C4.70998688 16.10957443 3.66509094 16.11148285 2.58853149 16.1134491 C-4.61394187 15.99153543 -4.61394187 15.99153543 -7.94287109 13.71630859 C-9.93202252 10.47914024 -9.81516156 8.25032034 -9.28417969 4.53344727 C-6.44474415 0.88537525 -4.5734625 0.03060478 0 0 Z " fill="#000000" transform="translate(274.2841796875,63.466552734375)"/>
<path d="M0 0 C0.98782471 -0.0127597 1.97564941 -0.02551941 2.9934082 -0.03866577 C4.05390381 -0.04089142 5.11439941 -0.04311707 6.20703125 -0.04541016 C7.84901489 -0.05539536 7.84901489 -0.05539536 9.52416992 -0.06558228 C11.83738525 -0.07570228 14.15062974 -0.0803995 16.46386719 -0.08007812 C20.00634629 -0.08445636 23.54758465 -0.12079839 27.08984375 -0.15869141 C29.33723532 -0.16455859 31.58463281 -0.16852864 33.83203125 -0.17041016 C34.89252686 -0.18478119 35.95302246 -0.19915222 37.0456543 -0.21395874 C44.34293477 -0.16850325 44.34293477 -0.16850325 47.6875 2.10058594 C49.66041919 5.34418659 49.550308 7.57509008 49.01953125 11.29052734 C47.62353516 13.47338867 47.62353516 13.47338867 45.01953125 15.29052734 C41.63660445 15.89922878 38.2855824 15.87158345 34.85546875 15.86474609 C33.86704987 15.87891068 32.87863098 15.89307526 31.86026001 15.90766907 C28.70490626 15.94958903 25.55012438 15.96481498 22.39453125 15.97802734 C19.23206291 16.00706063 16.06974042 16.04157345 12.90737915 16.08052063 C10.93981512 16.10304708 8.97216061 16.11884262 7.00448608 16.12736511 C6.11661407 16.13439957 5.22874207 16.14143402 4.31396484 16.14868164 C3.53105072 16.1521611 2.7481366 16.15564056 1.9414978 16.15922546 C-0.06510244 16.17233933 -0.06510244 16.17233933 -1.98046875 17.29052734 C-1.98046875 132.79052734 -1.98046875 248.29052734 -1.98046875 367.29052734 C0.34895397 368.4552387 1.71985098 368.42084417 4.31396484 368.43237305 C5.20183685 368.4394075 6.08970886 368.44644196 7.00448608 368.45368958 C8.44666 368.45993599 8.44666 368.45993599 9.91796875 368.46630859 C11.94402083 368.48950466 13.97006254 368.51362191 15.99609375 368.53857422 C19.19798747 368.57371935 22.39949919 368.60304814 25.6015625 368.61645508 C28.68667069 368.63190915 31.77065627 368.67210155 34.85546875 368.71630859 C35.81286957 368.71440018 36.77027039 368.71249176 37.75668335 368.71052551 C44.36297005 368.83236261 44.36297005 368.83236261 47.62353516 371.10766602 C49.68763663 374.33521608 49.55440464 376.54641364 49.01953125 380.29052734 C47.67871094 382.47387695 47.67871094 382.47387695 45.01953125 384.29052734 C41.3422493 384.91096729 37.69483662 384.87455044 33.97265625 384.85693359 C32.88748718 384.86313217 31.80231812 384.86933075 30.68426514 384.87571716 C28.3878265 384.88281995 26.09133643 384.8796334 23.79492188 384.86694336 C20.29589816 384.85313142 16.79957687 384.88708036 13.30078125 384.92529297 C11.0664056 384.92624471 8.83202662 384.92438238 6.59765625 384.91943359 C5.03788055 384.93932091 5.03788055 384.93932091 3.44659424 384.95960999 C-3.29960602 384.8739908 -7.75752359 383.65416514 -12.98046875 379.29052734 C-17.66244568 374.36213058 -19.22885144 369.91255945 -19.23773766 363.1690855 C-19.24418655 361.93094182 -19.25063544 360.69279813 -19.25727975 359.41713494 C-19.25433758 358.04604914 -19.25120215 356.67496375 -19.24789429 355.30387878 C-19.25163095 353.84508333 -19.25623253 352.38628987 -19.26162493 350.92749959 C-19.27386845 346.91806117 -19.27359288 342.9087061 -19.27123618 338.89925325 C-19.27082836 334.57534457 -19.28186389 330.25146273 -19.29135132 325.92756653 C-19.30796971 317.45589072 -19.31346124 308.98424273 -19.31457607 300.51255199 C-19.31552615 293.62677025 -19.31963444 286.74099771 -19.32597733 279.85521889 C-19.34359204 260.33579522 -19.35281584 240.81639354 -19.35131638 221.29696187 C-19.35123647 220.24449424 -19.35115655 219.1920266 -19.35107422 218.10766602 C-19.35099246 217.05391438 -19.3509107 216.00016274 -19.35082646 214.91447923 C-19.3500135 197.83560084 -19.3691531 180.75681062 -19.39735095 163.67795774 C-19.42607114 146.14448211 -19.43989172 128.6110495 -19.4381634 111.07754976 C-19.4374992 101.23262803 -19.44300471 91.38779873 -19.4645195 81.54289818 C-19.48271991 73.1608465 -19.48708802 64.77892916 -19.47350065 56.39686628 C-19.46696522 52.12040868 -19.46687444 47.84420889 -19.48420715 43.56777573 C-19.4999177 39.65128689 -19.49709518 35.73526073 -19.47963889 31.81878332 C-19.47656451 30.40358914 -19.48021794 28.98836059 -19.49135904 27.57320692 C-19.5523763 19.27149394 -19.6022933 12.1119653 -13.53318155 5.78073281 C-9.22380393 1.99176044 -5.71985935 0.05027791 0 0 Z " fill="#000000" transform="translate(193.98046875,63.70947265625)"/>
<path d="M0 0 C2.70143127 -0.36749268 2.70143127 -0.36749268 6.17797852 -0.35644531 C8.1249337 -0.36094696 8.1249337 -0.36094696 10.11122131 -0.36553955 C11.53378697 -0.35353472 12.95634867 -0.34105178 14.37890625 -0.328125 C15.83096624 -0.32506836 17.28302915 -0.32319152 18.73509216 -0.32244873 C21.77915657 -0.31784293 24.82295683 -0.30340562 27.86694336 -0.28125 C31.77688404 -0.25294218 35.6866167 -0.2420364 39.59665012 -0.2375679 C42.59484454 -0.23341955 45.59299654 -0.2236074 48.59116936 -0.21169281 C50.03333126 -0.2059796 51.47549727 -0.20122439 52.91766548 -0.19742584 C54.9289404 -0.19058269 56.94018482 -0.17605614 58.95141602 -0.16113281 C60.67111351 -0.15089081 60.67111351 -0.15089081 62.42555237 -0.14044189 C65 0 65 0 66 1 C66.0979057 2.49738124 66.12974864 3.99942892 66.125 5.5 C66.12886719 6.72203125 66.12886719 6.72203125 66.1328125 7.96875 C66 10 66 10 65 11 C62.62661361 11.15971977 60.27881728 11.2592433 57.90234375 11.31640625 C56.83905602 11.3475779 56.83905602 11.3475779 55.75428772 11.37937927 C53.48212695 11.44494598 51.20984736 11.5037923 48.9375 11.5625 C47.40037817 11.60567849 45.8632685 11.64929255 44.32617188 11.69335938 C40.5509041 11.80063449 36.7755164 11.90188137 33 12 C33.89307861 12.14622803 34.78615723 12.29245605 35.70629883 12.44311523 C39.02205679 12.98721637 42.33743758 13.53351241 45.65258789 14.08129883 C47.08701324 14.3178566 48.52158298 14.55354057 49.95629883 14.78833008 C52.0194299 15.12611512 54.08201997 15.46704727 56.14453125 15.80859375 C58.00621948 16.11494751 58.00621948 16.11494751 59.90551758 16.42749023 C63 17 63 17 66 18 C66 21.63 66 25.26 66 29 C59.38844785 30.76414012 52.74472542 31.98540309 46 33.125 C44.93910156 33.30675781 43.87820313 33.48851562 42.78515625 33.67578125 C40.19055463 34.11990225 37.59551275 34.56124083 35 35 C41.45805083 36.10259404 47.89758192 36.32574332 54.4375 36.5625 C55.55060547 36.60568359 56.66371094 36.64886719 57.81054688 36.69335938 C60.54025844 36.79879888 63.27005143 36.90092029 66 37 C66 40.3 66 43.6 66 47 C63.27129047 48.36435476 61.09194163 48.14226986 58.03735352 48.16113281 C56.78588028 48.17074036 55.53440704 48.1803479 54.24501038 48.19024658 C52.87297751 48.19509383 51.50094254 48.19937284 50.12890625 48.203125 C48.72647601 48.20887606 47.32404579 48.2146338 45.9216156 48.22039795 C42.98021071 48.23090672 40.03883314 48.23675039 37.09741211 48.24023438 C33.32655351 48.24572325 29.55605526 48.26975972 25.78530979 48.29820633 C22.88826945 48.31681925 19.99131621 48.32203754 17.09422112 48.32357025 C15.70392827 48.32659967 14.31363705 48.33463798 12.92340279 48.34775543 C10.979688 48.36478811 9.03582487 48.3610949 7.09204102 48.35644531 C5.98554703 48.36009094 4.87905304 48.36373657 3.73902893 48.36749268 C1 48 1 48 -0.85804749 46.65350342 C-2.59443663 44.13927857 -2.36049912 42.012868 -2.3125 39 C-2.30863281 37.948125 -2.30476562 36.89625 -2.30078125 35.8125 C-2 33 -2 33 0 30 C2.72431272 29.3124246 5.30260271 28.80679867 8.0703125 28.39453125 C8.86654022 28.26559982 9.66276794 28.1366684 10.48312378 28.00382996 C13.0286451 27.59451267 15.57658102 27.20332795 18.125 26.8125 C19.85044975 26.53829811 21.57571333 26.26292199 23.30078125 25.98632812 C27.53181377 25.31057029 31.7650999 24.6510614 36 24 C35.16359985 23.84180786 35.16359985 23.84180786 34.31030273 23.68041992 C29.76037216 22.81904118 25.2115687 21.952218 20.6640625 21.078125 C17.2251975 20.41836295 13.78444532 19.7791024 10.3359375 19.171875 C9.64959229 19.04659424 8.96324707 18.92131348 8.25610352 18.79223633 C6.41819403 18.45679072 4.57828514 18.132354 2.73828125 17.80859375 C0 17 0 17 -2 14 C-2.265625 11.40625 -2.265625 11.40625 -2.25 8.5 C-2.25515625 7.5409375 -2.2603125 6.581875 -2.265625 5.59375 C-2 3 -2 3 0 0 Z " fill="#000000" transform="translate(225,188)"/>
<path d="M0 0 C2.5 2.0625 2.5 2.0625 4 4 C4 4.66 4 5.32 4 6 C4.82201904 5.71688965 5.64403809 5.4337793 6.4909668 5.14208984 C9.5524344 4.09645763 12.61842754 3.06579198 15.68823242 2.04492188 C17.01412123 1.60063822 18.33806224 1.15049603 19.65991211 0.69433594 C21.56357986 0.03854065 23.47510685 -0.5942981 25.38671875 -1.2265625 C26.53358154 -1.61408691 27.68044434 -2.00161133 28.86206055 -2.40087891 C32.373679 -3.07134585 33.88939319 -2.65593319 37 -1 C37.05391993 0.79133978 37.09275571 2.58313899 37.125 4.375 C37.14820313 5.37273437 37.17140625 6.37046875 37.1953125 7.3984375 C37 10 37 10 35 12 C32.63330078 12.77783203 32.63330078 12.77783203 29.6953125 13.5078125 C28.63699219 13.77207031 27.57867187 14.03632813 26.48828125 14.30859375 C25.37839844 14.57800781 24.26851563 14.84742188 23.125 15.125 C21.47177734 15.54072266 21.47177734 15.54072266 19.78515625 15.96484375 C11.53425185 18 11.53425185 18 7 18 C7 18.66 7 19.32 7 20 C7.83772949 19.98952637 8.67545898 19.97905273 9.53857422 19.96826172 C12.64338164 19.93419981 15.74809392 19.90911089 18.85302734 19.89013672 C20.8591136 19.87511893 22.86511324 19.84971019 24.87109375 19.82421875 C26.12792969 19.81777344 27.38476562 19.81132812 28.6796875 19.8046875 C29.84226074 19.79421387 31.00483398 19.78374023 32.20263672 19.77294922 C35 20 35 20 37 22 C37.23046875 24.56640625 37.23046875 24.56640625 37.1875 27.5625 C37.18105469 28.55378906 37.17460937 29.54507813 37.16796875 30.56640625 C37 33 37 33 36 34 C33.97505769 34.09409479 31.9468013 34.11743122 29.91967773 34.11352539 C27.96776772 34.11341209 27.96776772 34.11341209 25.97642517 34.11329651 C24.54548098 34.10818909 23.11453718 34.10297308 21.68359375 34.09765625 C20.2277074 34.09579203 18.77182043 34.09436815 17.31593323 34.09336853 C13.47720621 34.08954365 9.63851681 34.07971364 5.79980469 34.06866455 C1.88542184 34.05844978 -2.02896706 34.05387077 -5.94335938 34.04882812 C-13.62892343 34.03809134 -21.31445645 34.02101529 -29 34 C-33.21989928 26.05468815 -31.17988207 15.42395105 -29 7 C-26.39630597 1.88239449 -23.5275157 -0.6619768 -18.1875 -2.6875 C-11.48815917 -3.64454869 -6.01360277 -3.15315013 0 0 Z M-18.5625 13.75 C-20.35892618 16.11679731 -20.35892618 16.11679731 -20 20 C-14.39 20 -8.78 20 -3 20 C-2.48217107 15.26735733 -2.48217107 15.26735733 -4.4375 13.1875 C-9.19238079 10.98401866 -14.17916993 10.75650629 -18.5625 13.75 Z " fill="#000000" transform="translate(254,295)"/>
<path d="M0 0 C1 1 1 1 1.09765625 3.72265625 C1.08605469 4.82480469 1.07445312 5.92695313 1.0625 7.0625 C1.05347656 8.16722656 1.04445313 9.27195313 1.03515625 10.41015625 C1.02355469 11.26480469 1.01195312 12.11945313 1 13 C-2.3186878 14.45008384 -5.20735331 15.30215104 -8.8125 15.625 C-9.60269531 15.69976562 -10.39289063 15.77453125 -11.20703125 15.8515625 C-11.79871094 15.90054687 -12.39039063 15.94953125 -13 16 C-13 18.64 -13 21.28 -13 24 C-12.07316406 24.13277344 -11.14632812 24.26554687 -10.19140625 24.40234375 C-8.39509766 24.66724609 -8.39509766 24.66724609 -6.5625 24.9375 C-4.77005859 25.19853516 -4.77005859 25.19853516 -2.94140625 25.46484375 C0 26 0 26 1 27 C1.09873816 28.99799572 1.12971799 30.99957158 1.125 33 C1.12886719 34.6396875 1.12886719 34.6396875 1.1328125 36.3125 C1 39 1 39 0 40 C-7.82665491 39.86620563 -15.47476481 38.23446907 -23.08984375 36.56640625 C-24.19679092 36.32840805 -25.3037381 36.09040985 -26.44422913 35.84519958 C-28.76339501 35.34489097 -31.08186676 34.84135467 -33.3996582 34.3347168 C-36.95008405 33.55975324 -40.50312303 32.79775555 -44.05664062 32.03710938 C-46.3178743 31.54764108 -48.57894798 31.05743296 -50.83984375 30.56640625 C-51.90025375 30.3392543 -52.96066376 30.11210236 -54.0532074 29.87806702 C-55.53108482 29.55279274 -55.53108482 29.55279274 -57.03881836 29.22094727 C-57.90276718 29.03299088 -58.766716 28.84503448 -59.65684509 28.65138245 C-61.99259034 28.00205984 -63.92072755 27.2442829 -66 26 C-67.74885943 22.50228113 -67.48594617 18.56772528 -66.3417511 14.87640381 C-64.39205823 12.14980934 -62.58801444 12.04088217 -59.34448242 11.35253906 C-58.15952682 11.09257141 -56.97457123 10.83260376 -55.75370789 10.5647583 C-54.46728897 10.30104431 -53.18087006 10.03733032 -51.85546875 9.765625 C-50.52480341 9.48121885 -49.19442803 9.19545292 -47.86433411 8.90838623 C-45.07463829 8.30990178 -42.28290988 7.72259692 -39.48901367 7.14404297 C-35.91471533 6.40375921 -32.3448306 5.6444337 -28.77611828 4.87771988 C-25.36649505 4.14609749 -21.9548058 3.42433918 -18.54296875 2.703125 C-16.62244942 2.29540863 -16.62244942 2.29540863 -14.66313171 1.87945557 C-13.46871964 1.63209656 -12.27430756 1.38473755 -11.04370117 1.12988281 C-9.47056404 0.80156464 -9.47056404 0.80156464 -7.86564636 0.46661377 C-5.16778968 0.02732123 -2.72618277 -0.16610597 0 0 Z M-31 17.875 C-32.258125 18.03742188 -33.51625 18.19984375 -34.8125 18.3671875 C-38.0793986 18.70881426 -38.0793986 18.70881426 -40 21 C-34.06 21.66 -28.12 22.32 -22 23 C-22 21.02 -22 19.04 -22 17 C-25.03825431 17 -27.98989032 17.47406326 -31 17.875 Z " fill="#000000" transform="translate(290,245)"/>
</svg>
