<svg width="18" height="14" viewBox="0 0 18 14" fill="none" xmlns="http://www.w3.org/2000/svg">
<path d="M16.1775 8.90412C16.1831 8.85218 16.2 8.80297 16.2 8.75103C16.2 7.78598 15.3928 7.00137 14.4 7.00137C14.0456 7.00137 13.7194 7.10525 13.4409 7.27475C12.9459 6.21402 11.8519 5.47042 10.575 5.47042C8.83687 5.47042 7.425 6.84007 7.425 8.53232C7.425 8.61433 7.44469 8.69088 7.45031 8.77016C6.05531 8.87131 4.95 9.99219 4.95 11.3755C4.95 12.8244 6.15937 14 7.65 14H15.3C16.7906 14 18 12.8244 18 11.3755C18 10.2246 17.235 9.25952 16.1775 8.90412ZM4.0725 8.28627C2.84344 7.09158 2.84344 5.15056 4.0725 3.9586C5.30156 2.76391 7.29844 2.76391 8.5275 3.9586C8.80031 4.22378 9.00281 4.52997 9.15469 4.85257C9.43031 4.75142 9.72 4.68854 10.0181 4.64753L10.8562 2.21715C10.9688 1.89182 10.6509 1.58563 10.3162 1.69225L7.84687 2.49326L6.67969 0.229643C6.525 -0.0765476 6.075 -0.0765476 5.9175 0.229643L4.75312 2.49326L2.28094 1.69225C1.94906 1.58563 1.63125 1.89455 1.74094 2.21715L2.565 4.61746L0.23625 5.752C-0.07875 5.9051 -0.07875 6.33978 0.23625 6.49287L2.565 7.62468L1.74094 10.025C1.62844 10.3503 1.94625 10.6565 2.28094 10.5499L4.42125 9.85823C4.59281 9.51923 4.815 9.21031 5.085 8.94239C4.71656 8.79477 4.37063 8.57606 4.0725 8.28627ZM3.9375 6.12107C3.9375 7.23648 4.76156 8.16598 5.84719 8.37102C6.07219 8.24253 6.30562 8.13044 6.55594 8.05116C6.70781 6.84007 7.42781 5.79574 8.45156 5.18063C8.08031 4.38508 7.25625 3.82738 6.3 3.82738C4.99781 3.82738 3.9375 4.8553 3.9375 6.12107Z" fill="#C9C9C9"/>
</svg>
